<svg xmlns="http://www.w3.org/2000/svg" xmlns:xlink="http://www.w3.org/1999/xlink" viewBox="0 0 406 632"><defs><style>.a,.h{fill:none;}.b{isolation:isolate;}.c{opacity:0.03;}.c,.s{mix-blend-mode:multiply;}.d{fill:#a9aec3;}.e{fill:#d7d8e3;}.f{fill:#3c3c3b;}.g{clip-path:url(#a);}.h{stroke:#fff;stroke-linecap:round;stroke-miterlimit:10;stroke-width:1.62px;}.i{fill:#7a9a2b;}.j{fill:#fff;}.k{fill:url(#b);}.l{fill:#294d74;}.m{fill:#e6e7ee;}.n{clip-path:url(#c);}.o{fill:#d9dbe5;}.p{fill:#c1c4d4;}.q{fill:#aeb2c6;}.r{fill:#fafafc;}.s{opacity:0.1;}</style><clipPath id="a"><rect class="a" x="37.08" y="277.33" width="331" height="247" rx="2" ry="2"/></clipPath><linearGradient id="b" x1="202.58" y1="367.92" x2="202.58" y2="268.64" gradientUnits="userSpaceOnUse"><stop offset="0" stop-color="#3c3c3b" stop-opacity="0"/><stop offset="0.24" stop-color="#363635" stop-opacity="0.43"/><stop offset="0.56" stop-color="#302f2e" stop-opacity="0.85"/><stop offset="0.77" stop-color="#2e2d2c"/></linearGradient><clipPath id="c"><circle class="a" cx="203" cy="199.47" r="99.83"/></clipPath></defs><title>step3-online-whiteBG</title><g class="b"><g class="c"><path d="M1.86,296.92V524.75a17.61,17.61,0,0,0,17.61,17.61h356a17.62,17.62,0,0,0,17.62-17.61V296.92a17.62,17.62,0,0,0-17.62-17.62h-356A17.62,17.62,0,0,0,1.86,296.92Z"/></g><path class="d" d="M11.86,286.92V514.75a17.61,17.61,0,0,0,17.61,17.61h356a17.62,17.62,0,0,0,17.62-17.61V286.92a17.62,17.62,0,0,0-17.62-17.62h-356A17.62,17.62,0,0,0,11.86,286.92Z"/><circle class="e" cx="24.47" cy="400.91" r="2.87"/><ellipse class="e" cx="385.59" cy="400.87" rx="10.35" ry="10.35"/><rect class="f" x="37.08" y="277.33" width="331" height="247" rx="2" ry="2"/><g class="g"><line class="h" x1="244.68" y1="358.73" x2="261.64" y2="341.76"/><line class="h" x1="262.12" y1="400.83" x2="280.57" y2="400.83"/><line class="h" x1="244.68" y1="442.93" x2="261.64" y2="459.9"/><line class="h" x1="202.58" y1="460.37" x2="202.58" y2="478.83"/><line class="h" x1="160.47" y1="442.93" x2="143.51" y2="459.9"/><line class="h" x1="143.03" y1="400.83" x2="124.58" y2="400.83"/><line class="h" x1="160.47" y1="358.73" x2="143.51" y2="341.76"/><line class="h" x1="202.58" y1="341.29" x2="202.58" y2="322.83"/><circle class="i" cx="202.58" cy="400.83" r="45.08"/><rect class="j" x="167.55" y="394.39" width="69.07" height="11.81" rx="0.43" ry="0.43"/><path class="j" d="M212.51,419.52a10.43,10.43,0,1,1-10.43-10.43,10.44,10.44,0,0,1,10.43,10.43Zm0,0"/><path class="j" d="M212.51,380.23a10.43,10.43,0,1,1-10.43-10.43,10.44,10.44,0,0,1,10.43,10.43Zm0,.9"/><rect class="k" x="31.04" y="268.64" width="343.08" height="99.27"/></g><path class="l" d="M203,302.3A102.83,102.83,0,1,1,305.83,199.47,102.95,102.95,0,0,1,203,302.3Z"/><path class="m" d="M203,99.64a99.83,99.83,0,1,1-99.83,99.83A99.83,99.83,0,0,1,203,99.64m0-6A105.83,105.83,0,1,0,308.83,199.47,105.95,105.95,0,0,0,203,93.64Z"/><g class="n"><path class="o" d="M143.14,195.22,243,158.33l2.42-.9c7.25-2.8,13.09-.26,15.28,5.54,2.26,6-1,11.39-8.34,14.52l-93.83,43.42"/><circle class="o" cx="235.61" cy="204.25" r="11.31"/><circle class="o" cx="235.61" cy="223.5" r="11.31"/><circle class="o" cx="235.61" cy="242.76" r="11.31"/><path class="p" d="M195.54,235.22c0,40.54-26.41,57-58.91,50.64-10.5,12.36-13.5,29.68-13.5,29.68-35.38,15.85-37.79,12.66-36.05-18.43L163.36,218Z"/><path class="q" d="M183.74,215.67c7.11,26.6-3.29,45.41-25.63,50.43-25.68,5.77-38.65-8.83-38.65-8.83l64.28-41.6"/><g class="c"><path d="M227.25,278.85a10.58,10.58,0,0,0,10.55-10.59c0-27.77,0-56.09,0-83.87h.82V166h-.82c0-7.23,0-14.94,0-22.16a10.58,10.58,0,0,0-10.54-10.59h-51a10.6,10.6,0,0,0-10.49,10.44c0,2.6,0,6.09,0,8.69h-.93v6.12h.94c0,1.23,0,3.46,0,4.87h-.94V174h.86c0,.22.09,1.87.09,2.64h-1v10.69h.89s0,.38,0,.88q0,20,0,40.1v40a10.5,10.5,0,0,0,10.5,10.52Z"/></g><path class="q" d="M230.25,274.85a10.58,10.58,0,0,0,10.55-10.59c0-27.77,0-56.09,0-83.87h.82V162h-.82c0-7.23,0-14.94,0-22.16a10.58,10.58,0,0,0-10.54-10.59h-51a10.6,10.6,0,0,0-10.49,10.44c0,2.6,0,6.09,0,8.69h-.93v6.12h.94c0,1.23,0,3.46,0,4.87h-.94V170h.86c0,.22.09,1.87.09,2.64h-1v10.69h.89s0,.38,0,.88q0,20,0,40.1v40a10.5,10.5,0,0,0,10.5,10.52Z"/><path class="e" d="M212.64,134.11a1.06,1.06,0,1,1-1.06,1A1,1,0,0,1,212.64,134.11Z"/><path class="e" d="M201.32,134.55h7c.46,0,.93-.05.91.63s-.43.58-.86.58h-7.07c-.43,0-.85,0-.86-.58S200.86,134.55,201.32,134.55Z"/><path class="r" d="M236.5,264a6.48,6.48,0,0,1-5,6.46,8.88,8.88,0,0,1-2.13.2c-16.34,0-32.68,0-49,0-4.13,0-6.58-2.55-7.12-5.41a10.87,10.87,0,0,1-.1-2q0-61.22,0-122.45a9.37,9.37,0,0,1,.21-2.54A6.58,6.58,0,0,1,179,133.5c2.22-.19,4.44-.07,6.66-.07,1.07,0,1.59.57,1.65,1.66.13,2.39,1.15,3.36,3.51,3.36h28.1c2.3,0,3.36-1,3.47-3.3.05-1.12.55-1.72,1.59-1.72,2.26,0,4.51-.12,6.76.07a6.48,6.48,0,0,1,5.8,6.29q0,31.18,0,62.35Q236.5,233.06,236.5,264Z"/><path class="o" d="M89.74,288.65s27.8-62.21,38.15-79.46S151.14,194,151.14,194l62.93-2.4a7,7,0,0,1,6.77,8.92c-6.67,23.16-40.22,20.6-40.22,20.6,1.38,29.76-20.78,51.79-59.92,42.25C111.28,277.26,111,288.05,89.74,288.65Z"/><line class="h" x1="223.77" y1="123.15" x2="230.78" y2="113.87"/><line class="h" x1="185.73" y1="123.15" x2="178.72" y2="113.87"/><line class="h" x1="204.75" y1="121.62" x2="204.75" y2="108.68"/><g class="s"><rect x="180.23" y="157.38" width="49.15" height="22.15" rx="3.64" ry="3.64"/></g><rect class="i" x="180.23" y="155.92" width="49.15" height="22.15" rx="3.64" ry="3.64"/><path class="j" d="M186.26,164.42l1-1,3,3.06,3-3.06,1,1-3,3,3,3.05-1,1-3-3-3,3-1-1,3-3.05Z"/><path class="j" d="M195.84,164.42l1-1,3,3.06,3-3.06,1,1-3,3,3,3.05-1,1-3-3-3,3-1-1,3-3.05Z"/><path class="j" d="M205.42,164.42l1-1,3,3.06,3-3.06,1,1-3,3,3,3.05-1,1-3-3-3,3-1-1,3-3.05Z"/><path class="j" d="M215,164.42l1-1,3,3.06,3-3.06,1,1-3,3,3,3.05-1,1-3-3-3,3-1-1,3-3.05Z"/></g><rect class="a" width="406" height="632"/></g></svg>