<svg xmlns="http://www.w3.org/2000/svg" xmlns:xlink="http://www.w3.org/1999/xlink" viewBox="0 0 406 632"><defs><style>.a,.m,.y,.z{fill:none;}.b{fill:#7a9a2b;}.c{isolation:isolate;}.d{opacity:0.03;}.d,.u,.x{mix-blend-mode:multiply;}.e{fill:#a9aec3;}.f{fill:#d7d8e3;}.g{fill:#3c3c3b;}.h{clip-path:url(#a);}.i{fill:#fff;}.j{fill:#fafafc;}.k{fill:#1d1d1b;}.l{fill:#7c7c7b;}.m{stroke:#3c3c3b;stroke-miterlimit:10;stroke-width:1.81px;}.m,.y,.z{stroke-linecap:round;}.n{fill:url(#b);}.o{fill:#294d74;}.p{fill:#e6e7ee;}.q{clip-path:url(#c);}.r{fill:#aeb2c6;}.s{fill:#c1c4d4;}.t{fill:#d9dbe5;}.u{opacity:0.2;}.v{clip-path:url(#d);}.w{clip-path:url(#e);}.x{opacity:0.04;}.y{stroke:#000;}.y,.z{stroke-linejoin:round;stroke-width:2.25px;}.z{stroke:#d9dbe5;}</style><clipPath id="a"><rect class="a" x="37.08" y="246.71" width="331" height="247" rx="2" ry="2"/></clipPath><linearGradient id="b" x1="202.58" y1="341.3" x2="202.58" y2="238.02" gradientUnits="userSpaceOnUse"><stop offset="0" stop-color="#3c3c3b" stop-opacity="0"/><stop offset="0.24" stop-color="#363635" stop-opacity="0.43"/><stop offset="0.56" stop-color="#302f2e" stop-opacity="0.85"/><stop offset="0.77" stop-color="#2e2d2c"/></linearGradient><clipPath id="c"><circle class="a" cx="203" cy="168.85" r="99.83"/></clipPath><clipPath id="d"><rect x="132.96" y="132.82" width="120.07" height="80.05" rx="10" ry="10" transform="translate(-27.08 36.14) rotate(-10)"/></clipPath><clipPath id="e"><rect class="b" x="135.96" y="128.82" width="120.07" height="80.05" rx="10" ry="10" transform="translate(-26.34 36.6) rotate(-10)"/></clipPath></defs><title>step2-online-blueBG</title><g class="c"><g class="d"><path d="M1.86,266.29V494.13a17.61,17.61,0,0,0,17.61,17.61h356a17.62,17.62,0,0,0,17.62-17.61V266.29a17.62,17.62,0,0,0-17.62-17.62h-356A17.62,17.62,0,0,0,1.86,266.29Z"/></g><path class="e" d="M11.86,256.29V484.13a17.61,17.61,0,0,0,17.61,17.61h356a17.62,17.62,0,0,0,17.62-17.61V256.29a17.62,17.62,0,0,0-17.62-17.62h-356A17.62,17.62,0,0,0,11.86,256.29Z"/><circle class="f" cx="24.47" cy="370.29" r="2.87"/><ellipse class="f" cx="385.59" cy="370.25" rx="10.35" ry="10.35"/><rect class="g" x="37.08" y="246.71" width="331" height="247" rx="2" ry="2"/><g class="h"><circle class="b" cx="309.87" cy="372.21" r="19.65"/><polygon class="i" points="323.3 366.82 319.27 362.79 307.03 375.34 301.3 369.9 297.27 373.93 307.03 383.4 323.3 366.82"/><rect class="j" x="77.63" y="381.15" width="109.01" height="29.88" rx="3" ry="3"/><rect class="j" x="204.5" y="381.15" width="70.01" height="29.88" rx="3" ry="3"/><rect class="j" x="77.63" y="333.39" width="196.88" height="29.88" rx="3" ry="3"/><path class="k" d="M87.12,345.48l1.1-1.14,3.28,3.34,3.29-3.34,1.1,1.14-3.26,3.33,3.26,3.34-1.12,1.14L91.5,350l-3.26,3.33-1.12-1.14,3.26-3.34Z"/><path class="k" d="M97.59,345.48l1.1-1.14,3.28,3.34,3.29-3.34,1.1,1.14-3.26,3.33,3.26,3.34-1.12,1.14L102,350l-3.26,3.33-1.12-1.14,3.26-3.34Z"/><path class="k" d="M108.05,345.48l1.1-1.14,3.28,3.34,3.29-3.34,1.1,1.14-3.26,3.33,3.26,3.34-1.12,1.14L112.44,350l-3.26,3.33-1.12-1.14,3.26-3.34Z"/><path class="k" d="M118.52,345.48l1.1-1.14,3.28,3.34,3.29-3.34,1.1,1.14L124,348.81l3.26,3.34-1.12,1.14L122.9,350l-3.26,3.33-1.12-1.14,3.26-3.34Z"/><path class="k" d="M132.76,345.48l1.1-1.14,3.28,3.34,3.29-3.34,1.1,1.14-3.26,3.33,3.26,3.34-1.12,1.14L137.14,350l-3.26,3.33-1.12-1.14,3.26-3.34Z"/><path class="k" d="M143.22,345.48l1.1-1.14,3.28,3.34,3.29-3.34,1.1,1.14-3.26,3.33,3.26,3.34-1.12,1.14L147.61,350l-3.26,3.33-1.12-1.14,3.26-3.34Z"/><path class="k" d="M153.69,345.48l1.1-1.14,3.28,3.34,3.29-3.34,1.1,1.14-3.26,3.33,3.26,3.34-1.12,1.14L158.07,350l-3.26,3.33-1.12-1.14,3.26-3.34Z"/><path class="k" d="M164.16,345.48l1.1-1.14,3.28,3.34,3.29-3.34,1.1,1.14-3.26,3.33,3.26,3.34-1.12,1.14L168.54,350l-3.26,3.33-1.12-1.14,3.26-3.34Z"/><path class="k" d="M178.39,345.48l1.1-1.14,3.28,3.34,3.29-3.34,1.1,1.14-3.26,3.33,3.26,3.34L186,353.28,182.78,350l-3.26,3.33-1.12-1.14,3.26-3.34Z"/><path class="k" d="M188.86,345.48l1.1-1.14,3.28,3.34,3.29-3.34,1.1,1.14-3.26,3.33,3.26,3.34-1.12,1.14L193.24,350,190,353.28l-1.12-1.14,3.26-3.34Z"/><path class="k" d="M199.33,345.48l1.1-1.14,3.28,3.34,3.29-3.34,1.1,1.14-3.26,3.33,3.26,3.34L207,353.28,203.71,350l-3.26,3.33-1.12-1.14,3.26-3.34Z"/><path class="k" d="M209.79,345.48l1.1-1.14,3.28,3.34,3.29-3.34,1.1,1.14-3.26,3.33,3.26,3.34-1.12,1.14L214.18,350l-3.26,3.33-1.12-1.14,3.26-3.34Z"/><path class="k" d="M224,345.48l1.1-1.14,3.28,3.34,3.29-3.34,1.1,1.14-3.26,3.33,3.26,3.34-1.12,1.14L228.41,350l-3.26,3.33L224,352.15l3.26-3.34Z"/><path class="k" d="M234.5,345.48l1.1-1.14,3.28,3.34,3.29-3.34,1.1,1.14L240,348.81l3.26,3.34-1.12,1.14L238.88,350l-3.26,3.33-1.12-1.14,3.26-3.34Z"/><path class="k" d="M245,345.48l1.1-1.14,3.28,3.34,3.29-3.34,1.1,1.14-3.26,3.33,3.26,3.34-1.12,1.14L249.35,350l-3.26,3.33L245,352.15l3.26-3.34Z"/><path class="k" d="M255.43,345.48l1.1-1.14,3.28,3.34,3.29-3.34,1.1,1.14-3.26,3.33,3.26,3.34-1.12,1.14L259.81,350l-3.26,3.33-1.12-1.14,3.26-3.34Z"/><path class="k" d="M224.45,393.23l1.1-1.14,3.28,3.34,3.29-3.34,1.1,1.14L230,396.56l3.26,3.34L232.11,401l-3.27-3.33L225.58,401l-1.12-1.14,3.26-3.34Z"/><path class="k" d="M234.92,393.23l1.1-1.14,3.28,3.34,3.29-3.34,1.1,1.14-3.26,3.33,3.26,3.34L242.58,401l-3.27-3.33L236,401l-1.12-1.14,3.26-3.34Z"/><path class="k" d="M245.39,393.23l1.1-1.14,3.28,3.34,3.29-3.34,1.1,1.14-3.26,3.33,3.26,3.34L253,401l-3.27-3.33L246.51,401l-1.12-1.14,3.26-3.34Z"/><rect class="l" x="77.62" y="311.87" width="14.51" height="10.52" rx="0.36" ry="0.36"/><path class="l" d="M84.88,306.36a3.59,3.59,0,0,1,3.58,3.58v4.19a3.58,3.58,0,1,1-7.17,0v-4.19a3.59,3.59,0,0,1,3.58-3.58m0-1.8a5.38,5.38,0,0,0-5.38,5.38v4.19a5.38,5.38,0,0,0,10.77,0v-4.19a5.38,5.38,0,0,0-5.38-5.38Z"/><line class="m" x1="84.88" y1="315.7" x2="84.88" y2="318.57"/><path class="k" d="M108.66,393.23l1.1-1.14,3.28,3.34,3.29-3.34,1.1,1.14-3.26,3.33,3.26,3.34L116.31,401,113,397.71,109.78,401l-1.12-1.14,3.26-3.34Z"/><path class="k" d="M119.13,393.23l1.1-1.14,3.28,3.34,3.29-3.34,1.1,1.14-3.26,3.33,3.26,3.34L126.78,401l-3.27-3.33L120.25,401l-1.12-1.14,3.26-3.34Z"/><path class="k" d="M130.91,401.72h-1.72l3.64-12.33h1.72Z"/><path class="k" d="M135.55,393.23l1.1-1.14,3.28,3.34,3.29-3.34,1.1,1.14-3.26,3.33,3.26,3.34L143.21,401l-3.27-3.33L136.67,401l-1.12-1.14,3.26-3.34Z"/><path class="k" d="M146,393.23l1.1-1.14,3.28,3.34,3.29-3.34,1.1,1.14-3.26,3.33,3.26,3.34L153.67,401l-3.27-3.33L147.14,401,146,399.9l3.26-3.34Z"/><rect class="n" x="31.04" y="238.02" width="343.08" height="103.27"/></g><path class="o" d="M203,271.68A102.83,102.83,0,1,1,305.83,168.85,102.95,102.95,0,0,1,203,271.68Z"/><path class="p" d="M203,69a99.83,99.83,0,1,1-99.83,99.83A99.83,99.83,0,0,1,203,69m0-6A105.83,105.83,0,1,0,308.83,168.85,105.95,105.95,0,0,0,203,63Z"/><g class="q"><path class="r" d="M292.76,122.36l-34.08,7.54a8,8,0,0,0-4.53,3.08l-19.44,27a8,8,0,0,0,12.88,9.45l14.84-19.86a8,8,0,0,1,4.4-3l24.92-6.44a8,8,0,0,0,6-8.48Z"/><path class="s" d="M288,112.29l-41.7,9.42a8.73,8.73,0,0,0-5,3.24l-23.94,28.89a8.73,8.73,0,0,0,4.49,13.64c3.43,1,9.12-.12,11.32-2.93l16.73-21.29a8.73,8.73,0,0,1,4.88-3.11l27.38-6.37a8.73,8.73,0,0,0,6.73-9.1Z"/><path class="t" d="M266.87,164l-.91,7.39,35.26-20.06s-32.39-22.69-38.74-22.69C270.41,136.84,278.87,153,266.87,164Z"/><path class="t" d="M376.15,194.48l-66,5.08a12.07,12.07,0,0,1-5.16-.82l-19.65-8.36a12.05,12.05,0,0,0-3.94-.83l-45.8-2.87c-6.47-.26-11.57-4.58-11.57-11.05,0-6.66,5.4-11.06,12.06-11.06l40.88-1a4,4,0,0,0,3.74-5.46l-6.52-16.8a11.65,11.65,0,0,0-10.86-7.44H242a11.65,11.65,0,0,0-7.28,2.55l-22.46,16c-2.93,2.34-5.8,3.13-9.41,2.12-8.83-2.46-11.49-11.69-4.7-17.85L224.3,112a11.65,11.65,0,0,1,7.83-3h51.08a11.65,11.65,0,0,1,7.74,2.94l40.34,35.85,44.86,7.27v39.4"/><path class="i" d="M308.37,198.58h0m-84.38-23h0"/><path class="i" d="M205,156.93h0m-3.13-.43.08,0-.08,0m0,0h0m0,0h0m0,0h0m0,0h0m0,0h0m10.53-2.06a11.65,11.65,0,0,1-7.25,2.53,11.65,11.65,0,0,0,7.25-2.53m51.28-20.54h0m0,0h0m0,0h0m0,0h0m0,0h0m0,0h0m0,0h0m0,0h0m0,0h0"/><g class="u"><rect x="132.96" y="132.82" width="120.07" height="80.05" rx="10" ry="10" transform="translate(-27.08 36.14) rotate(-10)"/><g class="v"><rect x="121.88" y="130.13" width="130.39" height="27.83" transform="translate(-22.17 34.67) rotate(-10)"/></g><rect x="130.79" y="153.03" width="120.07" height="15.01" transform="translate(-24.98 35.58) rotate(-10)"/><rect x="152.38" y="198.17" width="24.93" height="5" transform="matrix(0.98, -0.17, 0.17, 0.98, -32.34, 31.67)"/><rect x="182.01" y="193.82" width="15.01" height="5" transform="translate(-31.21 35.89) rotate(-10)"/><rect x="150.49" y="186.57" width="45.03" height="5" transform="translate(-30.2 32.91) rotate(-10)"/><rect x="224.62" y="176.15" width="15.01" height="5" transform="translate(-27.49 43.01) rotate(-10)"/></g><rect class="b" x="135.96" y="128.82" width="120.07" height="80.05" rx="10" ry="10" transform="translate(-26.34 36.6) rotate(-10)"/><g class="w"><rect class="j" x="124.88" y="126.13" width="130.39" height="27.83" transform="translate(-21.43 35.13) rotate(-10)"/></g><rect class="g" x="133.79" y="149.03" width="120.07" height="15.01" transform="translate(-24.24 36.04) rotate(-10)"/><rect class="i" x="155.38" y="194.17" width="24.93" height="5" transform="matrix(0.98, -0.17, 0.17, 0.98, -31.6, 32.13)"/><rect class="i" x="185.01" y="189.82" width="15.01" height="5" transform="translate(-30.47 36.35) rotate(-10)"/><rect class="i" x="153.49" y="182.57" width="45.03" height="5" transform="translate(-29.46 33.37) rotate(-10)"/><rect class="i" x="227.62" y="172.15" width="15.01" height="5" transform="translate(-26.75 43.47) rotate(-10)"/><path class="t" d="M281.37,189.54l-45.8-2.87c-6.47-.26-11.57-4.58-11.57-11.05,0-6.66,5.4-11.06,12.06-11.06l40.88-6"/></g><g class="x"><path d="M329.06,534.14c-6.65,13.45-22.79,40.85-55.15,32.18-33.8-9.06-36.89-40.54-35.54-58.3,0,0,6.42-50.32,6.57-51.45.46-3.42,2.79-4.07,4.39-4,3.38.13,6.59,1.06,8.76,3.5a14.5,14.5,0,0,1,3.3,9.71l-1.64,20.48c-.14,1.82.31,3.89,2.05,3.89s2.59-3,3.19-5.38l20-73a8.12,8.12,0,0,1,15.65,4.19s-12.66,51.6-13.19,53.35c-.59,1.92-1.22,5,.36,5.41s2.72-3.19,2.73-3.2l3.78-11A8.12,8.12,0,0,1,310,464.66l-2.11,10c-.37,1.65-1,5.12.74,5.59s3.25-4.14,3.26-4.16l2-4.89a8.12,8.12,0,0,1,15.65,4.19l-.81,5c-.21,1.68-1.64,6.22-.19,6.61s5.28-6.68,11.74-1.73C350.51,493.21,335.71,520.69,329.06,534.14Z"/><path class="y" d="M329.06,534.14c-6.65,13.45-22.79,40.85-55.15,32.18-33.8-9.06-36.89-40.54-35.54-58.3,0,0,6.42-50.32,6.57-51.45.46-3.42,2.79-4.07,4.39-4,3.38.13,6.59,1.06,8.76,3.5a14.5,14.5,0,0,1,3.3,9.71l-1.64,20.48c-.14,1.82.31,3.89,2.05,3.89s2.59-3,3.19-5.38l20-73a8.12,8.12,0,0,1,15.65,4.19s-12.66,51.6-13.19,53.35c-.59,1.92-1.22,5,.36,5.41s2.72-3.19,2.73-3.2l3.78-11A8.12,8.12,0,0,1,310,464.66l-2.11,10c-.37,1.65-1,5.12.74,5.59s3.25-4.14,3.26-4.16l2-4.89a8.12,8.12,0,0,1,15.65,4.19l-.81,5c-.21,1.68-1.64,6.22-.19,6.61s5.28-6.68,11.74-1.73C350.51,493.21,335.71,520.69,329.06,534.14Z"/></g><path class="t" d="M334.06,529.14c-6.65,13.45-22.79,40.85-55.15,32.18-33.8-9.06-36.89-40.54-35.54-58.3,0,0,6.42-50.32,6.57-51.45.46-3.42,2.79-4.07,4.39-4,3.38.13,6.59,1.06,8.76,3.5a14.5,14.5,0,0,1,3.3,9.71l-1.64,20.48c-.14,1.82.31,3.89,2.05,3.89s2.59-3,3.19-5.38l20-73a8.12,8.12,0,0,1,15.65,4.19s-12.66,51.6-13.19,53.35c-.59,1.92-1.22,5,.36,5.41s2.72-3.19,2.73-3.2l3.78-11A8.12,8.12,0,0,1,315,459.66l-2.11,10c-.37,1.65-1,5.12.74,5.59s3.25-4.14,3.26-4.16l2-4.89a8.12,8.12,0,0,1,15.65,4.19l-.81,5c-.21,1.68-1.64,6.22-.19,6.61s5.28-6.68,11.74-1.73C355.51,488.21,340.71,515.69,334.06,529.14Z"/><path class="z" d="M334.06,529.14c-6.65,13.45-22.79,40.85-55.15,32.18-33.8-9.06-36.89-40.54-35.54-58.3,0,0,6.42-50.32,6.57-51.45.46-3.42,2.79-4.07,4.39-4,3.38.13,6.59,1.06,8.76,3.5a14.5,14.5,0,0,1,3.3,9.71l-1.64,20.48c-.14,1.82.31,3.89,2.05,3.89s2.59-3,3.19-5.38l20-73a8.12,8.12,0,0,1,15.65,4.19s-12.66,51.6-13.19,53.35c-.59,1.92-1.22,5,.36,5.41s2.72-3.19,2.73-3.2l3.78-11A8.12,8.12,0,0,1,315,459.66l-2.11,10c-.37,1.65-1,5.12.74,5.59s3.25-4.14,3.26-4.16l2-4.89a8.12,8.12,0,0,1,15.65,4.19l-.81,5c-.21,1.68-1.64,6.22-.19,6.61s5.28-6.68,11.74-1.73C355.51,488.21,340.71,515.69,334.06,529.14Z"/><rect class="a" width="406" height="632"/></g></svg>