<svg xmlns="http://www.w3.org/2000/svg" xmlns:xlink="http://www.w3.org/1999/xlink" viewBox="0 0 406 632"><defs><style>.a,.s,.u{fill:none;}.b{isolation:isolate;}.c{opacity:0.03;}.c,.o,.r{mix-blend-mode:multiply;}.d{fill:#a9aec3;}.e{fill:#d7d8e3;}.f{fill:#3c3c3b;}.g{clip-path:url(#a);}.h{fill:#7c7c7b;}.i{fill:#7a9a2b;}.j{fill:#fff;}.k{fill:url(#b);}.l{fill:#294d74;}.m{fill:#e6e7ee;}.n{clip-path:url(#c);}.o{opacity:0.2;}.p{fill:url(#d);}.q{fill:#d9dbe5;stroke:#d9dbe5;}.q,.s,.u{stroke-linecap:round;stroke-linejoin:round;stroke-width:2.26px;}.r{opacity:0.04;}.s{stroke:#000;}.t{fill:#dedfe9;}.u{stroke:#dedfe9;}</style><clipPath id="a"><rect class="a" x="37.08" y="245.17" width="331" height="247" rx="2" ry="2"/></clipPath><linearGradient id="b" x1="202.58" y1="383.76" x2="202.58" y2="236.49" gradientUnits="userSpaceOnUse"><stop offset="0" stop-color="#3c3c3b" stop-opacity="0"/><stop offset="0.24" stop-color="#363635" stop-opacity="0.43"/><stop offset="0.56" stop-color="#302f2e" stop-opacity="0.85"/><stop offset="0.77" stop-color="#2e2d2c"/></linearGradient><clipPath id="c"><circle class="a" cx="203" cy="167.31" r="99.83"/></clipPath><linearGradient id="d" x1="203" y1="181.95" x2="203" y2="126.61" gradientUnits="userSpaceOnUse"><stop offset="0" stop-color="#7a9a2b" stop-opacity="0.7"/><stop offset="0.24" stop-color="#7a9a2b" stop-opacity="0.83"/><stop offset="0.56" stop-color="#7a9a2b" stop-opacity="0.95"/><stop offset="0.77" stop-color="#7a9a2b"/></linearGradient></defs><title>step1-online-whiteBG</title><g class="b"><g class="c"><path d="M1.86,264.76V492.59A17.61,17.61,0,0,0,19.47,510.2h356a17.62,17.62,0,0,0,17.62-17.61V264.76a17.62,17.62,0,0,0-17.62-17.62h-356A17.62,17.62,0,0,0,1.86,264.76Z"/></g><path class="d" d="M11.86,254.76V482.59A17.61,17.61,0,0,0,29.47,500.2h356a17.62,17.62,0,0,0,17.62-17.61V254.76a17.62,17.62,0,0,0-17.62-17.62h-356A17.62,17.62,0,0,0,11.86,254.76Z"/><circle class="e" cx="24.47" cy="368.75" r="2.87"/><ellipse class="e" cx="385.59" cy="368.71" rx="10.35" ry="10.35"/><rect class="f" x="37.08" y="245.17" width="331" height="247" rx="2" ry="2"/><g class="g"><path class="h" d="M146.15,234.46h13.36l3.8,6.33q.19.31,3.15,5.76h.15q2-4.26,3-5.91l3.42-6.18h12.93l-12.63,18.31,12.82,20.11H172.56L168.72,266q-1.57-2.84-3-5.91h-.23q-1.15,2.57-2.92,5.91L159,272.88H145.85l13-19.65Z"/><path class="h" d="M201.93,233.58a18.14,18.14,0,0,1,13.78,6,19.77,19.77,0,0,1,5.49,14,20,20,0,0,1-5.49,14.12,18.81,18.81,0,0,1-27.6,0,20.78,20.78,0,0,1,0-28.27A18.19,18.19,0,0,1,201.93,233.58Zm-.08,9.06q-3.49,0-5.57,3.92a15.69,15.69,0,0,0,0,14.16q2,4,5.57,4t5.64-4a15.43,15.43,0,0,0,1.65-7.14,14.84,14.84,0,0,0-1.69-7.06Q205.42,242.64,201.85,242.64Z"/><path class="h" d="M222.89,286.16v-9.29a34.14,34.14,0,0,0,5.18,0,19.9,19.9,0,0,0,10.06-3.11,15.33,15.33,0,0,0,6.45-9.52l-.23-.08q-3.61,3.68-10.29,3.68A15.31,15.31,0,0,1,218.17,252a17.3,17.3,0,0,1,5.72-13.24,19.24,19.24,0,0,1,13.55-5.14q9.36,0,14.55,6.41,4.8,5.91,4.8,15.51,0,13.93-7.25,21.92-7.41,8.14-21.23,8.75A47.45,47.45,0,0,1,222.89,286.16Zm14.24-43.87h-.08a6.09,6.09,0,0,0-5.33,2.84,10.53,10.53,0,0,0-1.61,6.06A9,9,0,0,0,232,257a6.58,6.58,0,0,0,5.41,2.42q5.33,0,6.83-3.8a6.65,6.65,0,0,0,.38-2.5,14.29,14.29,0,0,0-1.73-7.48A6.27,6.27,0,0,0,237.13,242.29Z"/><path class="h" d="M146.15,288.42h13.36l3.8,6.33q.19.31,3.15,5.76h.15q2-4.26,3-5.91l3.42-6.18h12.93l-12.63,18.31,12.82,20.11H172.56l-3.84-6.91q-1.57-2.84-3-5.91h-.23q-1.15,2.57-2.92,5.91L159,326.85H145.85l13-19.65Z"/><path class="h" d="M198.63,326.85V299h-.15l-9.75,4.64-2-9,13.51-6.37h9.9v38.54Z"/><path class="h" d="M237.67,287.54a18.14,18.14,0,0,1,13.78,6,19.77,19.77,0,0,1,5.49,14,20,20,0,0,1-5.49,14.12,18.81,18.81,0,0,1-27.6,0,20.78,20.78,0,0,1,0-28.27A18.19,18.19,0,0,1,237.67,287.54Zm-.08,9.06q-3.49,0-5.57,3.92a15.69,15.69,0,0,0,0,14.16q2,4,5.57,4t5.64-4a15.43,15.43,0,0,0,1.65-7.14,14.84,14.84,0,0,0-1.69-7.06Q241.16,296.6,237.6,296.6Z"/><path class="h" d="M146.15,342.39h13.36l3.8,6.33q.19.31,3.15,5.76h.15q2-4.26,3-5.91l3.42-6.18h12.93l-12.63,18.31,12.82,20.11H172.56l-3.84-6.91q-1.57-2.84-3-5.91h-.23q-1.15,2.57-2.92,5.91L159,380.81H145.85l13-19.65Z"/><path class="h" d="M198.63,380.81V353h-.15l-9.75,4.64-2-9,13.51-6.37h9.9v38.54Z"/><path class="h" d="M234.37,380.81V353h-.15l-9.75,4.64-2-9L236,342.27h9.9v38.54Z"/><path class="i" d="M146.15,396.35h13.36l3.8,6.33q.19.31,3.15,5.76h.15q2-4.26,3-5.91l3.42-6.18h12.93l-12.63,18.31,12.82,20.11H172.56l-3.84-6.91q-1.57-2.84-3-5.91h-.23q-1.15,2.57-2.92,5.91L159,434.77H145.85l13-19.65Z"/><path class="i" d="M198.63,434.77V406.94h-.15l-9.75,4.64-2-9,13.51-6.37h9.9v38.54Z"/><path class="i" d="M255.44,434.77H219.13v-7.22L232,419.19q10.36-6.87,10.36-8.94,0-5.33-7.52-5.33A20.47,20.47,0,0,0,224.08,408l-2.42-8.67q6-3.84,15.78-3.84a21.43,21.43,0,0,1,11.48,2.92,10.92,10.92,0,0,1,5.6,9.83,13.8,13.8,0,0,1-4.41,10.52q-2.42,2.26-9.75,6.22h15.08Z"/><circle class="i" cx="118.38" cy="415.56" r="19.65"/><polygon class="j" points="131.81 410.17 127.78 406.14 115.54 418.69 109.8 413.25 105.78 417.28 115.54 426.75 131.81 410.17"/><rect class="k" x="31.04" y="236.49" width="343.08" height="147.27"/></g><path class="l" d="M203,270.14A102.83,102.83,0,1,1,305.83,167.31,102.95,102.95,0,0,1,203,270.14Z"/><path class="m" d="M203,67.48a99.83,99.83,0,1,1-99.83,99.83A99.83,99.83,0,0,1,203,67.48m0-6A105.83,105.83,0,1,0,308.83,167.31,105.95,105.95,0,0,0,203,61.48Z"/><g class="n"><g class="o"><rect x="128.7" y="122.61" width="148.6" height="55.34" rx="10" ry="10"/></g><rect class="p" x="128.7" y="126.61" width="148.6" height="55.34" rx="10" ry="10"/><path class="i" d="M265.9,148.24a1.65,1.65,0,1,1-1.64-1.68,1.65,1.65,0,0,1,1.64,1.68Zm-3,0a1.39,1.39,0,0,0,1.33,1.45h.06a1.46,1.46,0,0,0,0-2.92h0a1.41,1.41,0,0,0-1.38,1.47Zm2.05-.63a1.18,1.18,0,0,0-.52-.13.7.7,0,0,0-.77.76.72.72,0,0,0,.68.76h.09a1.06,1.06,0,0,0,.55-.14l.07.21a1.24,1.24,0,0,1-.67.17.94.94,0,0,1-1-1,1,1,0,0,1,1-1h0a1.08,1.08,0,0,1,.6.15Z"/><path class="j" d="M150,162a1.72,1.72,0,1,1-1.72-1.72h0A1.72,1.72,0,0,1,150,162Zm9.21-1.72a1.72,1.72,0,1,0,1.72,1.72A1.72,1.72,0,0,0,159.2,160.24Zm5.15-12.09-.83,2.13H146.89a0,0,0,0,0,0,0v2a0,0,0,0,0,0,0h15.83l-2.35,6a1.72,1.72,0,0,1-1.53.91H147.91a1.47,1.47,0,0,1-1.41-.93l-2.51-9.9-2.06-2.26,0,0h-1.3a.45.45,0,0,1-.49-.4v-.46a.45.45,0,0,1,.49-.39h2.53a.52.52,0,0,1,.42.2.38.38,0,0,1,.11.08l1.9,2.09h18C164.17,147.24,164.54,147.65,164.35,148.15Zm-15.58,7.57a0,0,0,0,0,0,0H160a0,0,0,0,0,0,0v-2a0,0,0,0,0,0,0H148.8a0,0,0,0,0,0,0Z"/><circle class="j" cx="162.56" cy="148.27" r="6.56"/><path class="i" d="M157.47,149v-1.66a0,0,0,0,1,0,0h10a0,0,0,0,1,0,0V149a0,0,0,0,1,0,0h-10A0,0,0,0,1,157.47,149Zm6.54,1.84a1.52,1.52,0,1,0-1.52,1.52,1.52,1.52,0,0,0,1.52-1.52h0Zm0-5.45a1.52,1.52,0,1,0-1.52,1.52,1.52,1.52,0,0,0,1.52-1.52h0"/><path class="j" d="M171.08,159.35V145.77a26.1,26.1,0,0,1,4.21-.29,7.34,7.34,0,0,1,3.9.9,3.71,3.71,0,0,1,1.78,3.39,4.26,4.26,0,0,1-1.27,3.27,6.28,6.28,0,0,1-4.47,1.46,7.27,7.27,0,0,1-1.07-.07v4.93Zm3.08-11.42V152a5.24,5.24,0,0,0,1,.08,3.08,3.08,0,0,0,1.87-.53,2,2,0,0,0,.8-1.72q0-2-2.43-2A6.31,6.31,0,0,0,174.16,147.93Z"/><path class="j" d="M192.93,159.35h-4.43l-.18-1h-.07a3.46,3.46,0,0,1-2.85,1.23,3.21,3.21,0,0,1-2.38-.93,3,3,0,0,1-.85-2.13,3.19,3.19,0,0,1,1.61-2.89,8.11,8.11,0,0,1,4.26-.94v-.13q0-1.3-1.82-1.29a5.32,5.32,0,0,0-2.76.74l-.57-2a7.7,7.7,0,0,1,3.88-.9q4.38,0,4.38,4.32v2.79a1,1,0,0,0,.56,1,3.46,3.46,0,0,0,1.24.15Zm-4.81-3.63v-1.1q-2.89,0-2.89,1.58a1.07,1.07,0,0,0,1.23,1.2,1.66,1.66,0,0,0,1-.33,1.57,1.57,0,0,0,.6-.82A1.83,1.83,0,0,0,188.13,155.72Z"/><path class="j" d="M200.86,152.11A4.22,4.22,0,0,0,200,152a1.9,1.9,0,0,0-2.12,1.59,3.26,3.26,0,0,0-.06.69v5.06h-3.11v-6.9a1,1,0,0,0-.56-1,3.42,3.42,0,0,0-1.23-.15v-1.93h4.37l.12,1.84h.08a3.14,3.14,0,0,1,1.18-1.59,2.62,2.62,0,0,1,1.52-.49,3.15,3.15,0,0,1,.67.06Z"/><path class="j" d="M209.62,156.82l.37,2.28a6.56,6.56,0,0,1-2.78.48,5.33,5.33,0,0,1-3.83-1.36,5.57,5.57,0,0,1,.18-7.7,5.93,5.93,0,0,1,4.08-1.39,6.73,6.73,0,0,1,2.37.39l-.49,2.3a4.51,4.51,0,0,0-1.74-.3,2.55,2.55,0,0,0-2,.77,2.84,2.84,0,0,0-.72,2,2.8,2.8,0,0,0,.74,2,2.65,2.65,0,0,0,2,.77A4.88,4.88,0,0,0,209.62,156.82Z"/><path class="j" d="M220.52,155.35h-6.43a1.74,1.74,0,0,0,1,1.49,3.79,3.79,0,0,0,1.82.41,8.91,8.91,0,0,0,2.75-.41l.41,2.1a9.46,9.46,0,0,1-3.61.64,5.46,5.46,0,0,1-3.87-1.32,4.91,4.91,0,0,1-1.47-3.79,5.58,5.58,0,0,1,1.23-3.62,4.64,4.64,0,0,1,3.82-1.72,4,4,0,0,1,3.43,1.56,5.51,5.51,0,0,1,1,3.43A6.2,6.2,0,0,1,220.52,155.35Zm-6.45-2.12h3.68a2.38,2.38,0,0,0-.35-1.29,1.56,1.56,0,0,0-1.42-.74,1.67,1.67,0,0,0-1.35.62A2.51,2.51,0,0,0,214.07,153.23Z"/><path class="j" d="M226.13,159.35H223V148a1,1,0,0,0-.56-1,3.6,3.6,0,0,0-1.23-.14v-1.94h4.9Z"/><path class="j" d="M238.74,159.35h-4.43l-.18-1h-.07a3.46,3.46,0,0,1-2.85,1.23,3.21,3.21,0,0,1-2.38-.93,3,3,0,0,1-.85-2.13,3.19,3.19,0,0,1,1.61-2.89,8.11,8.11,0,0,1,4.26-.94v-.13q0-1.3-1.82-1.29a5.32,5.32,0,0,0-2.76.74l-.57-2a7.7,7.7,0,0,1,3.88-.9q4.38,0,4.38,4.32v2.79a1,1,0,0,0,.56,1,3.46,3.46,0,0,0,1.24.15Zm-4.81-3.63v-1.1q-2.89,0-2.89,1.58a1.07,1.07,0,0,0,1.23,1.2,1.66,1.66,0,0,0,1-.33,1.57,1.57,0,0,0,.6-.82A1.83,1.83,0,0,0,233.93,155.72Z"/><path class="j" d="M246.9,154.25v-8.66H250v8.7q0,5.3-4.91,5.3a6.87,6.87,0,0,1-2.26-.33l.35-2.51a5.4,5.4,0,0,0,1.6.24,1.9,1.9,0,0,0,1.73-.78A3.77,3.77,0,0,0,246.9,154.25Z"/><path class="j" d="M260.82,153.45v3.47a15.65,15.65,0,0,0,.14,2.43h-2.79l-.19-1h-.06a3.46,3.46,0,0,1-2.85,1.23,3.16,3.16,0,0,1-2.37-.95,2.93,2.93,0,0,1-.86-2.12,3.23,3.23,0,0,1,2-3.1,8.93,8.93,0,0,1,3.87-.72v-.14q0-1.29-1.81-1.29a5.22,5.22,0,0,0-2.76.76l-.57-2a7.84,7.84,0,0,1,3.88-.88Q260.82,149.14,260.82,153.45Zm-3,2.26v-1.08q-2.9,0-2.9,1.58,0,1.18,1.23,1.18a1.76,1.76,0,0,0,1-.31,1.46,1.46,0,0,0,.61-.83A1.94,1.94,0,0,0,257.79,155.71ZM257,145.05h2.86l-2.49,3.11h-2.12Z"/><rect class="j" x="140.1" y="165.27" width="121.76" height="1.56"/><path class="q" d="M268.55,286.61C265.61,301.32,257.11,332,223.61,332c-35,0-46.13-29.61-49.42-47.13,0,0-6.82-50.27-7-51.4-.44-3.42,1.64-4.65,3.21-5,3.3-.75,6.64-.69,9.37,1.12a14.5,14.5,0,0,1,5.7,8.53l3.71,20.21c.34,1.8,1.31,3.68,3,3.23s1.72-3.58,1.69-6l.41-75.73a8.12,8.12,0,0,1,16.2,0s1.13,53.12,1.06,54.95c-.07,2,.12,5.14,1.75,5.14s1.81-3.79,1.81-3.8l.8-11.61a8.12,8.12,0,0,1,16.2,0l.55,10.21c.07,1.69.35,5.2,2.16,5.2s2.07-4.84,2.07-4.86l.64-5.23a8.12,8.12,0,0,1,16.2,0l.51,5.07c.23,1.68,0,6.43,1.52,6.43s3.37-7.82,10.89-4.71C278.68,241.52,271.5,271.9,268.55,286.61Z"/></g><g class="r"><path d="M380.34,501.4c2.81,16.21,6.25,50.92-28,64.18-35.79,13.85-58.9-12-69.2-28.63,0,0-26.88-48.71-27.47-49.81-1.81-3.32-.16-5.41,1.3-6.39,3.08-2.07,6.52-3.33,10-2.57a15.9,15.9,0,0,1,9.2,6.47L288,503.84c1.06,1.71,2.79,3.24,4.34,2.12s.34-4.35-.66-6.83L262.1,421.53a8.91,8.91,0,0,1,16.57-6.41s22.18,53.88,22.84,55.77c.72,2.08,2.15,5.21,3.82,4.56s.35-4.59.34-4.6l-3.78-12.19a8.91,8.91,0,0,1,16.57-6.41l4.6,10.22c.74,1.7,2.41,5.19,4.27,4.47s.2-5.77.2-5.79l-1.42-5.6a8.91,8.91,0,0,1,16.57-6.41l2.53,5c.9,1.62,2.57,6.57,4.1,6s.35-9.33,9.28-9.13C372.85,451.28,377.53,485.19,380.34,501.4Z"/><path class="s" d="M380.34,501.4c2.81,16.21,6.25,50.92-28,64.18-35.79,13.85-58.9-12-69.2-28.63,0,0-26.88-48.71-27.47-49.81-1.81-3.32-.16-5.41,1.3-6.39,3.08-2.07,6.52-3.33,10-2.57a15.9,15.9,0,0,1,9.2,6.47L288,503.84c1.06,1.71,2.79,3.24,4.34,2.12s.34-4.35-.66-6.83L262.1,421.53a8.91,8.91,0,0,1,16.57-6.41s22.18,53.88,22.84,55.77c.72,2.08,2.15,5.21,3.82,4.56s.35-4.59.34-4.6l-3.78-12.19a8.91,8.91,0,0,1,16.57-6.41l4.6,10.22c.74,1.7,2.41,5.19,4.27,4.47s.2-5.77.2-5.79l-1.42-5.6a8.91,8.91,0,0,1,16.57-6.41l2.53,5c.9,1.62,2.57,6.57,4.1,6s.35-9.33,9.28-9.13C372.85,451.28,377.53,485.19,380.34,501.4Z"/></g><path class="t" d="M385.34,496.4c2.81,16.21,6.25,50.92-28,64.18-35.79,13.85-58.9-12-69.2-28.63,0,0-26.88-48.71-27.47-49.81-1.81-3.32-.16-5.41,1.3-6.39,3.08-2.07,6.52-3.33,10-2.57a15.9,15.9,0,0,1,9.2,6.47L293,498.84c1.06,1.71,2.79,3.24,4.34,2.12s.34-4.35-.66-6.83L267.1,416.53a8.91,8.91,0,0,1,16.57-6.41s22.18,53.88,22.84,55.77c.72,2.08,2.15,5.21,3.82,4.56s.35-4.59.34-4.6l-3.78-12.19a8.91,8.91,0,0,1,16.57-6.41l4.6,10.22c.74,1.7,2.41,5.19,4.27,4.47s.2-5.77.2-5.79l-1.42-5.6a8.91,8.91,0,0,1,16.57-6.41l2.53,5c.9,1.62,2.57,6.57,4.1,6s.35-9.33,9.28-9.13C377.85,446.28,382.53,480.19,385.34,496.4Z"/><path class="u" d="M385.34,496.4c2.81,16.21,6.25,50.92-28,64.18-35.79,13.85-58.9-12-69.2-28.63,0,0-26.88-48.71-27.47-49.81-1.81-3.32-.16-5.41,1.3-6.39,3.08-2.07,6.52-3.33,10-2.57a15.9,15.9,0,0,1,9.2,6.47L293,498.84c1.06,1.71,2.79,3.24,4.34,2.12s.34-4.35-.66-6.83L267.1,416.53a8.91,8.91,0,0,1,16.57-6.41s22.18,53.88,22.84,55.77c.72,2.08,2.15,5.21,3.82,4.56s.35-4.59.34-4.6l-3.78-12.19a8.91,8.91,0,0,1,16.57-6.41l4.6,10.22c.74,1.7,2.41,5.19,4.27,4.47s.2-5.77.2-5.79l-1.42-5.6a8.91,8.91,0,0,1,16.57-6.41l2.53,5c.9,1.62,2.57,6.57,4.1,6s.35-9.33,9.28-9.13C377.85,446.28,382.53,480.19,385.34,496.4Z"/><rect class="a" width="406" height="632"/></g></svg>