<svg xmlns="http://www.w3.org/2000/svg" viewBox="0 0 235 235"><defs><style>.cls-1{fill:#fbfbfb;}.cls-2{fill:#eee;}.cls-3{fill:#7a9a2b;}.cls-4,.cls-5,.cls-6{fill:none;}.cls-4{stroke:#7a9a2b;stroke-linecap:round;stroke-linejoin:round;}.cls-4,.cls-6{stroke-width:2.5px;}.cls-6{stroke:#fbfbfb;stroke-miterlimit:10;}</style></defs><title>01-pupj</title><g id="Layer_2" data-name="Layer 2"><g id="Layer_1-2" data-name="Layer 1"><path class="cls-1" d="M117.5,231A113.5,113.5,0,1,1,231,117.5,113.63,113.63,0,0,1,117.5,231Z"/><path class="cls-2" d="M117.5,8a109.5,109.5,0,0,1,77.43,186.93A109.5,109.5,0,0,1,40.07,40.07,108.78,108.78,0,0,1,117.5,8m0-8A117.5,117.5,0,1,0,235,117.5,117.5,117.5,0,0,0,117.5,0Z"/><g id="SVGID"><path class="cls-3" d="M79.84,56.7a4.56,4.56,0,0,1,.86.08l77.93,15.1a4.5,4.5,0,0,1,3.56,5.27L153,124.54a4.5,4.5,0,0,1-4.41,3.65,4.55,4.55,0,0,1-.86-.08L69.81,113a4.51,4.51,0,0,1-3.56-5.27l9.18-47.37a4.5,4.5,0,0,1,4.41-3.65m0-2.5A7,7,0,0,0,73,59.87L63.8,107.24a7,7,0,0,0,5.54,8.2l77.93,15.1a7,7,0,0,0,8.2-5.54l9.18-47.37a7,7,0,0,0-5.54-8.2L81.18,54.33a7,7,0,0,0-1.34-.13Z"/></g><path class="cls-3" d="M73.87,68.41l86.77,16.82-1.81,9.35L72.06,77.76l1.81-9.35m-2-2.93L69.13,79.74,160.8,97.51l2.76-14.26L71.89,65.48Z"/><line class="cls-4" x1="145.27" y1="108.37" x2="110.97" y2="101.72"/><line class="cls-5" x1="145.27" y1="116.29" x2="122.35" y2="111.85"/><line class="cls-5" x1="89.46" y1="97.55" x2="78" y2="95.33"/><path class="cls-3" d="M94.17,182.34a38,38,0,1,1,38-38A38,38,0,0,1,94.17,182.34Z"/><path class="cls-1" d="M94.17,107.65a36.72,36.72,0,1,1-36.72,36.72,36.72,36.72,0,0,1,36.72-36.72m0-2.5a39.22,39.22,0,1,0,39.22,39.22,39.26,39.26,0,0,0-39.22-39.22Z"/><line class="cls-6" x1="94.17" y1="128.47" x2="94.17" y2="160.27"/><line class="cls-6" x1="110.07" y1="144.37" x2="78.26" y2="144.37"/><g id="SVGID-2" data-name="SVGID"><path class="cls-1" d="M126.56,164a5.73,5.73,0,0,1-5.58-4.39L113.25,128a5.75,5.75,0,0,1,4.22-7l54.24-13.27a5.74,5.74,0,0,1,7,4.22l7.74,31.63a5.75,5.75,0,0,1-4.22,7l-54.24,13.27a5.78,5.78,0,0,1-1.37.17Z"/><path class="cls-3" d="M173.08,108.86a4.49,4.49,0,0,1,4.37,3.43l7.74,31.63a4.5,4.5,0,0,1-3.3,5.44l-54.24,13.27a4.49,4.49,0,0,1-5.44-3.3l-7.74-31.63a4.5,4.5,0,0,1,3.3-5.44L172,109a4.53,4.53,0,0,1,1.07-.13m0-2.5a7,7,0,0,0-1.67.2l-54.24,13.27a7,7,0,0,0-5.14,8.46l7.74,31.63a7,7,0,0,0,8.46,5.14l54.24-13.27a7,7,0,0,0,5.14-8.46l-7.74-31.63a7,7,0,0,0-6.79-5.34Z"/></g><rect class="cls-1" x="114.17" y="123.52" width="67.34" height="8.36" transform="translate(-26.11 38.79) rotate(-13.75)"/><path class="cls-3" d="M178.63,117.15l1.39,5.69-63,15.41-1.39-5.69,63-15.41m1.83-3-67.84,16.6,2.58,10.55L183,124.68l-2.58-10.55Z"/><path class="cls-1" d="M162.87,147.74a5.61,5.61,0,1,1,1.33-.16A5.58,5.58,0,0,1,162.87,147.74Z"/><path class="cls-3" d="M162.88,137.81h0a4.35,4.35,0,1,1-1,.13,4.38,4.38,0,0,1,1-.13m0-2.5a6.84,6.84,0,1,0,6.64,5.22,6.86,6.86,0,0,0-6.64-5.22Z"/><path class="cls-1" d="M172.32,145.43a5.61,5.61,0,1,1,1.33-.16A5.58,5.58,0,0,1,172.32,145.43Z"/><path class="cls-3" d="M172.33,135.49h0a4.35,4.35,0,1,1-1,.13,4.37,4.37,0,0,1,1-.13m0-2.5a6.84,6.84,0,1,0,6.64,5.22,6.86,6.86,0,0,0-6.64-5.22Z"/></g></g></svg>