<svg xmlns="http://www.w3.org/2000/svg" viewBox="0 0 235 235"><defs><style>.cls-1,.cls-3,.cls-6{fill:#fbfbfb;}.cls-2{fill:#eee;}.cls-3,.cls-4,.cls-6{stroke:#7a9a2b;}.cls-3,.cls-4{stroke-linecap:round;}.cls-3,.cls-6,.cls-7{stroke-miterlimit:10;}.cls-3,.cls-4,.cls-6,.cls-7{stroke-width:2.5px;}.cls-4,.cls-7{fill:none;}.cls-4{stroke-linejoin:round;}.cls-5{fill:#7a9a2b;}.cls-7{stroke:#fbfbfb;}</style></defs><title>02-pupj</title><g id="Layer_2" data-name="Layer 2"><g id="Layer_1-2" data-name="Layer 1"><path class="cls-1" d="M117.5,231A113.5,113.5,0,1,1,231,117.5,113.63,113.63,0,0,1,117.5,231Z"/><path class="cls-2" d="M117.5,8a109.5,109.5,0,0,1,77.43,186.93A109.5,109.5,0,0,1,40.07,40.07,108.78,108.78,0,0,1,117.5,8m0-8A117.5,117.5,0,1,0,235,117.5,117.5,117.5,0,0,0,117.5,0Z"/><polyline class="cls-3" points="178.25 132.53 89.88 132.53 89.88 65.09"/><polyline class="cls-1" points="97.36 125.06 134.73 87.68 144.72 97.67 177.3 65.09"/><polyline class="cls-4" points="97.36 125.06 134.73 87.68 144.72 97.67 169.49 72.9"/><polygon class="cls-5" points="159.26 65.09 177.3 83.13 177.3 65.09 159.26 65.09"/><line class="cls-3" x1="150.84" y1="125.06" x2="178.25" y2="97.64"/><circle class="cls-6" cx="157.13" cy="103.93" r="6.29"/><circle class="cls-6" cx="171.96" cy="118.76" r="6.29"/><path class="cls-5" d="M98,171.16a38,38,0,1,1,38-38A38,38,0,0,1,98,171.16Z"/><path class="cls-1" d="M98,96.47A36.72,36.72,0,1,1,61.3,133.19,36.72,36.72,0,0,1,98,96.47M98,94a39.22,39.22,0,1,0,39.22,39.22A39.26,39.26,0,0,0,98,94Z"/><line class="cls-7" x1="98.02" y1="117.29" x2="98.02" y2="149.09"/><line class="cls-7" x1="113.92" y1="133.19" x2="82.12" y2="133.19"/></g></g></svg>