<svg xmlns="http://www.w3.org/2000/svg" viewBox="0 0 235 235"><defs><style>.cls-1{fill:#fbfbfb;}.cls-2{fill:#eee;}.cls-3{fill:#7a9a2b;}.cls-4,.cls-5{fill:none;stroke-width:2.5px;}.cls-4{stroke:#fbfbfb;stroke-miterlimit:10;}.cls-5{stroke:#7a9a2b;stroke-linecap:round;stroke-linejoin:round;}</style></defs><title>03-pupj</title><g id="Layer_2" data-name="Layer 2"><g id="Layer_1-2" data-name="Layer 1"><path class="cls-1" d="M117.5,231A113.5,113.5,0,1,1,231,117.5,113.63,113.63,0,0,1,117.5,231Z"/><path class="cls-2" d="M117.5,8a109.5,109.5,0,0,1,77.43,186.93A109.5,109.5,0,0,1,40.07,40.07,108.78,108.78,0,0,1,117.5,8m0-8A117.5,117.5,0,1,0,235,117.5,117.5,117.5,0,0,0,117.5,0Z"/><path class="cls-3" d="M121.58,127.26a38,38,0,1,1,38-38A38,38,0,0,1,121.58,127.26Z"/><path class="cls-1" d="M121.58,52.57A36.72,36.72,0,1,1,84.86,89.29a36.72,36.72,0,0,1,36.72-36.72m0-2.5A39.22,39.22,0,1,0,160.8,89.29a39.26,39.26,0,0,0-39.22-39.22Z"/><line class="cls-4" x1="137.48" y1="89.29" x2="105.68" y2="89.29"/><path class="cls-3" d="M136.13,170.65a4.69,4.69,0,1,1-4.69,4.69,4.7,4.7,0,0,1,4.69-4.69m0-2.39a7.08,7.08,0,1,0,7.08,7.08,7.08,7.08,0,0,0-7.08-7.08Z"/><path class="cls-3" d="M103.42,170.65a4.69,4.69,0,1,1-4.69,4.69,4.7,4.7,0,0,1,4.69-4.69m0-2.39a7.08,7.08,0,1,0,7.08,7.08,7.08,7.08,0,0,0-7.08-7.08Z"/><path class="cls-5" d="M70.87,118.82h9.72a6.25,6.25,0,0,1,6.11,4.94L95,162.53h46.57l8.54-23.6a4,4,0,0,0-3.75-5.34H93.72l15.12,15.12,10-10,9.51,9.51"/><polygon class="cls-3" points="136.15 138 118.11 156.05 136.15 156.04 136.15 138"/></g></g></svg>