<svg xmlns="http://www.w3.org/2000/svg" viewBox="0 0 235 235"><defs><style>.cls-1{fill:#fbfbfb;}.cls-2{fill:#eee;}.cls-3,.cls-5{fill:none;stroke-miterlimit:10;stroke-width:2.5px;}.cls-3{stroke:#7a9a2b;stroke-linecap:round;}.cls-4{fill:#7a9a2b;}.cls-5{stroke:#fbfbfb;}</style></defs><title>04-pupj</title><g id="Layer_2" data-name="Layer 2"><g id="Layer_1-2" data-name="Layer 1"><path class="cls-1" d="M117.5,231A113.5,113.5,0,1,1,231,117.5,113.63,113.63,0,0,1,117.5,231Z"/><path class="cls-2" d="M117.5,8a109.5,109.5,0,0,1,77.43,186.93A109.5,109.5,0,0,1,40.07,40.07,108.78,108.78,0,0,1,117.5,8m0-8A117.5,117.5,0,1,0,235,117.5,117.5,117.5,0,0,0,117.5,0Z"/><line class="cls-3" x1="157.3" y1="55.48" x2="157.3" y2="84.29"/><path class="cls-3" d="M169.7,78.82c0-3.5-1.71-13.39-12.4-13.39-7.28,0-10.87,5.57-10.87,10.15,0,3.68,2.7,8.27,10.87,12"/><path class="cls-3" d="M143.56,97c-.81,5.57,1.1,16.91,13.74,16.91,9.07,0,14.19-5.77,14.19-12,0-5.62-3.59-9.31-14.19-14.25"/><line class="cls-3" x1="157.3" y1="90.97" x2="157.3" y2="124.27"/><line class="cls-3" x1="144.4" y1="114.58" x2="144.4" y2="128.53"/><path class="cls-3" d="M151,127c0-1.87-.91-7.13-6.6-7.13a5.51,5.51,0,0,0-5.79,5.41c0,2,1.44,4.4,5.79,6.41"/><path class="cls-3" d="M137.08,136.64c-.43,3,.58,9,7.32,9,4.83,0,7.56-3.08,7.56-6.4,0-3-1.91-5-7.56-7.59"/><line class="cls-3" x1="144.4" y1="134.79" x2="144.4" y2="151.13"/><line class="cls-3" x1="129.85" y1="76.55" x2="129.85" y2="95"/><path class="cls-3" d="M137.91,92.25c0-2.28-1.11-8.7-8.06-8.7a6.73,6.73,0,0,0-7.07,6.6c0,2.39,1.75,5.37,7.07,7.83"/><path class="cls-3" d="M120.91,104.05c-.53,3.62.71,11,8.93,11,5.9,0,9.23-3.75,9.23-7.81,0-3.66-2.34-6-9.23-9.26"/><line class="cls-3" x1="129.85" y1="100.95" x2="129.85" y2="122.33"/><path class="cls-4" d="M100.22,177.74a38,38,0,1,1,38-38A38,38,0,0,1,100.22,177.74Z"/><path class="cls-1" d="M100.22,103.05A36.72,36.72,0,1,1,63.5,139.77a36.72,36.72,0,0,1,36.72-36.72m0-2.5a39.22,39.22,0,1,0,39.22,39.22,39.26,39.26,0,0,0-39.22-39.22Z"/><line class="cls-5" x1="100.22" y1="123.87" x2="100.22" y2="155.67"/><line class="cls-5" x1="116.12" y1="139.77" x2="84.32" y2="139.77"/></g></g></svg>