<svg xmlns="http://www.w3.org/2000/svg" viewBox="0 0 235 235"><defs><style>.cls-1{fill:#fbfbfb;}.cls-2{fill:#eee;}.cls-3{fill:#7a9a2b;}.cls-4,.cls-5{fill:none;stroke-miterlimit:10;stroke-width:2.5px;}.cls-4{stroke:#7a9a2b;stroke-linecap:round;}.cls-5{stroke:#fbfbfb;}</style></defs><title>05-pupj</title><g id="Layer_2" data-name="Layer 2"><g id="Layer_1-2" data-name="Layer 1"><path class="cls-1" d="M117.5,231A113.5,113.5,0,1,1,231,117.5,113.63,113.63,0,0,1,117.5,231Z"/><path class="cls-2" d="M117.5,8a109.5,109.5,0,0,1,77.43,186.93A109.5,109.5,0,0,1,40.07,40.07,108.78,108.78,0,0,1,117.5,8m0-8A117.5,117.5,0,1,0,235,117.5,117.5,117.5,0,0,0,117.5,0Z"/><path class="cls-1" d="M80,133.19c-4.15,0-9.16-5.4-9.65-12.64a10.35,10.35,0,0,1,2.45-8,10.36,10.36,0,0,1,14.39,0,10.35,10.35,0,0,1,2.45,8C89.12,127.79,84.11,133.19,80,133.19Z"/><path class="cls-3" d="M80,110.85a8.41,8.41,0,0,1,6.28,2.51,9.15,9.15,0,0,1,2.12,7.11c-.36,5.31-4.11,11.47-8.4,11.47s-8-6.17-8.4-11.49a9.14,9.14,0,0,1,2.12-7.1A8.41,8.41,0,0,1,80,110.85m0-2.5c-6.6,0-11.45,4.77-10.89,12.29s5.76,13.8,10.89,13.8,10.38-6.23,10.89-13.8S86.56,108.35,80,108.35Z"/><path class="cls-4" d="M75.61,126.14a6.16,6.16,0,0,0,8.71,0"/><line class="cls-4" x1="74.34" y1="118.94" x2="77.76" y2="118.94"/><line class="cls-4" x1="82.16" y1="118.94" x2="85.58" y2="118.94"/><path class="cls-1" d="M129.82,107.83c-9.93,0-19.47-12.28-20.42-26.29-.51-6.87,1.29-12.72,5.21-16.94a21.84,21.84,0,0,1,30.43,0c3.92,4.22,5.72,10.07,5.21,16.93C149.29,95.54,139.75,107.83,129.82,107.83Z"/><path class="cls-3" d="M129.82,59.68a19.16,19.16,0,0,1,14.3,5.77c3.67,4,5.36,9.48,4.87,16a32.76,32.76,0,0,1-6.84,18c-3.66,4.54-8.16,7.15-12.33,7.15s-8.67-2.6-12.33-7.15a32.77,32.77,0,0,1-6.85-18c-.48-6.5,1.2-12,4.88-16a19.16,19.16,0,0,1,14.3-5.77m0-2.5c-13.13,0-22.78,9.5-21.67,24.45s11.47,27.45,21.67,27.45,20.65-12.39,21.67-27.45-8.54-24.45-21.67-24.45Z"/><path class="cls-4" d="M121.16,92.56a12.25,12.25,0,0,0,17.32,0"/><line class="cls-4" x1="118.64" y1="78.24" x2="125.44" y2="78.24"/><line class="cls-4" x1="134.2" y1="78.24" x2="141" y2="78.24"/><path class="cls-3" d="M121.68,179.07a38,38,0,1,1,38-38A38,38,0,0,1,121.68,179.07Z"/><path class="cls-1" d="M121.68,104.39A36.72,36.72,0,1,1,85,141.11a36.72,36.72,0,0,1,36.72-36.72m0-2.5a39.22,39.22,0,1,0,39.22,39.22,39.26,39.26,0,0,0-39.22-39.22Z"/><line class="cls-5" x1="121.68" y1="125.2" x2="121.68" y2="157.01"/><line class="cls-5" x1="137.58" y1="141.11" x2="105.78" y2="141.11"/><path class="cls-1" d="M97.54,117.2c-8.08,0-15.86-10-16.63-21.49-.42-5.6,1-10.38,4.24-13.81a16.61,16.61,0,0,1,12.4-5,16.61,16.61,0,0,1,12.4,5c3.19,3.43,4.65,8.21,4.24,13.8C113.4,107.16,105.62,117.2,97.54,117.2Z"/><path class="cls-3" d="M97.54,78.13A15.37,15.37,0,0,1,109,82.75c2.95,3.17,4.3,7.62,3.91,12.88-.79,11.63-8.77,20.32-15.39,20.32-3.31,0-6.9-2.09-9.83-5.73a26.6,26.6,0,0,1-5.55-14.6c-.39-5.24,1-9.69,3.91-12.86a15.37,15.37,0,0,1,11.48-4.62m0-2.5c-10.83,0-18.8,7.84-17.88,20.17s9.46,22.65,17.88,22.65,17-10.22,17.88-22.65-7.05-20.17-17.88-20.17Z"/><path class="cls-4" d="M90.4,104.83a10.1,10.1,0,0,0,14.29,0"/><line class="cls-4" x1="88.31" y1="93.01" x2="93.93" y2="93.01"/><line class="cls-4" x1="101.15" y1="93.01" x2="106.77" y2="93.01"/></g></g></svg>