<svg xmlns="http://www.w3.org/2000/svg" viewBox="0 0 235 235"><defs><style>.cls-1{fill:#fbfbfb;}.cls-2{fill:#eee;}.cls-3{fill:#7a9a2b;}.cls-4,.cls-5,.cls-6{fill:none;}.cls-4{stroke:#7a9a2b;stroke-linecap:round;}.cls-4,.cls-6{stroke-miterlimit:10;stroke-width:2.5px;}.cls-6{stroke:#fbfbfb;}</style></defs><title>06-pupj</title><g id="Layer_2" data-name="Layer 2"><g id="Layer_1-2" data-name="Layer 1"><path class="cls-1" d="M117.5,231A113.5,113.5,0,1,1,231,117.5,113.63,113.63,0,0,1,117.5,231Z"/><path class="cls-2" d="M117.5,8a109.5,109.5,0,0,1,77.43,186.93A109.5,109.5,0,0,1,40.07,40.07,108.78,108.78,0,0,1,117.5,8m0-8A117.5,117.5,0,1,0,235,117.5,117.5,117.5,0,0,0,117.5,0Z"/><path class="cls-1" d="M103.93,116.61a.23.23,0,0,1-.23-.2l-5-44.55a.23.23,0,0,1,.2-.25l19.32-2.15a.24.24,0,0,1,.16,0l15.5,12.39a.23.23,0,0,1,.08.15l3.41,30.6a.23.23,0,0,1-.2.25Z"/><path class="cls-3" d="M118.39,70.7h0m-.42,0,14.84,11.87,3.25,29.16-31.23,3.48-4.74-42.52,17.88-2m.31-2.54h-.16L98.8,70.37A1.48,1.48,0,0,0,97.5,72l5,44.55a1.48,1.48,0,0,0,1.47,1.32h.17l33.26-3.7a1.48,1.48,0,0,0,1.31-1.63l-3.41-30.6a1.48,1.48,0,0,0-.55-1L119.2,68.53a1.48,1.48,0,0,0-.92-.32Z"/><polyline class="cls-4" points="119.27 73.02 120.37 82.96 130.1 81.88"/><line class="cls-5" x1="131.74" y1="107.67" x2="115.89" y2="109.44"/><line class="cls-5" x1="130.23" y1="101.6" x2="107.85" y2="104.1"/><line class="cls-5" x1="129.55" y1="95.44" x2="107.16" y2="97.93"/><line class="cls-5" x1="128.86" y1="89.28" x2="106.48" y2="91.77"/><path class="cls-3" d="M96.06,176.34a38,38,0,1,1,38-38A38,38,0,0,1,96.06,176.34Z"/><path class="cls-1" d="M96.06,101.66a36.72,36.72,0,1,1-36.72,36.72,36.72,36.72,0,0,1,36.72-36.72m0-2.5a39.22,39.22,0,1,0,39.22,39.22A39.26,39.26,0,0,0,96.06,99.16Z"/><line class="cls-6" x1="111.96" y1="138.37" x2="80.16" y2="138.37"/><polygon class="cls-1" points="133.9 95.64 135.43 69.91 147.85 58.88 164.08 59.84 161.87 97.29 133.9 95.64"/><path class="cls-3" d="M148.68,59.82h0m-.39.35,14.46.85L160.69,96l-25.46-1.5,1.41-24,11.64-10.35M136.68,70h0m11.16-12.35a1.24,1.24,0,0,0-.82.31L134.6,69a1.24,1.24,0,0,0-.41.85l-1.52,25.74a1.24,1.24,0,0,0,1.16,1.31l28,1.65h.07a1.24,1.24,0,0,0,1.24-1.17l2.21-37.47a1.24,1.24,0,0,0-1.16-1.31l-16.24-1Z"/><polyline class="cls-4" points="147.12 62.43 146.67 70.06 139.02 69.61"/><line class="cls-5" x1="138.67" y1="91.26" x2="151.45" y2="92.05"/><line class="cls-5" x1="138.97" y1="86.08" x2="157.94" y2="87.23"/><line class="cls-5" x1="139.28" y1="80.9" x2="158.24" y2="82.05"/><line class="cls-5" x1="139.58" y1="75.71" x2="158.55" y2="76.87"/><path class="cls-1" d="M164.5,152.94h-.14L119,145a.79.79,0,0,1-.64-.91l7.31-41.74a.79.79,0,0,1,.32-.51l22.36-15.69a.78.78,0,0,1,.45-.14h.14l26.34,4.61a.79.79,0,0,1,.64.91l-10.64,60.76a.78.78,0,0,1-.77.65Z"/><path class="cls-3" d="M149.06,87.16h0m-.16.11,25.7,4.5-10.48,59.85-44.45-7.79,7.2-41.09,22-15.47m-22,15.28h0m21.9-17.81a2,2,0,0,0-1.17.37L125.27,100.8a2,2,0,0,0-.84,1.31l-7.31,41.74a2,2,0,0,0,1.65,2.36l45.37,7.95a2,2,0,0,0,2.36-1.65l10.64-60.76a2,2,0,0,0-1.65-2.36l-26.34-4.61a2,2,0,0,0-.35,0Z"/><polyline class="cls-4" points="147.46 89.52 144.78 104.83 129.5 102.15"/><line class="cls-5" x1="127.08" y1="137.8" x2="149.03" y2="141.65"/><line class="cls-5" x1="128.55" y1="129.4" x2="160.53" y2="135"/><line class="cls-5" x1="130.03" y1="120.99" x2="162" y2="126.59"/><line class="cls-5" x1="131.5" y1="112.59" x2="163.47" y2="118.19"/></g></g></svg>