<svg xmlns="http://www.w3.org/2000/svg" xmlns:xlink="http://www.w3.org/1999/xlink" viewBox="0 0 785.7 521.39"><defs><style>.cls-1,.cls-10,.cls-12,.cls-13,.cls-14,.cls-19,.cls-20,.cls-23,.cls-24,.cls-29,.cls-30,.cls-5,.cls-8,.cls-9{fill:none;}.cls-2{fill:#7b992b;}.cls-15,.cls-22,.cls-25,.cls-3,.cls-31,.cls-4{fill:#fff;}.cls-10,.cls-15,.cls-17,.cls-18,.cls-19,.cls-20,.cls-22,.cls-23,.cls-24,.cls-25,.cls-30,.cls-31,.cls-4,.cls-5,.cls-7,.cls-9{stroke:#7a9a2b;}.cls-15,.cls-17,.cls-29,.cls-30,.cls-31,.cls-4,.cls-5,.cls-7{stroke-linejoin:round;}.cls-12,.cls-13,.cls-14,.cls-19,.cls-25,.cls-29,.cls-30,.cls-31,.cls-4,.cls-5,.cls-7,.cls-8,.cls-9{stroke-width:1.5px;}.cls-10,.cls-23,.cls-24,.cls-29,.cls-31,.cls-5,.cls-8,.cls-9{stroke-linecap:round;}.cls-17,.cls-18,.cls-21,.cls-6,.cls-7{fill:#7a9a2b;}.cls-10,.cls-12,.cls-13,.cls-14,.cls-18,.cls-19,.cls-20,.cls-21,.cls-22,.cls-23,.cls-24,.cls-25,.cls-8,.cls-9{stroke-miterlimit:10;}.cls-12,.cls-13,.cls-14,.cls-8{stroke:url(#New_Pattern_Swatch_3);}.cls-10{stroke-width:1.3px;}.cls-11{opacity:0.3;}.cls-13{stroke-dasharray:2.96 2.96;}.cls-14{stroke-dasharray:3.03 3.03;}.cls-16{fill:#8ec045;}.cls-18,.cls-20,.cls-21{stroke-width:0.21px;}.cls-21{stroke:#fff;}.cls-22{stroke-width:0.5px;}.cls-23{stroke-width:0.87px;}.cls-24{stroke-width:1.27px;}.cls-26{isolation:isolate;}.cls-27{clip-path:url(#clip-path);}.cls-28{clip-path:url(#clip-path-2);}.cls-29{stroke:url(#New_Pattern_Swatch_3-25);}</style><pattern id="New_Pattern_Swatch_3" data-name="New Pattern Swatch 3" width="43" height="43" patternTransform="translate(25 -46)" patternUnits="userSpaceOnUse" viewBox="0 0 43 43"><rect class="cls-1" width="43" height="43"/><rect class="cls-2" width="43" height="43"/></pattern><clipPath id="clip-path"><polygon class="cls-1" points="456.02 191.19 457.61 186.72 461.33 188.92 459.74 193.39 456.02 191.19"/></clipPath><clipPath id="clip-path-2"><polygon class="cls-1" points="470.02 197.19 471.62 192.71 475.33 194.91 473.74 199.39 470.02 197.19"/></clipPath><pattern id="New_Pattern_Swatch_3-25" data-name="New Pattern Swatch 3" width="43" height="43" patternTransform="translate(22 -46)" patternUnits="userSpaceOnUse" viewBox="0 0 43 43"><rect class="cls-1" width="43" height="43"/><rect class="cls-2" width="43" height="43"/></pattern></defs><title>404-illust</title><g id="Layer_2" data-name="Layer 2"><g id="Layer_1-2" data-name="Layer 1"><polygon class="cls-3" points="74.25 356.56 38.61 367.88 42.35 391.94 78.56 378.61 74.25 356.56"/><path class="cls-4" d="M486.2,194.06c-8.4-4.63-38-14.67-38-14.67s.54,14.16-6.9,19.6-19.55,59.29-19.55,59.29l-11.15,24.45L399,313.14l41.13,35.21C480.35,304.9,503.31,255.91,486.2,194.06Z"/><path class="cls-5" d="M494.84,191.76s-.93-12,16.54-18.66c4.43-1.7,8.29-8,7.93-13.65-.27-4.24-4.94-7.74-9.13-7.32-6.81.67-10.93,8.08-14.13,13.23-2.91,4.66-8.71,23.56-16.79,19.12"/><ellipse class="cls-6" cx="256.21" cy="393.47" rx="74.36" ry="9.75"/><path class="cls-4" d="M257.41,352.66l36.93,27.73s9.75,6.25,14.75-5.25-.5-10.78-4-7.77a14.19,14.19,0,0,0-4.22,7.77s-30.78-15.5-36.28-27S257.41,352.66,257.41,352.66Z"/><path class="cls-4" d="M202.78,361.56s-11.94,15.95,9.83,24.09c0,0-13,.93-8.6,6.87s18.88-6.38,13.29-9.57-18.1-4.27-10.84-21.64Z"/><ellipse class="cls-6" cx="691.21" cy="510.39" rx="74.36" ry="11"/><ellipse class="cls-6" cx="463.21" cy="394.06" rx="74.36" ry="7.33"/><path class="cls-4" d="M738.07,418.24s-5.23,79.15,4.11,83.81,4.42,8.67-8.45,8.67-11.16-82.23-8.32-93.08S738.07,418.24,738.07,418.24Z"/><path class="cls-4" d="M759.29,401.51a8.52,8.52,0,0,1-7.67,9.3L630,422.55a8.52,8.52,0,0,1-9.3-7.67L594.93,147.61a8.52,8.52,0,0,1,7.67-9.3l121.62-11.73a8.52,8.52,0,0,1,9.3,7.67Z"/><path class="cls-4" d="M655.33,311.73A8.66,8.66,0,0,1,647.5,321l-15.63,1.51a8.59,8.59,0,0,1-9.38-7.66l-.61-6.36a8.21,8.21,0,0,1,7.7-8.93l15.56-1.5c4.69-.45,9.14,2.57,9.59,7.26Z"/><path class="cls-4" d="M737,303.86a8.66,8.66,0,0,1-7.83,9.32l-15.63,1.51a8.6,8.6,0,0,1-9.38-7.66l-.61-6.36a8.21,8.21,0,0,1,7.7-8.93l15.56-1.5c4.69-.45,9.14,2.57,9.59,7.26Z"/><path class="cls-4" d="M696.15,307.92c.45,4.69-3.41,8.7-8.1,9.16l-15.56,1.5a8.29,8.29,0,0,1-9.2-7.49l-.61-6.36a8.24,8.24,0,0,1,7.6-9l15.56-1.5c4.69-.45,9.24,2.69,9.69,7.38Z"/><path class="cls-4" d="M657.92,338.61a8.66,8.66,0,0,1-7.83,9.32l-15.63,1.51a8.6,8.6,0,0,1-9.38-7.66l-.61-6.36a8.21,8.21,0,0,1,7.7-8.93l15.56-1.5c4.69-.45,9.14,2.57,9.59,7.26Z"/><path class="cls-4" d="M739.54,330.74a8.67,8.67,0,0,1-7.83,9.32l-15.63,1.51a8.59,8.59,0,0,1-9.38-7.66l-.61-6.36a8.21,8.21,0,0,1,7.7-8.93l15.56-1.5c4.69-.45,9.14,2.57,9.59,7.26Z"/><path class="cls-4" d="M698.74,334.8c.45,4.69-3.41,8.7-8.1,9.16l-15.55,1.5a8.29,8.29,0,0,1-9.2-7.49l-.61-6.36a8.24,8.24,0,0,1,7.6-9l15.56-1.5c4.69-.45,9.24,2.69,9.69,7.38Z"/><path class="cls-4" d="M660.51,365.48a8.67,8.67,0,0,1-7.83,9.32l-15.63,1.51a8.6,8.6,0,0,1-9.39-7.66l-.61-6.36a8.21,8.21,0,0,1,7.7-8.93l15.56-1.5c4.69-.45,9.14,2.57,9.59,7.26Z"/><path class="cls-4" d="M742.13,357.61a8.67,8.67,0,0,1-7.83,9.32l-15.63,1.51a8.6,8.6,0,0,1-9.38-7.66l-.61-6.36a8.21,8.21,0,0,1,7.7-8.93l15.56-1.5c4.69-.45,9.14,2.57,9.59,7.26Z"/><path class="cls-4" d="M701.34,361.67c.45,4.69-3.41,8.7-8.1,9.16l-15.56,1.5a8.29,8.29,0,0,1-9.2-7.49l-.61-6.36a8.24,8.24,0,0,1,7.6-9l15.56-1.5c4.69-.45,9.24,2.69,9.69,7.38Z"/><path class="cls-4" d="M663.1,392.36a8.66,8.66,0,0,1-7.83,9.32l-15.63,1.51a8.6,8.6,0,0,1-9.39-7.66l-.61-6.36a8.21,8.21,0,0,1,7.7-8.93l15.56-1.5c4.69-.45,9.14,2.57,9.59,7.26Z"/><path class="cls-7" d="M744.73,384.49a8.66,8.66,0,0,1-7.83,9.32l-15.63,1.51a8.6,8.6,0,0,1-9.38-7.66l-.61-6.36a8.21,8.21,0,0,1,7.7-8.93l15.56-1.5c4.69-.45,9.14,2.57,9.59,7.26Z"/><path class="cls-4" d="M703.93,388.55c.45,4.69-3.41,8.7-8.1,9.15l-15.55,1.5a8.29,8.29,0,0,1-9.2-7.49l-.61-6.36a8.24,8.24,0,0,1,7.6-9l15.56-1.5c4.69-.45,9.24,2.69,9.69,7.37Z"/><path class="cls-6" d="M724.84,183.43a2,2,0,0,1-1.8,2.18L612.55,196.26a2,2,0,0,1-2.18-1.8h0a2,2,0,0,1,1.8-2.18l110.49-10.65a2,2,0,0,1,2.18,1.8Z"/><path class="cls-6" d="M636.33,422l.11,1.17c.21,2.14,2.7,4.59,4.84,4.38l20.61-2c2.14-.21,3.63-3,3.42-5.18l-.11-1.17Z"/><path class="cls-6" d="M717,414.25l.11,1.17c.21,2.14,2.69,4.59,4.83,4.38l20.61-2c2.14-.21,3.63-3,3.42-5.17l-.11-1.17Z"/><path class="cls-4" d="M595.79,212.42s-38,45.78-35.49,124.78a4.17,4.17,0,0,0,2.94,4.4c3.29.94,1.32-4.4,1.32-4.4s.33,7.15,3.62,6.74,1-6.74,1-6.74,2.64,7.94,4.61,8.29,1-8.29,1-8.29S564.52,272.18,599,228"/><path class="cls-4" d="M262.51,221.1s35.22-25.63,48-83.4a3.12,3.12,0,0,0-1.32-3.73c-2.22-1.29-1.77,2.95-1.77,2.95s1.08-5.25-1.38-5.56-2,4.7-2,4.7-.44-6.25-1.81-6.86S300,135,300,135s-5.9,49.63-39.07,75.32"/><path class="cls-4" d="M428.46,231.1s-35.22-25.63-48-83.4a3.12,3.12,0,0,1,1.32-3.73c2.22-1.29,1.77,2.95,1.77,2.95s-1.08-5.25,1.38-5.56,2,4.7,2,4.7.44-6.25,1.81-6.86,2.25,5.83,2.25,5.83,6.28,51.58,39.45,77.27"/><path class="cls-4" d="M743.68,191.39s43.69,51.81,41.16,130.82a4.17,4.17,0,0,1-2.94,4.4c-3.29.94-1.32-4.4-1.32-4.4s-.33,7.15-3.62,6.74-1-6.74-1-6.74-2.64,7.94-4.61,8.29-1-8.29-1-8.29,10.25-65-24.19-109.24"/><path class="cls-4" d="M643.78,427.59c1.7,12.56,3,25.06,3.78,37.72a169.64,169.64,0,0,1-.14,27c-.43,4.57-.88,6.43-4.41,9.48-1.25,1.08-8.78,4.16-8.45,6.38.27,1.82,7.93,2.88,9.37,2.63,3.25-.56,5.47-2.84,7.33-5.4,3.41-4.72,4.43-11,5.54-16.54C660.94,468,660.09,447,658,426"/><line class="cls-8" x1="570.39" y1="171.44" x2="544.91" y2="162.75"/><line class="cls-8" x1="574.76" y1="145.42" x2="552.76" y2="129.89"/><line class="cls-8" x1="589.97" y1="122.33" x2="573.55" y2="100.99"/><line class="cls-8" x1="753.48" y1="153.44" x2="778.97" y2="144.75"/><line class="cls-8" x1="749.12" y1="127.42" x2="771.12" y2="111.89"/><line class="cls-8" x1="733.91" y1="104.33" x2="750.33" y2="82.99"/><path class="cls-4" d="M286.07,334.63a12,12,0,0,1-9.39,14.14L194.34,365.4A12,12,0,0,1,180.2,356L148.53,199.18A12,12,0,0,1,157.91,185l82.34-16.63a12,12,0,0,1,14.14,9.39Z"/><path class="cls-9" d="M183.34,377.4A12,12,0,0,1,169.2,368"/><path class="cls-10" d="M176,382.28a7.55,7.55,0,0,1-8.9-5.91"/><path class="cls-3" d="M195.31,342.65a4.38,4.38,0,1,1,.87-.09A4.39,4.39,0,0,1,195.31,342.65Z"/><path class="cls-6" d="M195.32,334.65h0a3.63,3.63,0,1,1-.72.07,3.63,3.63,0,0,1,.72-.07m0-1.5a5.13,5.13,0,1,0,5,4.11,5.15,5.15,0,0,0-5-4.11Z"/><circle class="cls-6" cx="196.9" cy="346.12" r="5.13" transform="translate(-64.61 45.82) rotate(-11.42)"/><rect class="cls-6" x="164.57" y="195.13" width="4" height="19" transform="translate(-37.18 36.98) rotate(-11.41)"/><rect class="cls-6" x="178.93" y="192.79" width="3" height="65" transform="translate(-41.02 40.17) rotate(-11.42)"/><g class="cls-11"><line class="cls-12" x1="212.61" y1="174.13" x2="212.91" y2="175.6"/><line class="cls-13" x1="213.51" y1="178.49" x2="249.09" y2="350.8"/><line class="cls-12" x1="249.38" y1="352.24" x2="249.69" y2="353.71"/></g><g class="cls-11"><line class="cls-12" x1="223.61" y1="174.13" x2="223.91" y2="175.6"/><line class="cls-14" x1="224.52" y1="178.56" x2="259.74" y2="349.12"/><line class="cls-12" x1="260.05" y1="350.6" x2="260.35" y2="352.07"/></g><path class="cls-6" d="M349.62,309.56a142,142,0,0,1,12.07-11.5c-17.59,5.82-26-8.72-36.52-19.9-10.35-11.65-21.11-22.93-33.89-30.35-12.6-7.89-27.22-11.93-40.94-19.83-13.53-8.36-19.66-19.58-26.73-55.62-2.62.41-6.31.41-11,1.77,5.35,31.11,18.21,49.49,31.17,58.25,13.15,8.29,26.63,14.2,38.08,24.1,11.64,9.43,21.24,22.85,31,35.42C322.74,304,332.77,315.24,349.62,309.56Z"/><path class="cls-4" d="M157.82,257.45s25.7,27.76,91.14,25.67a3.45,3.45,0,0,0,3.64-2.44c.78-2.73-3.64-1.09-3.64-1.09s5.92-.27,5.58-3-5.58-.82-5.58-.82,6.58-2.18,6.86-3.82-6.86-.82-6.86-.82-53.86,8.49-90.49-20C158.48,251.09,154.34,252.46,157.82,257.45Z"/><path class="cls-4" d="M486.67,198.5s-3.48,22.76-14.39,35.58a6.79,6.79,0,0,0-.65,1.27c-.93,1.83-1.84,3.66-2.69,5.53q-1.4,3.11-2.55,6.33c-.88,2.47-1.64,5-2.33,7.5-.78,2.86-1.45,5.74-2.06,8.64-.66,3.12-1.25,6.25-1.79,9.39s-1.06,6.37-1.55,9.56-.92,6.11-1.37,9.16q-.62,4.2-1.25,8.4-.57,3.81-1.18,7.62c-.91,5.76-3,9.89-6,14.83-1.39,2.3-2.72,4.64-3.92,7a52.73,52.73,0,0,0-2.9,6.91,34.77,34.77,0,0,0-1.47,6.32c-.13,1-.22,1.94-.27,2.92,0,.47,0,.95-.07,1.42a4.6,4.6,0,0,0,0,1.41c3.38,8.61,77,3.33,77,3.33,3.63-20.28.84-39,1.35-59.46.2-8-2.42-31.21-2.42-31.21s-1.87-58.29,0-61.61-29.82-5.34-29.82-5.34Z"/><path class="cls-6" d="M448.84,225.39a1,1,0,0,1-1-1c-.13-2.71-.85-4.48-2.13-5.18-2.06-1.12-5.13.6-5.16.62a1,1,0,0,1-1-1.69c.16-.09,4-2.31,7.05-.67,1.92,1,3,3.38,3.15,6.82a1,1,0,0,1-.92,1.08Z"/><path class="cls-6" d="M464.84,233.39a1,1,0,0,1-1-1c-.13-2.71-.85-4.48-2.13-5.18-2.06-1.12-5.13.6-5.16.62a1,1,0,0,1-1-1.69c.16-.09,4-2.31,7.05-.67,1.92,1,3,3.38,3.15,6.82a1,1,0,0,1-.92,1.08Z"/><path class="cls-9" d="M423.69,360.13s6,9.12,28.06,10.69"/><path class="cls-9" d="M423.69,369.13s4.37,6.68,20.55,7.83"/><path class="cls-9" d="M535.75,350.41s-3.66,10.27-24.76,17"/><path class="cls-9" d="M537.86,359.16s-2.68,7.52-18.13,12.44"/><path class="cls-9" d="M301.2,187.55s5.27,9.54-3.65,29.81"/><path class="cls-10" d="M309.16,191.75s3.86,7-2.68,21.83"/><path class="cls-6" d="M78,384.47c-.58-.18-6.66,1.15-10.7,3L48.09,396c-4,1.8-7.09,3.38-6.78,3.5a58.93,58.93,0,0,0,8.4-1.62L84,390.39c4.31-1,5-2.68,1.49-3.72Z"/><ellipse class="cls-6" cx="20.52" cy="389.19" rx="2.18" ry="1.58"/><ellipse class="cls-6" cx="41.05" cy="397.83" rx="4.09" ry="1.98"/><ellipse class="cls-6" cx="81.25" cy="382.68" rx="2.72" ry="1.3"/><path class="cls-4" d="M37.53,390.63,21.36,383.3l-1.42-.76-1.48.44s-.91,0-1.27,1.86a2.92,2.92,0,0,0,.24,1.52s-1.16.9-.55,1.48l17.81,9.3a14.29,14.29,0,0,0,10.06.52c5.56-1.77,37.63-15.43,37.63-15.43s3.85-1.08,3.56-3l-1-.87a3.24,3.24,0,0,0-3.07-3l-4.3,2.35L43.74,390.58Z"/><path class="cls-4" d="M29.07,351.11,28.13,345s-.6-4.31,2.26-6.57c0,0,7.29-6.44,10.37-13.66s4.3-1.83,4.3-1.83l3.55,4.89,2.06,2,.24,1.52s.62,2.67-3.52,3-13.7,2.28-14,9.26,1,7.58,1,7.58l-4.77,2.24Z"/><path class="cls-15" d="M95.61,323a11.1,11.1,0,0,0-3.5-8.1,2,2,0,0,0-1-2.85,12.39,12.39,0,0,0,.14-1.88A12.21,12.21,0,0,0,82,298.37a1.88,1.88,0,0,0,0-.26,1.91,1.91,0,0,0-2.45-1.83,11.78,11.78,0,0,0-13.36-8.83,1.91,1.91,0,0,0-2.79-.79,11.58,11.58,0,0,0-14.66-1.57,1.19,1.19,0,0,0-2.13.31,9,9,0,0,0-1-.06,8.84,8.84,0,0,0-8.81,8.11h-.1a1.43,1.43,0,0,0-.9,2.55,22.46,22.46,0,0,0-1.3,15.57,2.09,2.09,0,0,0,1.5,3.37A28.6,28.6,0,0,0,47.11,331.5a1.84,1.84,0,0,0,0,.38,1.88,1.88,0,0,0,1.88,1.88h.2a30.92,30.92,0,0,0,16.6,10.7,2.09,2.09,0,0,0,3.36.71,14.26,14.26,0,0,0,14.44-1.49,2.11,2.11,0,0,0,.73.13c.95,0,.68-.63.94-1.5,4.19-1.47,6.13-5.46,6.13-10.15v0c1-.36,1.89-.94,1.89-1.6s.33-1,0-1.35C94.39,327.41,95.61,325.3,95.61,323Z"/><path class="cls-16" d="M54.06,312.84l0,0-.08-.09Z"/><path class="cls-6" d="M71.57,320.71a3.25,3.25,0,0,0-1-2.37.58.58,0,0,0-.3-.83,3.57,3.57,0,0,0-2.65-4,.6.6,0,0,0,0-.08.56.56,0,0,0-.56-.56l-.16,0A3.44,3.44,0,0,0,63,310.3a.56.56,0,0,0-.82-.23,3.39,3.39,0,0,0-4.29-.46.35.35,0,0,0-.62.09c-.1,0-.2.15-.3.15-1.36,0-2.47.54-2.58,2.54h0c-.23,0-.42,0-.42.25s.06.16.16.24a6.34,6.34,0,0,0-.62,2.74,6.44,6.44,0,0,0,.24,1.75.58.58,0,0,0-.13.36.61.61,0,0,0,.57.6,8.37,8.37,0,0,0,3.24,4.84.5.5,0,0,0,0,.11.55.55,0,0,0,.55.55H58A9,9,0,0,0,62.83,327a.61.61,0,0,0,.56.37.61.61,0,0,0,.42-.17,4.17,4.17,0,0,0,4.22-.43.61.61,0,0,0,.21,0,.55.55,0,0,0,.54-.44,3.1,3.1,0,0,0,2.06-3h0c0-.11.29-.28.29-.47a.55.55,0,0,0-.13-.4A3.27,3.27,0,0,0,71.57,320.71Z"/><path class="cls-4" d="M78.64,354.74,82,376.36a4.2,4.2,0,0,1-4.38,1.84l-3.35-21.64Z"/><path class="cls-4" d="M33.94,367.47,37.74,392c2.59,1.67,6.15-.43,6.15-.43l-3.87-25Z"/><path class="cls-17" d="M16.05,362.46l.06.39L19.23,383s.16,1,1.6.27L17.69,363Z"/><path class="cls-4" d="M16.68,358.7s-2.12.33-2,1.37a1.35,1.35,0,0,1-.95,1.41l19.6,6.12s3,1.26,9.69-.84,36.09-11.64,36.09-11.64.42-.18.26-.82c-.33-1.32-2.23-1.44-2.23-1.44,0-1.16-1.55-1.16-1.55-1.16Z"/><polygon class="cls-4" points="48.47 348.95 75.64 351.7 36.06 363.82 15.87 358.54 48.47 348.95"/><ellipse class="cls-18" cx="42.21" cy="354.66" rx="20.88" ry="4.74" transform="translate(-53.78 10.64) rotate(-8.8)"/><path class="cls-19" d="M33.48,335.39a3.45,3.45,0,0,0,2.58,2.93"/><path class="cls-20" d="M48.78,285.09s6,7.86,9.09,24.52"/><path class="cls-20" d="M62.47,310s5.79-13.33,3.76-22.52"/><path class="cls-20" d="M67.59,313.49S79.43,303.78,82,298.11"/><path class="cls-20" d="M70.24,317.5s13.46-5.13,21.86-2.57"/><path class="cls-20" d="M70.91,322.5s15.61-.56,22.12,8.91"/><path class="cls-20" d="M68,326.74a31.54,31.54,0,0,1,15.51,16.93"/><path class="cls-20" d="M63.82,327.18s5.75,9.58,1.93,17.27"/><path class="cls-20" d="M57.37,323.3a60.55,60.55,0,0,1-10.26,8.2"/><path class="cls-20" d="M53.7,317.35a22.15,22.15,0,0,0-19.18-5.79"/><path class="cls-20" d="M54.34,312.05S47.93,295.37,35.82,296"/><ellipse class="cls-21" cx="42.21" cy="353.61" rx="20.88" ry="4.74" transform="translate(-53.62 10.63) rotate(-8.8)"/><ellipse class="cls-3" cx="41.9" cy="353.27" rx="8.52" ry="1.68" transform="translate(-53.57 10.57) rotate(-8.8)"/><ellipse class="cls-22" cx="53.73" cy="346.7" rx="3.52" ry="4.51"/><ellipse class="cls-6" cx="55.07" cy="346.78" rx="2.2" ry="4.05"/><path class="cls-6" d="M56.79,346.95s3.1-1.91,1.13-2.12a9.6,9.6,0,0,0-2.85,0Z"/><path class="cls-10" d="M88.78,384a6.34,6.34,0,0,0,2.56-8.6"/><path class="cls-23" d="M94.16,383.64a4.27,4.27,0,0,0,1.14-5.94"/><path class="cls-10" d="M11.18,352.3a9.21,9.21,0,0,0-3.72,12.49"/><path class="cls-24" d="M3.36,352.75a6.21,6.21,0,0,0-1.65,8.62"/><path class="cls-6" d="M599.71,198.51l-1.67.16c-2.14.21-4.13,2.15-3.93,4.29l3.33,34.54a4.74,4.74,0,0,0,4.73,4l1.67-.16Z"/><path class="cls-25" d="M733.7,269.16a8.53,8.53,0,0,1-7.67,9.3l-97.57,9.42a8.52,8.52,0,0,1-9.3-7.67l-6.55-67.88a8.53,8.53,0,0,1,7.67-9.31l97.58-9.42a8.53,8.53,0,0,1,9.3,7.67Z"/><circle class="cls-6" cx="635.93" cy="220.83" r="3.99"/><circle class="cls-6" cx="705.93" cy="213.83" r="3.99"/><circle class="cls-6" cx="674.88" cy="258.93" r="9.44"/><path class="cls-4" d="M485.57,263.28c-.11,3.17-5.1,6-7.13,7a152.43,152.43,0,0,1-48.21,13.49s-7.15.85-6.49,2.38,6.34,2,7.38,2.12c-.92-.08-5.33-.35-5.06,2.1.15,1.4,3.71,1.3,5.23,1.35-.62.26-2.93,1.25-2.41,2.18,1.39,2.48,3.2,1.54,3.2,1.54a180.79,180.79,0,0,0,27.36-7.75c8.8-3.29,35.42-11.25,33.75-24.58C492.4,256.73,485.7,259.3,485.57,263.28Z"/><g class="cls-26"><g class="cls-27"><path class="cls-6" d="M459.47,187.82a1.81,1.81,0,0,0-2.66,1.13,2.87,2.87,0,0,0,1.06,3.34,1.81,1.81,0,0,0,2.66-1.14,2.87,2.87,0,0,0-1.07-3.33"/></g></g><g class="cls-26"><g class="cls-28"><path class="cls-6" d="M473.48,193.81a1.81,1.81,0,0,0-2.66,1.14,2.87,2.87,0,0,0,1.06,3.34,1.81,1.81,0,0,0,2.65-1.15,2.87,2.87,0,0,0-1.06-3.34"/></g></g><path class="cls-7" d="M448.21,179.39s11.84,2.52,16.07-.94c0,0,33.51,7.19,51.43,20.06,0,0-3.33-3.05-28.48-3.86C487.23,194.65,460,182.28,448.21,179.39Z"/><path class="cls-29" d="M458.68,190.05s13.17-6.33,14.5-25,20.56-29.06,17.13-6.85-26.46,29.28-17.46,38.07"/><path class="cls-6" d="M437.33,242.29s4.33,10.1,11.76,9.63c0,0,3.28-1,1.91,1.84s-10.93,9.7-13.82-10C437.19,243.8,436.79,241.82,437.33,242.29Z"/><path class="cls-6" d="M738.07,185.17l1.67-.16c2.14-.21,4.47,1.32,4.68,3.46L747.74,223a4.75,4.75,0,0,1-3.88,4.8l-1.67.16Z"/><path class="cls-4" d="M606.84,77.25,601,72.52,596.09,81l-6.83-3-7.7,11.37-8.06-4.7-6,10.67c-34.67-62.67,0-63.27,0-63.27,61.33,8.06,47.05,161.94,47.05,161.94l108.66-10.53C730,90.37,708.18,14.06,684,2.72s-119.3,29.82-119.3,29.82"/><path class="cls-6" d="M566.48,32.21s-18.07,2.9-13.84,25.4a106.82,106.82,0,0,0,14.87,37.78l6-10.67,8.06,4.7,7.7-11.37,6.83,3L601,72.52l5.27,4.25-.4-2.79S598.42,37.41,566.48,32.21Z"/><path class="cls-30" d="M592.41,40.11c-5-5.78,3.52-14.08,8.3-7.54,1.76,2.26,0,3.52.75,5.78,2,7,14.58-.5,14.83-6.28,0-2.26-3-8.29-6.28-6.28-3.27,2.26,3,8.29,5,9,5.53,2.26,15.59-1.76,15.59-8.3.25-5-7-7.79-7.29-2-.25,5,8,6.54,11.31,5.78,9.55-2,8.8-12.07,13.32-18.1,2.76-3.77,7.79-4.27,9.8.75,2.26,5.78-7.54,10.81,0,15.59,4.52,3,14.08-1.51,14.33-7.29,0-2.77-5.28-10.56-8.55-8-5,4,5.78,10.06,8.3,10.81,5.78,1.51,12.82-2.76,18.1,0,4,2.26,7.29,7.54,5.28,11.81-3.27,7-11.56,5.53-17.34,4.53-17.09-3-31.92-2.26-47.51,5.78C625.84,48.4,605,64,618.81,68.76c6.54,2.26,15.33-6.54,20.36-9.55,2.26-1.26,6-4.27,8.8-2.51,3,2.26,1.26,5.78-1,7.54-6.28,5.28-16.59,3-23.13,9.55-9.8,9.3,5,9,11.56,5.78,15.08-8.29,25.89-27.4,44-29.66,3.27-.25,11.56.25,10.56,5.53s-9.55,2.26-12.57,5.28c-4,4.27,1.76,2.51,4,3.52,5.53,3,2.51,7-1.51,9-3.52,1.76-28.15,1-24.13,10.81,1.26,2.76,5.53,2.51,8,2,6-1,11.06-4.52,17.6-5,5.78-.25,26.65.25,17.35,10.81-4.78,5.53-15.33,8.3-22.12,8-13.07,0-24.38-8.55-37.46-9.55-9.55-.5-20.61,5.78-13.83,16.59,5,8,14.33,11.31,23.38,10.81s17.85-4.27,26.65-6c8-1.51,22.12-4.27,28.66,2.51,10.81,11.06-16.34,14.83-21.87,15.08-15.58,1-31.17-1-46.76-.5-6.28.25-9.8,1-10.56,7.54-.75,4.27-.75,11.06,3.52,13.32,5.28,2.76,6.79-1.76,9.3-5,8-10.81,7.93,5.89,21.37,4.27"/><line class="cls-30" x1="619.31" y1="164.53" x2="633.04" y2="163.31"/><line class="cls-31" x1="91.68" y1="235.12" x2="80.87" y2="210.72"/><ellipse class="cls-31" cx="86.24" cy="238.77" rx="6.73" ry="3.84" transform="translate(-141.46 126.51) rotate(-43.9)"/><line class="cls-31" x1="108.1" y1="219.01" x2="97.29" y2="194.61"/><ellipse class="cls-31" cx="102.66" cy="222.67" rx="6.73" ry="3.85" transform="translate(-125.7 133.37) rotate(-43.89)"/><line class="cls-31" x1="80.87" y1="210.72" x2="97.29" y2="194.61"/><line class="cls-31" x1="84.13" y1="218.07" x2="100.55" y2="201.96"/><line class="cls-31" x1="211.41" y1="116.41" x2="218.57" y2="129.46"/><ellipse class="cls-31" cx="214.27" cy="114.12" rx="3.75" ry="2.14" transform="translate(-12.83 199.93) rotate(-48.74)"/><line class="cls-31" x1="203.04" y1="126.13" x2="210.2" y2="139.19"/><ellipse class="cls-31" cx="205.9" cy="123.85" rx="3.75" ry="2.14" transform="translate(-23.01 196.87) rotate(-48.72)"/><line class="cls-31" x1="218.57" y1="129.46" x2="210.2" y2="139.19"/><line class="cls-31" x1="216.41" y1="125.53" x2="208.04" y2="135.25"/><path class="cls-31" d="M210.2,139.19"/><line class="cls-31" x1="194.68" y1="135.86" x2="201.83" y2="148.91"/><ellipse class="cls-31" cx="197.53" cy="133.57" rx="3.75" ry="2.14" transform="translate(-33.16 193.89) rotate(-48.72)"/><line class="cls-31" x1="210.2" y1="139.19" x2="201.83" y2="148.91"/><line class="cls-31" x1="208.04" y1="135.25" x2="199.67" y2="144.98"/><line class="cls-31" x1="102.42" y1="134.7" x2="114.07" y2="148.47"/><ellipse class="cls-31" cx="105.26" cy="131.3" rx="4.54" ry="2.6" transform="translate(-60.98 157.48) rotate(-60.23)"/><line class="cls-31" x1="102.98" y1="157.88" x2="106.48" y2="162.02"/><line class="cls-31" x1="114.07" y1="148.47" x2="106.48" y2="162.02"/><line class="cls-31" x1="110.56" y1="144.32" x2="102.98" y2="157.88"/><line class="cls-31" x1="148.47" y1="110.57" x2="146.71" y2="128.51"/><ellipse class="cls-31" cx="152.88" cy="110.24" rx="4.54" ry="2.6" transform="translate(-22.62 41.51) rotate(-14.41)"/><polyline class="cls-30" points="690.63 180.23 705 178.96 714.2 178.15"/><polyline class="cls-30" points="652.55 183.59 670.43 182.01 678.49 181.3"/><polyline class="cls-30" points="630.43 185.54 637.05 184.96 648.32 183.97"/><line class="cls-30" x1="619.31" y1="186.53" x2="628.51" y2="185.71"/><line class="cls-30" x1="704.87" y1="170.97" x2="714.2" y2="170.15"/><polyline class="cls-30" points="647.27 176.06 665.41 174.46 689.35 172.34"/><polyline class="cls-30" points="619.31 178.53 625.75 177.96 635.07 177.14 642.47 176.48"/><polyline class="cls-30" points="685.32 158.7 697.51 157.62 706.3 156.85 714.2 156.15"/><polyline class="cls-30" points="658.13 161.1 662.05 160.75 673.28 159.76"/><line class="cls-30" x1="654.9" y1="161.39" x2="658.13" y2="161.1"/><polyline class="cls-30" points="638.48 162.83 651.15 161.72 654.9 161.38"/><line class="cls-30" x1="708.5" y1="163.65" x2="714.2" y2="163.15"/><line class="cls-30" x1="660.5" y1="148.65" x2="662.96" y2="148.44"/><line class="cls-30" x1="664.5" y1="148.65" x2="666.96" y2="148.44"/><line class="cls-30" x1="668.5" y1="147.65" x2="670.96" y2="147.44"/><line class="cls-30" x1="701.76" y1="164.25" x2="708.5" y2="163.65"/><polyline class="cls-30" points="673.58 166.74 687.94 165.47 697.76 164.6"/><polyline class="cls-30" points="632.91 170.33 639.9 169.71 646.88 169.09 660.59 167.88"/><polyline class="cls-30" points="619.31 171.53 626.8 170.86 631.34 170.46"/><polygon class="cls-6" points="110.56 144.32 114.07 148.47 106.48 162.03 102.98 157.88 110.56 144.32"/><polygon class="cls-6" points="84.13 218.07 100.55 201.96 97.29 194.61 80.87 210.72 84.13 218.07"/><polygon class="cls-6" points="199.67 144.98 216.41 125.53 218.57 129.46 201.83 148.91 199.67 144.98"/><polygon class="cls-6" points="17.69 362.99 33.94 367.47 37.53 390.63 19.93 382.54 17.69 362.99"/></g></g></svg>