<svg xmlns="http://www.w3.org/2000/svg" viewBox="0 0 260 260"><defs><style>.cls-1{fill:#f3f6ec;}.cls-2{fill:#fff;}</style></defs><title>placeholder-area-neg-03</title><g id="Layer_2" data-name="Layer 2"><g id="Layer_1-2" data-name="Layer 1"><rect class="cls-1" width="260" height="260" transform="translate(260 260) rotate(-180)"/><path class="cls-2" d="M130,91.8A38.2,38.2,0,1,0,168.2,130,38.2,38.2,0,0,0,130,91.8Zm-.42,12.68a8.84,8.84,0,0,1,8.85,8.83h0a8.84,8.84,0,1,1-8.85-8.84Zm8.85,40.58h0a8.84,8.84,0,1,1-8.85-8.84,8.84,8.84,0,0,1,8.85,8.84Zm20.24-10.52H100.51a.17.17,0,0,1-.17-.17v-9.65a.17.17,0,0,1,.16-.18h58.18a.17.17,0,0,1,.17.17v9.66A.17.17,0,0,1,158.67,134.54Z"/></g></g></svg>