<svg xmlns="http://www.w3.org/2000/svg" viewBox="0 0 356 356"><defs><style>.cls-1{fill:#edf1f4;}.cls-2{fill:#fff;}</style></defs><title>placeholder-area-neg-02b</title><g id="Layer_2" data-name="Layer 2"><g id="Layer_1-2" data-name="Layer 1"><rect class="cls-1" width="356" height="356" transform="translate(356 356) rotate(-180)"/><path class="cls-2" d="M178,125.7A52.3,52.3,0,1,0,230.3,178,52.3,52.3,0,0,0,178,125.7Zm-.57,17.36a12.1,12.1,0,0,1,12.11,12.09h0a12.1,12.1,0,1,1-12.11-12.1Zm12.11,55.57h0a12.1,12.1,0,1,1-12.11-12.1,12.1,12.1,0,0,1,12.11,12.1Zm27.71-14.41H137.62a.24.24,0,0,1-.24-.24V170.77a.24.24,0,0,1,.22-.25h79.66a.24.24,0,0,1,.24.24V184A.24.24,0,0,1,217.26,184.22Z"/></g></g></svg>