<svg xmlns="http://www.w3.org/2000/svg" viewBox="0 0 356 356"><defs><style>.cls-1{fill:#f3f6ec;}.cls-2{fill:#fff;}</style></defs><title>placeholder-area-neg-01</title><g id="Layer_2" data-name="Layer 2"><g id="Layer_1-2" data-name="Layer 1"><rect class="cls-1" width="356" height="356" transform="translate(356 356) rotate(-180)"/><path class="cls-2" d="M55.55,229.7l.54,2.79a9.13,9.13,0,0,1-4,.71,8.22,8.22,0,0,1-6.19-2.28,7.75,7.75,0,0,1-2.08-5.65,8,8,0,0,1,2.41-6.11,8.66,8.66,0,0,1,6.21-2.25,8.57,8.57,0,0,1,3.89.69l-.73,2.82a7.53,7.53,0,0,0-3-.58,4.84,4.84,0,0,0-3.7,1.41,5.35,5.35,0,0,0-1.33,3.81,5.19,5.19,0,0,0,1.33,3.77,5,5,0,0,0,3.72,1.37A7.61,7.61,0,0,0,55.55,229.7Z"/><path class="cls-2" d="M63.6,233.2h0a5.86,5.86,0,0,1-4.21-1.58,5.71,5.71,0,0,1-1.72-4.33,5.92,5.92,0,0,1,1.67-4.41,6.06,6.06,0,0,1,4.45-1.65,5.55,5.55,0,0,1,5.85,5.85,5.87,5.87,0,0,1-1.88,4.64A6,6,0,0,1,63.6,233.2Zm0-2.56h0a1.93,1.93,0,0,0,1.79-1.19,5.58,5.58,0,0,0,0-4.5,1.94,1.94,0,0,0-1.81-1.19,2,2,0,0,0-1.8,1.1,4.66,4.66,0,0,0-.55,2.34,4.87,4.87,0,0,0,.48,2.26A2,2,0,0,0,63.62,230.64Z"/><path class="cls-2" d="M89.71,232.93H86.25V226.7q0-2.62-1.68-2.62a1.64,1.64,0,0,0-1.65,1.25,2.8,2.8,0,0,0-.13.9v6.7H79.33v-6.43q0-2.42-1.65-2.42A1.71,1.71,0,0,0,76,225.36a2.53,2.53,0,0,0-.14.9v6.67H72.41V225a1.09,1.09,0,0,0-.64-1.13,3.92,3.92,0,0,0-1.41-.17v-2.22h5l.15,1.54h.08A3.9,3.9,0,0,1,79,221.21a3.09,3.09,0,0,1,3.14,2h0a5,5,0,0,1,1.49-1.39,4.12,4.12,0,0,1,2.17-.57,3.41,3.41,0,0,1,2.74,1.2,5.7,5.7,0,0,1,1.11,3.77Z"/><path class="cls-2" d="M104.18,225.65a9.06,9.06,0,0,1,.17,1.74,6.25,6.25,0,0,1-1.37,4.16,4.87,4.87,0,0,1-3.92,1.74,4.5,4.5,0,0,1-2.23-.48h0l0,4.78H93.16V226q0-.93,0-1.1a1.09,1.09,0,0,0-.66-1.09,4.09,4.09,0,0,0-1.38-.16v-2.22h5.05l.16,1.6h0a3.43,3.43,0,0,1,3.26-1.77,4.05,4.05,0,0,1,3,1.29A5.83,5.83,0,0,1,104.18,225.65Zm-3.48.26q-.38-1.86-1.85-1.86a1.78,1.78,0,0,0-1.57,1,4.92,4.92,0,0,0-.56,2.68l.07,2.48a2.6,2.6,0,0,0,1.64.54,2,2,0,0,0,1.75-1.12,4.82,4.82,0,0,0,.63-2.54A6.48,6.48,0,0,0,100.71,225.91Z"/><path class="cls-2" d="M114.22,224.63a4.83,4.83,0,0,0-1-.1,2.18,2.18,0,0,0-2.44,1.82,3.75,3.75,0,0,0-.07.79v5.8h-3.57V225a1.12,1.12,0,0,0-.64-1.15,3.92,3.92,0,0,0-1.41-.17v-2.22h5l.14,2.12h.09a3.61,3.61,0,0,1,1.35-1.82,3,3,0,0,1,1.74-.56,3.61,3.61,0,0,1,.77.07Z"/><path class="cls-2" d="M126.21,228.35h-7.37a2,2,0,0,0,1.14,1.7,4.35,4.35,0,0,0,2.09.47,10.21,10.21,0,0,0,3.16-.47l.47,2.41a10.84,10.84,0,0,1-4.14.73,6.26,6.26,0,0,1-4.44-1.51,5.62,5.62,0,0,1-1.68-4.34,6.39,6.39,0,0,1,1.41-4.15,5.32,5.32,0,0,1,4.38-2,4.63,4.63,0,0,1,3.93,1.78,6.31,6.31,0,0,1,1.17,3.93A7.12,7.12,0,0,1,126.21,228.35Zm-7.4-2.44H123a2.73,2.73,0,0,0-.4-1.48,1.79,1.79,0,0,0-1.62-.85,1.92,1.92,0,0,0-1.54.71A2.88,2.88,0,0,0,118.81,225.91Z"/><path class="cls-2" d="M136.39,227.08v-9.92h3.56v10q0,6.07-5.63,6.07a7.87,7.87,0,0,1-2.6-.38l.4-2.88a6.18,6.18,0,0,0,1.83.27,2.18,2.18,0,0,0,2-.89A4.32,4.32,0,0,0,136.39,227.08Z"/><path class="cls-2" d="M152.34,226.16v4a18,18,0,0,0,.16,2.79h-3.2l-.22-1.14H149a4,4,0,0,1-3.27,1.41,3.62,3.62,0,0,1-2.72-1.09,3.36,3.36,0,0,1-1-2.44,3.71,3.71,0,0,1,2.29-3.56,10.24,10.24,0,0,1,4.44-.82v-.16q0-1.47-2.08-1.47a6,6,0,0,0-3.17.87l-.65-2.3a9,9,0,0,1,4.45-1Q152.34,221.23,152.34,226.16Zm-3.46,2.6v-1.23q-3.33,0-3.33,1.81,0,1.35,1.41,1.35a2,2,0,0,0,1.15-.35,1.67,1.67,0,0,0,.7-.95A2.21,2.21,0,0,0,148.88,228.76Zm-.94-12.22h3.28l-2.86,3.57h-2.44Z"/><path class="cls-2" d="M157,233.2h0a1.93,1.93,0,0,1-1.49-.62,2.39,2.39,0,0,1,0-3.11,2.22,2.22,0,0,1,3,0,2.19,2.19,0,0,1,.57,1.57,2.14,2.14,0,0,1-.58,1.56A2,2,0,0,1,157,233.2Z"/><path class="cls-2" d="M166.08,232.93V217.36a29.91,29.91,0,0,1,4.82-.33,8.42,8.42,0,0,1,4.47,1,4.25,4.25,0,0,1,2,3.89A4.89,4.89,0,0,1,176,225.7a7.2,7.2,0,0,1-5.12,1.67,8.36,8.36,0,0,1-1.22-.08v5.65Zm3.53-13.09v4.69a6,6,0,0,0,1.2.09A3.54,3.54,0,0,0,173,224a2.31,2.31,0,0,0,.91-2q0-2.32-2.79-2.32A7.25,7.25,0,0,0,169.61,219.84Z"/><path class="cls-2" d="M191.14,232.93h-5.08l-.21-1.14h-.08a4,4,0,0,1-3.27,1.41,3.67,3.67,0,0,1-2.73-1.06,3.39,3.39,0,0,1-1-2.45,3.66,3.66,0,0,1,1.84-3.32,9.3,9.3,0,0,1,4.88-1.07v-.15q0-1.49-2.09-1.48a6.1,6.1,0,0,0-3.17.85l-.65-2.28a8.83,8.83,0,0,1,4.45-1q5,0,5,5v3.2a1.14,1.14,0,0,0,.64,1.18,4,4,0,0,0,1.42.17Zm-5.51-4.16v-1.26q-3.32,0-3.32,1.81a1.23,1.23,0,0,0,1.41,1.37,1.9,1.9,0,0,0,1.15-.38,1.8,1.8,0,0,0,.69-.94A2.09,2.09,0,0,0,185.63,228.77Z"/><path class="cls-2" d="M193.26,237.07l.27-2.55a6.89,6.89,0,0,0,3.14.62q2.74,0,2.81-3l0-1h0a3.22,3.22,0,0,1-3,1.72,4.08,4.08,0,0,1-2.95-1.23,5.42,5.42,0,0,1-1.5-2.87,7.89,7.89,0,0,1-.16-1.52,5.86,5.86,0,0,1,1.57-4.21,6.33,6.33,0,0,1,4.8-1.81,12.16,12.16,0,0,1,4.4.8l.07,9.46q0,3.29-1.14,4.76t-4.47,1.61A8.25,8.25,0,0,1,193.26,237.07Zm6.13-10V224a3.39,3.39,0,0,0-1.23-.19,2.38,2.38,0,0,0-2.08,1.12,4.1,4.1,0,0,0-.66,2.37,4,4,0,0,0,.45,1.94,1.71,1.71,0,0,0,1.57,1A1.67,1.67,0,0,0,199,229.1,4.68,4.68,0,0,0,199.39,227.08Z"/><path class="cls-2" d="M219,232.93H214l-.16-1.62h-.07a4,4,0,0,1-3.58,1.89,3.66,3.66,0,0,1-2.88-1.17,5.6,5.6,0,0,1-1.14-3.82V225a1.13,1.13,0,0,0-.64-1.17,3.86,3.86,0,0,0-1.41-.17v-2.22h5.61v6.15q0,2.69,1.79,2.69a1.79,1.79,0,0,0,1.77-1.26,1.9,1.9,0,0,0,.14-.75v-6.83H217v7.92a1.11,1.11,0,0,0,.65,1.14,3.86,3.86,0,0,0,1.41.17Z"/><path class="cls-2" d="M230.55,228.35h-7.37a2,2,0,0,0,1.14,1.7,4.35,4.35,0,0,0,2.09.47,10.21,10.21,0,0,0,3.16-.47l.47,2.41a10.84,10.84,0,0,1-4.14.73,6.26,6.26,0,0,1-4.44-1.51,5.62,5.62,0,0,1-1.68-4.34,6.39,6.39,0,0,1,1.41-4.15,5.32,5.32,0,0,1,4.38-2A4.63,4.63,0,0,1,229.5,223a6.31,6.31,0,0,1,1.17,3.93A7.12,7.12,0,0,1,230.55,228.35Zm-7.4-2.44h4.22a2.73,2.73,0,0,0-.4-1.48,1.79,1.79,0,0,0-1.62-.85,1.92,1.92,0,0,0-1.54.71A2.88,2.88,0,0,0,223.15,225.91Z"/><path class="cls-2" d="M249.92,232.93H244.8l-.15-1.68h0a3.23,3.23,0,0,1-3.19,1.94,3.88,3.88,0,0,1-2.72-1.12,5.8,5.8,0,0,1-1.67-3.2,8.32,8.32,0,0,1-.16-1.61,6.12,6.12,0,0,1,1.52-4.26,5.55,5.55,0,0,1,4.33-1.78,4.51,4.51,0,0,1,1.59.29v-1.62a1.15,1.15,0,0,0-.64-1.18,4.19,4.19,0,0,0-1.41-.16v-2.23h5.61v13.22a1.08,1.08,0,0,0,.67,1,4.27,4.27,0,0,0,1.37.15Zm-5.61-5.67v-3.08a2.38,2.38,0,0,0-3.29.65,4.1,4.1,0,0,0-.7,2.44,5.3,5.3,0,0,0,.1,1q.42,2.16,2,2.16a1.54,1.54,0,0,0,1.31-.79A4.38,4.38,0,0,0,244.3,227.26Z"/><path class="cls-2" d="M261.45,228.35h-7.37a2,2,0,0,0,1.14,1.7,4.35,4.35,0,0,0,2.09.47,10.21,10.21,0,0,0,3.16-.47l.47,2.41a10.85,10.85,0,0,1-4.14.73,6.26,6.26,0,0,1-4.44-1.51,5.63,5.63,0,0,1-1.68-4.34,6.39,6.39,0,0,1,1.41-4.15,5.32,5.32,0,0,1,4.38-2A4.63,4.63,0,0,1,260.4,223a6.31,6.31,0,0,1,1.17,3.93A7.09,7.09,0,0,1,261.45,228.35Zm-7.4-2.44h4.22a2.73,2.73,0,0,0-.4-1.48,1.79,1.79,0,0,0-1.62-.85,1.92,1.92,0,0,0-1.54.71A2.88,2.88,0,0,0,254.06,225.91Z"/><path class="cls-2" d="M275.35,225.65a9.09,9.09,0,0,1,.17,1.74,6.25,6.25,0,0,1-1.37,4.16,4.87,4.87,0,0,1-3.92,1.74,4.5,4.5,0,0,1-2.23-.48h0l0,4.78h-3.65V226q0-.93,0-1.1a1.09,1.09,0,0,0-.66-1.09,4.09,4.09,0,0,0-1.38-.16v-2.22h5.05l.16,1.6h0a3.43,3.43,0,0,1,3.26-1.77,4.05,4.05,0,0,1,3,1.29A5.83,5.83,0,0,1,275.35,225.65Zm-3.48.26Q271.49,224,270,224a1.78,1.78,0,0,0-1.57,1,4.92,4.92,0,0,0-.56,2.68l.07,2.48a2.6,2.6,0,0,0,1.64.54,2,2,0,0,0,1.75-1.12,4.82,4.82,0,0,0,.63-2.54A6.52,6.52,0,0,0,271.87,225.91Z"/><path class="cls-2" d="M283,233.2h0a5.86,5.86,0,0,1-4.21-1.58,5.71,5.71,0,0,1-1.71-4.33,5.92,5.92,0,0,1,1.67-4.41,6.06,6.06,0,0,1,4.45-1.65,5.55,5.55,0,0,1,5.85,5.85,5.87,5.87,0,0,1-1.88,4.64A6,6,0,0,1,283,233.2Zm0-2.56h0a1.93,1.93,0,0,0,1.79-1.19,5.58,5.58,0,0,0,0-4.5,1.94,1.94,0,0,0-1.81-1.19,2,2,0,0,0-1.8,1.1,4.66,4.66,0,0,0-.55,2.34,4.87,4.87,0,0,0,.48,2.26A2,2,0,0,0,283,230.64Z"/><path class="cls-2" d="M295.39,232.93h-3.57V225a1.13,1.13,0,0,0-.64-1.17,3.86,3.86,0,0,0-1.41-.17v-2.22h5.61Zm.22-14.85a1.75,1.75,0,0,1-.54,1.35,2,2,0,0,1-1.46.56h0a2,2,0,0,1-1.44-.56,2,2,0,0,1,0-2.71,2.22,2.22,0,0,1,2.9,0A1.82,1.82,0,0,1,295.61,218.08Z"/><path class="cls-2" d="M297.57,232.37l.63-2.55a5.72,5.72,0,0,0,3.08.86q1.52,0,1.52-1a1,1,0,0,0-.61-.88,7.74,7.74,0,0,0-1.09-.42q-3.25-1.09-3.25-3.44a3.29,3.29,0,0,1,1.46-2.85,5.43,5.43,0,0,1,3.19-.9,7.33,7.33,0,0,1,3.24.65l-.64,2.46a5.18,5.18,0,0,0-2.48-.65q-1.35,0-1.35.94,0,.69,1.84,1.31,3.11,1.05,3.12,3.53a3.19,3.19,0,0,1-1.25,2.64,5.8,5.8,0,0,1-3.72,1.09A7.61,7.61,0,0,1,297.57,232.37Z"/><path class="cls-2" d="M310.21,233.2h0a1.93,1.93,0,0,1-1.49-.62,2.39,2.39,0,0,1,0-3.11,2.22,2.22,0,0,1,3,0,2.19,2.19,0,0,1,.57,1.57,2.14,2.14,0,0,1-.58,1.56A2,2,0,0,1,310.21,233.2Z"/><g id="line"><rect class="cls-2" x="39.51" y="202.22" width="268.11" height="3.44"/></g><g id="paracela_ja" data-name="paracela ja"><path class="cls-2" d="M316.49,164.72a3.63,3.63,0,1,1-3.61-3.69,3.63,3.63,0,0,1,3.61,3.69Zm-6.65,0a3.06,3.06,0,0,0,2.94,3.19h.13a3.22,3.22,0,0,0,.09-6.43h-.09a3.1,3.1,0,0,0-3,3.24Zm4.52-1.39a2.59,2.59,0,0,0-1.15-.28,1.53,1.53,0,0,0-1.7,1.66,1.59,1.59,0,0,0,1.5,1.68h.2a2.34,2.34,0,0,0,1.21-.31l.16.47a2.74,2.74,0,0,1-1.47.38,2.07,2.07,0,0,1-2.2-2.17,2.21,2.21,0,0,1,2.19-2.23h.11a2.37,2.37,0,0,1,1.32.33Z"/></g><path id="car" class="cls-2" d="M61.29,194.92a3.78,3.78,0,1,1-3.78-3.78h0A3.78,3.78,0,0,1,61.29,194.92Zm20.27-3.78a3.78,3.78,0,1,0,3.78,3.78A3.78,3.78,0,0,0,81.56,191.13ZM92.9,164.51l-1.83,4.69H54.45a.08.08,0,0,0-.08.08v4.39a.08.08,0,0,0,.08.08H89.31L84.15,187a3.79,3.79,0,0,1-3.38,2H56.71A3.24,3.24,0,0,1,53.59,187l-5.52-21.79-4.54-5-.08-.11H40.58a1,1,0,0,1-1.07-.88v-1a1,1,0,0,1,1.07-.87h5.56a1.15,1.15,0,0,1,.93.44.83.83,0,0,1,.24.18l4.19,4.6H91.08C92.51,162.51,93.33,163.41,92.9,164.51ZM58.58,181.19a.08.08,0,0,0,.08.08H83.25a.08.08,0,0,0,.08-.08V176.8a.08.08,0,0,0-.08-.08H58.66a.08.08,0,0,0-.08.08Z"/><g id="circle"><circle class="cls-2" cx="88.97" cy="164.78" r="14.44"/><path class="cls-1" d="M77.75,166.43v-3.65a.07.07,0,0,1,.06-.07h22a.07.07,0,0,1,.07.07v3.65a.07.07,0,0,1-.07.07h-22A.07.07,0,0,1,77.75,166.43Zm14.4,4a3.34,3.34,0,1,0-3.34,3.34,3.34,3.34,0,0,0,3.34-3.34h0Zm0-12a3.34,3.34,0,1,0-3.34,3.34,3.34,3.34,0,0,0,3.34-3.34h0"/></g><path class="cls-2" d="M107.71,189.18V159.27a57.48,57.48,0,0,1,9.27-.64,16.17,16.17,0,0,1,8.59,2,8.16,8.16,0,0,1,3.91,7.47,9.39,9.39,0,0,1-2.79,7.2q-3.4,3.21-9.84,3.21a16,16,0,0,1-2.35-.15v10.85ZM114.49,164v9a11.53,11.53,0,0,0,2.31.18,6.79,6.79,0,0,0,4.13-1.16,4.44,4.44,0,0,0,1.76-3.78q0-4.46-5.36-4.46A13.89,13.89,0,0,0,114.49,164Z"/><path class="cls-2" d="M155.84,189.18h-9.75l-.4-2.2h-.15a7.63,7.63,0,0,1-6.28,2.7,7.06,7.06,0,0,1-5.25-2,6.51,6.51,0,0,1-1.87-4.7,7,7,0,0,1,3.54-6.37q3.34-2.06,9.38-2.06v-.29q0-2.85-4-2.83A11.71,11.71,0,0,0,135,173l-1.25-4.37a17,17,0,0,1,8.54-2q9.64,0,9.64,9.51v6.15a2.19,2.19,0,0,0,1.23,2.26,7.62,7.62,0,0,0,2.72.33Zm-10.58-8v-2.42q-6.37,0-6.37,3.47,0,2.63,2.7,2.63a3.66,3.66,0,0,0,2.22-.72,3.46,3.46,0,0,0,1.32-1.8A4,4,0,0,0,145.25,181.19Z"/><path class="cls-2" d="M173.29,173.24a9.29,9.29,0,0,0-1.87-.2q-4,0-4.68,3.49a7.17,7.17,0,0,0-.13,1.51v11.13h-6.85V174a2.16,2.16,0,0,0-1.23-2.22,7.54,7.54,0,0,0-2.7-.33v-4.26h9.62l.26,4.06h.18a6.92,6.92,0,0,1,2.59-3.49,5.77,5.77,0,0,1,3.34-1.08,7,7,0,0,1,1.47.13Z"/><path class="cls-2" d="M192.57,183.6l.81,5a14.45,14.45,0,0,1-6.13,1.05,11.73,11.73,0,0,1-8.43-3,12.27,12.27,0,0,1,.4-17,13,13,0,0,1,9-3.05,14.82,14.82,0,0,1,5.23.86l-1.08,5.07a9.92,9.92,0,0,0-3.82-.66,5.62,5.62,0,0,0-4.31,1.7,6.25,6.25,0,0,0-1.59,4.45,6.17,6.17,0,0,0,1.64,4.48,5.84,5.84,0,0,0,4.4,1.69A10.74,10.74,0,0,0,192.57,183.6Z"/><path class="cls-2" d="M216.57,180.37H202.41a3.83,3.83,0,0,0,2.2,3.27,8.35,8.35,0,0,0,4,.9,19.62,19.62,0,0,0,6.06-.9l.9,4.63a20.84,20.84,0,0,1-7.95,1.41q-5.4,0-8.52-2.9t-3.23-8.34a12.28,12.28,0,0,1,2.7-8,10.22,10.22,0,0,1,8.41-3.78,8.89,8.89,0,0,1,7.55,3.43,12.13,12.13,0,0,1,2.24,7.55A13.64,13.64,0,0,1,216.57,180.37Zm-14.21-4.68h8.1a5.23,5.23,0,0,0-.77-2.83,3.44,3.44,0,0,0-3.12-1.63,3.69,3.69,0,0,0-3,1.36A5.52,5.52,0,0,0,202.36,175.7Z"/><path class="cls-2" d="M228.93,189.18h-6.85V164.1a2.22,2.22,0,0,0-1.23-2.26,7.92,7.92,0,0,0-2.7-.31v-4.28h10.78Z"/><path class="cls-2" d="M256.69,189.18h-9.75l-.4-2.2h-.15a7.63,7.63,0,0,1-6.28,2.7,7.06,7.06,0,0,1-5.25-2,6.51,6.51,0,0,1-1.87-4.7,7,7,0,0,1,3.54-6.37q3.34-2.06,9.38-2.06v-.29q0-2.85-4-2.83a11.71,11.71,0,0,0-6.08,1.63l-1.25-4.37a17,17,0,0,1,8.54-2q9.64,0,9.64,9.51v6.15a2.19,2.19,0,0,0,1.23,2.26,7.62,7.62,0,0,0,2.72.33Zm-10.58-8v-2.42q-6.37,0-6.37,3.47,0,2.63,2.7,2.63a3.66,3.66,0,0,0,2.22-.72,3.46,3.46,0,0,0,1.32-1.8A4,4,0,0,0,246.1,181.19Z"/><path class="cls-2" d="M274.67,177.94V158.88h6.83V178q0,11.66-10.8,11.66a15.12,15.12,0,0,1-5-.72l.77-5.53A11.88,11.88,0,0,0,270,184a4.19,4.19,0,0,0,3.8-1.71A8.3,8.3,0,0,0,274.67,177.94Z"/><path class="cls-2" d="M305.3,176.18v7.64a34.46,34.46,0,0,0,.31,5.36h-6.15L299,187h-.13a7.63,7.63,0,0,1-6.28,2.7,7,7,0,0,1-5.23-2.09,6.45,6.45,0,0,1-1.89-4.68,7.12,7.12,0,0,1,4.39-6.83,19.66,19.66,0,0,1,8.52-1.58v-.31q0-2.83-4-2.83a11.48,11.48,0,0,0-6.08,1.67l-1.25-4.41a17.26,17.26,0,0,1,8.54-1.93Q305.3,166.69,305.3,176.18Zm-6.65,5v-2.37q-6.39,0-6.39,3.47,0,2.59,2.7,2.59a3.89,3.89,0,0,0,2.22-.68,3.22,3.22,0,0,0,1.34-1.82A4.27,4.27,0,0,0,298.65,181.16Zm-1.8-23.47h6.3l-5.49,6.85H293Z"/></g></g></svg>