<svg xmlns="http://www.w3.org/2000/svg" xmlns:xlink="http://www.w3.org/1999/xlink" viewBox="0 0 406 632"><defs><style>.cls-1,.cls-16{fill:none;}.cls-2{isolation:isolate;}.cls-3{fill:#294d74;}.cls-4{fill:#ebebf2;}.cls-5{clip-path:url(#clip-path);}.cls-6{fill:#aeb2c6;}.cls-7{fill:#c1c4d4;}.cls-8{fill:#d9dbe5;}.cls-9{fill:#fff;}.cls-10{fill:#7a9a2b;}.cls-11{fill:#3c3c3b;}.cls-12{fill:#2e2d2c;}.cls-13{opacity:0.05;}.cls-13,.cls-19,.cls-22{mix-blend-mode:multiply;}.cls-14{fill:#a9aec3;}.cls-15{fill:#e6e7ee;}.cls-16{stroke:#7a86a3;stroke-linecap:round;stroke-linejoin:round;stroke-width:6.63px;}.cls-17{fill:#5b6e90;}.cls-18{fill:#73809f;}.cls-19{opacity:0.5;}.cls-20{fill:#f8f8fa;}.cls-21{clip-path:url(#clip-path-2);}.cls-22{fill:#1d1d1b;opacity:0.15;}</style><clipPath id="clip-path"><circle id="SVGID" class="cls-1" cx="121.54" cy="118.38" r="99.83"/></clipPath><clipPath id="clip-path-2"><circle class="cls-1" cx="273.33" cy="267.87" r="22.26"/></clipPath></defs><title>step2-blueBG</title><g class="cls-2"><g id="Layer_2" data-name="Layer 2"><g id="img_2.3_passos_BLUE" data-name="img 2.3 passos BLUE"><rect class="cls-1" width="406" height="632"/><g id="SVGID-2" data-name="SVGID"><path class="cls-3" d="M121.54,221.21A102.83,102.83,0,1,1,224.37,118.38,102.95,102.95,0,0,1,121.54,221.21Z"/><path class="cls-4" d="M121.54,18.55a99.83,99.83,0,1,1-99.83,99.83,99.83,99.83,0,0,1,99.83-99.83m0-6A105.83,105.83,0,1,0,227.37,118.38,105.95,105.95,0,0,0,121.54,12.55Z"/></g><g class="cls-5"><path class="cls-6" d="M198.2,75.89l-34.08,7.54a8,8,0,0,0-4.53,3.08l-19.44,27A8,8,0,0,0,153,122.94l14.84-19.86a8,8,0,0,1,4.4-3l24.92-6.44a8,8,0,0,0,6-8.48Z"/><path class="cls-7" d="M193.39,65.82l-41.7,9.42a8.73,8.73,0,0,0-5,3.24l-23.94,28.89A8.73,8.73,0,0,0,127.21,121c3.43,1,9.12-.12,11.32-2.93l16.73-21.29a8.73,8.73,0,0,1,4.88-3.11l27.38-6.37a8.73,8.73,0,0,0,6.73-9.1Z"/><path class="cls-8" d="M172.3,117.49l-.91,7.39,35.26-20.06s-32.39-22.69-38.74-22.69C175.85,90.38,184.31,106.58,172.3,117.49Z"/><path class="cls-1" d="M194.9,64.36,155.41,48a8.73,8.73,0,0,0-6-.26l-34.62,11a8.73,8.73,0,0,0,5.13,16.68l25.95-7.74a8.73,8.73,0,0,1,5.78.28l26,10.59A8.73,8.73,0,0,0,188.46,75Z"/><path class="cls-8" d="M281.59,148l-66,5.08a12.07,12.07,0,0,1-5.16-.82l-19.65-8.36a12.05,12.05,0,0,0-3.94-.83L141,140.21c-6.47-.26-11.57-4.58-11.57-11.05,0-6.66,5.4-11.06,12.06-11.06l40.88-1a4,4,0,0,0,3.74-5.46l-6.52-16.8a11.65,11.65,0,0,0-10.86-7.44H147.46a11.65,11.65,0,0,0-7.28,2.55l-22.46,16c-2.93,2.34-5.8,3.13-9.41,2.12-8.83-2.46-11.49-11.69-4.7-17.85l26.12-24.62a11.65,11.65,0,0,1,7.83-3h51.08a11.65,11.65,0,0,1,7.74,2.94l40.34,35.85,44.86,7.27V148"/><path class="cls-9" d="M213.81,152.11h0m-84.38-23h0"/><path class="cls-9" d="M110.45,110.46h0m-3.13-.43.08,0-.08,0m0,0h0m0,0h0m0,0h0m0,0h0m0,0h0m10.53-2.06a11.65,11.65,0,0,1-7.25,2.53,11.65,11.65,0,0,0,7.25-2.53M169,87.39h0m0,0h0m0,0h0m0,0h0m0,0h0m0,0h0m0,0h0m0,0h0m0,0h0"/><rect class="cls-9" x="255.52" y="100.73" width="30.92" height="61.83"/><path class="cls-9" d="M281.59,98.3v69.11h63V98.3Zm11.52,64.26a6.06,6.06,0,1,1,6.06-6.06A6.06,6.06,0,0,1,293.11,162.56Z"/><rect class="cls-9" x="45.65" y="92.88" width="102.52" height="68.35" rx="10" ry="10"/><path class="cls-10" d="M55,121.84v1.47h5.16v-4.8H58.3A3.33,3.33,0,0,0,55,121.84Z"/><rect class="cls-10" x="54.97" y="125.1" width="5.16" height="4.13"/><path class="cls-10" d="M55,132.26a3.33,3.33,0,0,0,3.33,3.33h1.83V131H55Z"/><path class="cls-10" d="M66.89,135.59h1.83a3.33,3.33,0,0,0,3.33-3.33V131H66.89Z"/><rect class="cls-10" x="66.89" y="125.1" width="5.17" height="4.13"/><path class="cls-10" d="M68.72,118.51h-6.8v17.09h3.17V123.31h7v-1.47A3.33,3.33,0,0,0,68.72,118.51Z"/><rect class="cls-11" x="79.8" y="124.17" width="5.54" height="4.27"/><rect class="cls-11" x="88.34" y="124.17" width="5.54" height="4.27"/><rect class="cls-11" x="96.87" y="124.17" width="5.54" height="4.27"/><rect class="cls-11" x="105.41" y="124.17" width="5.54" height="4.27"/><rect class="cls-10" x="79.8" y="146.07" width="25.34" height="4.27"/><rect class="cls-11" x="79.8" y="108.39" width="56.81" height="4.89"/><rect class="cls-11" x="106.77" y="100.51" width="29.85" height="4.16"/><rect class="cls-11" x="79.8" y="116.28" width="56.81" height="4.89"/><path class="cls-10" d="M129.74,143.92c-1.93-.63-4.31-1-3.8-4.3,1.12-.92,1.71-3.55,1.71-3.55a3.82,3.82,0,0,0,1.61-2.5c.16-1.17-.44-1.13-.49-1.15.09-.51.24-1.66.26-2.22.13-3.5-3-6.27-6.63-6.27s-6.75,2.77-6.63,6.27c0,.56.17,1.71.26,2.22,0,0-.65,0-.49,1.15a3.82,3.82,0,0,0,1.61,2.5s.59,2.63,1.71,3.55c.51,3.31-1.88,3.67-3.8,4.3-3.13,1-5.87,1.5-5.87,6.42,0,0,6.6.08,13.21,0,6.61.09,13.21,0,13.21,0C135.62,145.42,132.87,144.94,129.74,143.92Z"/><path class="cls-8" d="M186.8,143.08,141,140.21c-6.47-.26-11.57-4.58-11.57-11.05,0-6.66,5.4-11.06,12.06-11.06l40.88-6"/></g><rect class="cls-9" x="229.64" y="423.24" width="126.81" height="190.21" rx="10" ry="10"/><path class="cls-12" d="M302.71,440.52H300v9.58h8.91V446.7A6.18,6.18,0,0,0,302.71,440.52Z"/><rect class="cls-12" x="288.98" y="440.52" width="7.67" height="9.58"/><path class="cls-12" d="M283.37,440.52a6.18,6.18,0,0,0-6.18,6.19v3.39h8.46v-9.58Z"/><path class="cls-12" d="M277.19,462.63V466a6.18,6.18,0,0,0,6.18,6.19h2.28v-9.59Z"/><rect class="cls-12" x="288.98" y="462.63" width="7.67" height="9.59"/><path class="cls-12" d="M308.89,466V453.42h-31.7v5.89H300v12.91h2.73A6.18,6.18,0,0,0,308.89,466Z"/><rect class="cls-11" x="290.46" y="486.6" width="7.93" height="10.28"/><rect class="cls-11" x="290.46" y="502.43" width="7.93" height="10.28"/><rect class="cls-11" x="290.46" y="518.27" width="7.93" height="10.28"/><rect class="cls-11" x="290.46" y="534.1" width="7.93" height="10.28"/><rect class="cls-10" x="249.83" y="486.6" width="7.93" height="48.87"/><rect class="cls-11" x="318.58" y="486.6" width="9.08" height="105.41"/><rect class="cls-11" x="334.56" y="536.63" width="7.73" height="55.38"/><rect class="cls-11" x="303.94" y="486.6" width="9.08" height="105.41"/><path class="cls-10" d="M261.74,581.11c1.17-3.57,1.83-8,8-7.05,1.7,2.08,6.59,3.17,6.59,3.17a7.1,7.1,0,0,0,4.65,3c2.17.3,2.1-.82,2.14-.9.94.16,3.09.44,4.12.48,6.5.24,11.63-5.58,11.63-12.29S293.71,555,287.22,555.2c-1,0-3.18.31-4.12.48,0-.08,0-1.2-2.14-.9a7.1,7.1,0,0,0-4.65,3s-4.89,1.09-6.59,3.17c-6.15.94-6.81-3.48-8-7.05-1.89-5.8-2.79-10.89-11.91-10.89,0,0-.15,12.24,0,24.51-.17,12.27,0,24.51,0,24.51C258.95,592,259.85,586.91,261.74,581.11Z"/><g class="cls-13"><path d="M381,511.82a22.09,22.09,0,0,1-22.09,22.09H203.17a22.09,22.09,0,0,1-22.09-22.09V149.72a22.09,22.09,0,0,1,22.09-22.09H358.91A22.09,22.09,0,0,1,381,149.72v362.1Z"/></g><path class="cls-14" d="M393,496.82a22.09,22.09,0,0,1-22.09,22.09H215.17a22.09,22.09,0,0,1-22.09-22.09V134.72a22.09,22.09,0,0,1,22.09-22.09H370.91A22.09,22.09,0,0,1,393,134.72v362.1Z"/><rect class="cls-15" x="209.65" y="428.18" width="48.6" height="31.84" rx="8" ry="8"/><rect class="cls-15" x="268.74" y="428.18" width="48.6" height="31.84" rx="8" ry="8"/><rect class="cls-15" x="327.84" y="428.18" width="48.6" height="31.84" rx="8" ry="8"/><rect class="cls-15" x="209.65" y="385.85" width="48.6" height="31.84" rx="8" ry="8"/><rect class="cls-15" x="268.74" y="385.85" width="48.6" height="31.84" rx="8" ry="8"/><rect class="cls-15" x="327.84" y="385.85" width="48.6" height="31.84" rx="8" ry="8"/><rect class="cls-15" x="209.65" y="343.52" width="48.6" height="31.84" rx="8" ry="8"/><rect class="cls-15" x="268.74" y="343.52" width="48.6" height="31.84" rx="8" ry="8"/><rect class="cls-15" x="327.84" y="343.52" width="48.6" height="31.84" rx="8" ry="8"/><rect class="cls-11" x="209.65" y="208.78" width="166.79" height="118.18" rx="8" ry="8"/><line class="cls-16" x1="209.65" y1="188.84" x2="376.44" y2="188.84"/><g id="line"><rect class="cls-9" x="230.25" y="160.82" width="121.56" height="1.56"/></g><g id="paracela_ja" data-name="paracela ja"><path class="cls-9" d="M355.83,143.81a1.64,1.64,0,1,1-1.64-1.67,1.64,1.64,0,0,1,1.64,1.67Zm-3,0a1.39,1.39,0,0,0,1.33,1.45h.06a1.46,1.46,0,0,0,0-2.91h0a1.4,1.4,0,0,0-1.38,1.47Zm2-.63a1.18,1.18,0,0,0-.52-.13.69.69,0,0,0-.77.75.72.72,0,0,0,.68.76h.09a1.06,1.06,0,0,0,.55-.14l.07.21a1.24,1.24,0,0,1-.67.17.94.94,0,0,1-1-1,1,1,0,0,1,1-1h0a1.07,1.07,0,0,1,.6.15Z"/></g><path id="car" class="cls-9" d="M240.12,157.51a1.71,1.71,0,1,1-1.71-1.71h0A1.71,1.71,0,0,1,240.12,157.51Zm9.19-1.71a1.71,1.71,0,1,0,1.71,1.71A1.71,1.71,0,0,0,249.31,155.79Zm5.14-12.07-.83,2.13H237a0,0,0,0,0,0,0v2a0,0,0,0,0,0,0h15.81l-2.34,6a1.72,1.72,0,0,1-1.53.91H238a1.47,1.47,0,0,1-1.41-.93l-2.5-9.88-2.06-2.26,0,0h-1.3a.45.45,0,0,1-.49-.4v-.46a.45.45,0,0,1,.49-.39h2.52a.52.52,0,0,1,.42.2.38.38,0,0,1,.11.08l1.9,2.08h17.95C254.28,142.81,254.65,143.22,254.46,143.72Zm-15.56,7.56a0,0,0,0,0,0,0h11.15a0,0,0,0,0,0,0v-2a0,0,0,0,0,0,0H238.93a0,0,0,0,0,0,0Z"/><g id="circle"><circle class="cls-9" cx="252.67" cy="143.84" r="6.55"/><path class="cls-14" d="M247.59,144.59v-1.65a0,0,0,0,1,0,0h10a0,0,0,0,1,0,0v1.66a0,0,0,0,1,0,0h-10A0,0,0,0,1,247.59,144.59Zm6.53,1.83a1.51,1.51,0,1,0-1.51,1.52,1.51,1.51,0,0,0,1.51-1.52h0Zm0-5.44a1.51,1.51,0,1,0-1.51,1.52,1.51,1.51,0,0,0,1.51-1.52h0"/></g><path class="cls-9" d="M261.17,154.9V141.34a26.06,26.06,0,0,1,4.2-.29,7.33,7.33,0,0,1,3.89.9,3.7,3.7,0,0,1,1.77,3.38,4.26,4.26,0,0,1-1.26,3.27,6.27,6.27,0,0,1-4.46,1.45,7.26,7.26,0,0,1-1.07-.07v4.92Zm3.08-11.4v4.08a5.23,5.23,0,0,0,1,.08,3.08,3.08,0,0,0,1.87-.53,2,2,0,0,0,.8-1.71q0-2-2.43-2A6.3,6.3,0,0,0,264.25,143.51Z"/><path class="cls-9" d="M283,154.9h-4.42l-.18-1h-.07a3.46,3.46,0,0,1-2.85,1.22,3.2,3.2,0,0,1-2.38-.93,3,3,0,0,1-.85-2.13,3.18,3.18,0,0,1,1.6-2.89,8.09,8.09,0,0,1,4.25-.94v-.13q0-1.29-1.82-1.28a5.31,5.31,0,0,0-2.76.74l-.57-2a7.68,7.68,0,0,1,3.87-.9q4.37,0,4.37,4.31v2.79a1,1,0,0,0,.56,1A3.46,3.46,0,0,0,283,153Zm-4.8-3.62v-1.1q-2.89,0-2.89,1.57a1.07,1.07,0,0,0,1.22,1.19,1.66,1.66,0,0,0,1-.33,1.57,1.57,0,0,0,.6-.82A1.83,1.83,0,0,0,278.19,151.28Z"/><path class="cls-9" d="M290.91,147.68a4.21,4.21,0,0,0-.85-.09,1.9,1.9,0,0,0-2.12,1.58,3.25,3.25,0,0,0-.06.69v5h-3.11V148a1,1,0,0,0-.56-1,3.42,3.42,0,0,0-1.22-.15v-1.93h4.36l.12,1.84h.08a3.14,3.14,0,0,1,1.17-1.58,2.62,2.62,0,0,1,1.51-.49,3.15,3.15,0,0,1,.67.06Z"/><path class="cls-9" d="M299.65,152.38l.37,2.28a6.55,6.55,0,0,1-2.78.48,5.32,5.32,0,0,1-3.82-1.35,5.56,5.56,0,0,1,.18-7.69,5.92,5.92,0,0,1,4.07-1.38,6.72,6.72,0,0,1,2.37.39l-.49,2.3a4.5,4.5,0,0,0-1.73-.3,2.55,2.55,0,0,0-2,.77,2.83,2.83,0,0,0-.72,2,2.8,2.8,0,0,0,.74,2,2.65,2.65,0,0,0,2,.77A4.87,4.87,0,0,0,299.65,152.38Z"/><path class="cls-9" d="M310.53,150.91h-6.42a1.74,1.74,0,0,0,1,1.48,3.79,3.79,0,0,0,1.82.41,8.9,8.9,0,0,0,2.75-.41l.41,2.1a9.45,9.45,0,0,1-3.6.64,5.45,5.45,0,0,1-3.86-1.31,4.9,4.9,0,0,1-1.46-3.78,5.57,5.57,0,0,1,1.22-3.61,4.63,4.63,0,0,1,3.81-1.71,4,4,0,0,1,3.42,1.55,5.5,5.5,0,0,1,1,3.42A6.19,6.19,0,0,1,310.53,150.91Zm-6.44-2.12h3.67a2.37,2.37,0,0,0-.35-1.28,1.56,1.56,0,0,0-1.41-.74,1.67,1.67,0,0,0-1.34.62A2.5,2.5,0,0,0,304.09,148.79Z"/><path class="cls-9" d="M316.13,154.9H313V143.53a1,1,0,0,0-.56-1,3.59,3.59,0,0,0-1.22-.14v-1.94h4.89Z"/><path class="cls-9" d="M328.72,154.9H324.3l-.18-1H324a3.46,3.46,0,0,1-2.85,1.22,3.2,3.2,0,0,1-2.38-.93,3,3,0,0,1-.85-2.13,3.18,3.18,0,0,1,1.6-2.89,8.09,8.09,0,0,1,4.25-.94v-.13q0-1.29-1.82-1.28a5.31,5.31,0,0,0-2.76.74l-.57-2a7.68,7.68,0,0,1,3.87-.9q4.37,0,4.37,4.31v2.79a1,1,0,0,0,.56,1,3.46,3.46,0,0,0,1.23.15Zm-4.8-3.62v-1.1q-2.89,0-2.89,1.57a1.07,1.07,0,0,0,1.22,1.19,1.66,1.66,0,0,0,1-.33,1.57,1.57,0,0,0,.6-.82A1.83,1.83,0,0,0,323.92,151.28Z"/><path class="cls-9" d="M336.87,149.81v-8.64H340v8.68q0,5.29-4.9,5.29a6.86,6.86,0,0,1-2.26-.33l.35-2.51a5.39,5.39,0,0,0,1.59.24,1.9,1.9,0,0,0,1.72-.78A3.76,3.76,0,0,0,336.87,149.81Z"/><path class="cls-9" d="M350.76,149v3.46a15.62,15.62,0,0,0,.14,2.43h-2.79l-.19-1h-.06a3.46,3.46,0,0,1-2.85,1.22,3.15,3.15,0,0,1-2.37-.95,2.92,2.92,0,0,1-.86-2.12,3.23,3.23,0,0,1,2-3.1,8.92,8.92,0,0,1,3.86-.72v-.14q0-1.28-1.81-1.28a5.21,5.21,0,0,0-2.76.76l-.57-2a7.83,7.83,0,0,1,3.87-.88Q350.76,144.71,350.76,149Zm-3,2.26V150.2q-2.9,0-2.9,1.57,0,1.17,1.22,1.17a1.76,1.76,0,0,0,1-.31,1.46,1.46,0,0,0,.61-.83A1.93,1.93,0,0,0,347.74,151.27Zm-.82-10.64h2.86l-2.49,3.11h-2.12Z"/><rect class="cls-17" x="209.65" y="470.51" width="48.6" height="31.84" rx="8" ry="8"/><rect class="cls-18" x="268.74" y="470.51" width="48.6" height="31.84" rx="8" ry="8"/><polygon class="cls-9" points="362.99 481.2 359.63 477.84 349.43 488.3 344.65 483.77 341.29 487.13 349.43 495.02 362.99 481.2"/><g class="cls-19"><rect x="327.84" y="471.81" width="48.6" height="31.84" rx="8" ry="8"/></g><rect class="cls-10" x="327.84" y="470.51" width="48.6" height="31.84" rx="8" ry="8"/><path class="cls-20" d="M344.85,493h0a5.88,5.88,0,0,1-4.66-2,7.13,7.13,0,0,1-1.68-4.86,7.3,7.3,0,0,1,1.74-5,6.15,6.15,0,0,1,4.82-2.05,6,6,0,0,1,4.74,2,7,7,0,0,1,1.66,4.79,7.43,7.43,0,0,1-1.7,5.09A6.21,6.21,0,0,1,344.85,493Zm.11-2.42h0a2.76,2.76,0,0,0,2.53-1.53,6.13,6.13,0,0,0,.7-3,5.8,5.8,0,0,0-.73-3,2.87,2.87,0,0,0-5.06,0,6,6,0,0,0-.72,3,5.87,5.87,0,0,0,.73,3A2.78,2.78,0,0,0,345,490.54Z"/><path class="cls-20" d="M353.45,492.74V479.26h3v6h.06q.49-.85.93-1.48l3.06-4.47h3.74L359.79,485l4.7,7.74h-3.55l-3.3-5.82-1.16,1.42v4.4Z"/><g class="cls-21"><path class="cls-9" d="M281.66,277.56c-2.19-.72-4.89-1.12-4.31-4.88,1.27-1,1.94-4,1.94-4a4.34,4.34,0,0,0,1.82-2.84c.18-1.33-.5-1.29-.55-1.31.1-.58.27-1.89.29-2.52.15-4-3.41-7.12-7.52-7.12s-7.66,3.14-7.52,7.12c0,.63.19,1.94.29,2.52-.05,0-.73,0-.55,1.31a4.34,4.34,0,0,0,1.82,2.84s.67,3,1.94,4c.57,3.76-2.13,4.16-4.31,4.88-3.55,1.15-6.66,1.71-6.66,7.28,0,0,4.84,5.83,15,5.83s15-5.83,15-5.83C288.32,279.27,285.21,278.72,281.66,277.56Z"/></g><path class="cls-9" d="M273.33,246.61a21.26,21.26,0,1,1-21.26,21.26,21.29,21.29,0,0,1,21.26-21.26m0-1a22.26,22.26,0,1,0,22.26,22.26,22.26,22.26,0,0,0-22.26-22.26Z"/><circle class="cls-10" cx="312.76" cy="267.87" r="22.26"/><polygon class="cls-9" points="327.97 261.77 323.41 257.2 309.54 271.42 303.04 265.26 298.48 269.83 309.54 280.55 327.97 261.77"/><rect class="cls-22" x="229.64" y="518.91" width="126.81" height="14.84"/></g></g></g></svg>