<svg xmlns="http://www.w3.org/2000/svg" xmlns:xlink="http://www.w3.org/1999/xlink" viewBox="0 0 406 632"><defs><style>.cls-1{fill:#294d74;}.cls-2{fill:#7a9a2b;}.cls-3{isolation:isolate;}.cls-15,.cls-20,.cls-23,.cls-4{fill:none;}.cls-5{clip-path:url(#clip-path);}.cls-6{clip-path:url(#clip-path-2);}.cls-7{fill:#d9dbe5;}.cls-8{fill:#3c3c3b;}.cls-9{fill:#fff;}.cls-10{fill:#e6e7ee;}.cls-11{clip-path:url(#clip-path-3);}.cls-12{fill:#064169;}.cls-13{opacity:0.03;}.cls-13,.cls-18,.cls-24{mix-blend-mode:multiply;}.cls-14{fill:#a9aec3;}.cls-15{stroke:#566b8e;stroke-linejoin:round;stroke-width:6.63px;}.cls-15,.cls-20,.cls-23{stroke-linecap:round;}.cls-16{fill:#5b6e90;}.cls-17{fill:#73809f;}.cls-18{opacity:0.5;}.cls-19{fill:#f8f8fa;}.cls-20{stroke:#fff;}.cls-20,.cls-23{stroke-miterlimit:10;}.cls-21,.cls-24{fill:#1d1d1b;}.cls-22{fill:url(#linear-gradient);}.cls-23{stroke:#cdcfdc;stroke-width:4px;}.cls-24{opacity:0.15;}</style><clipPath id="clip-path"><circle id="SVGID" class="cls-1" cx="282.22" cy="107.03" r="99.83"/></clipPath><clipPath id="clip-path-2"><rect id="SVGID-2" data-name="SVGID" class="cls-2" x="233.09" y="32.97" width="98.25" height="65.5" rx="10" ry="10"/></clipPath><clipPath id="clip-path-3"><rect id="SVGID-3" data-name="SVGID" class="cls-2" x="49.56" y="434.59" width="126.81" height="190.21" rx="10" ry="10"/></clipPath><linearGradient id="linear-gradient" x1="112.96" y1="68.01" x2="112.96" y2="200.19" gradientUnits="userSpaceOnUse"><stop offset="0" stop-color="#cdcfdc"/><stop offset="0.34" stop-color="#f8f8fa"/><stop offset="0.89" stop-color="#f8f8fa"/><stop offset="1" stop-color="#9da3bb"/></linearGradient></defs><title>step3-whiteBG</title><g class="cls-3"><g id="Layer_2" data-name="Layer 2"><g id="img_3.3_passos_WHITE_copy" data-name="img 3.3 passos WHITE copy"><rect class="cls-4" width="406" height="632"/><circle id="SVGID-4" data-name="SVGID" class="cls-1" cx="282.22" cy="107.03" r="99.83"/><g class="cls-5"><rect id="SVGID-5" data-name="SVGID" class="cls-2" x="233.09" y="32.97" width="98.25" height="65.5" rx="10" ry="10"/><g class="cls-6"><rect class="cls-7" x="228.19" y="30.28" width="106.69" height="22.77"/></g><rect class="cls-8" x="233.09" y="49.34" width="98.25" height="12.28"/><rect class="cls-9" x="245.37" y="82.09" width="24.56" height="4.09"/><rect class="cls-9" x="245.37" y="73.9" width="36.84" height="4.09"/><rect class="cls-9" x="306.78" y="73.9" width="12.28" height="4.09"/><path class="cls-4" d="M202.17,141.65a2.24,2.24,0,0,0,3.16,0l5.12-5.12,5.12,5.12a2.23,2.23,0,1,0,3.16-3.15l-5.12-5.12,5.12-5.12a2.23,2.23,0,0,0-3.16-3.16l-5.12,5.12-5.12-5.12a2.23,2.23,0,0,0-3.16,3.16l5.12,5.12-5.12,5.12A2.24,2.24,0,0,0,202.17,141.65Z"/><path class="cls-9" d="M326,135.44c3.93,4,20.57-10.21,20.57-10.21l-9.72-10S322,131.41,326,135.44Z"/><path class="cls-2" d="M399.92,30.73,370.76,59c-15.67,15.19-23.66,29.91-31,50.46l12.87,13.29C373.34,116,388.3,108.47,404,93.27L398.9,66.93Z"/><line class="cls-4" x1="206.04" y1="153.51" x2="390.56" y2="153.51"/><path class="cls-9" d="M321.27,137a38.32,38.32,0,0,1-4.77,2.42c-.84.34-2.74,1.28-4.11,1.13a4.26,4.26,0,0,1-.91-.23,3.25,3.25,0,0,1-.78-.39,3.05,3.05,0,0,1-1-1.21,1.46,1.46,0,0,1-.09-1.06,2.33,2.33,0,0,0-.6-2.46,2.3,2.3,0,0,0-3.25.12l-4.21,4.45-.07-5.24a2.3,2.3,0,0,0-4.11-1.41l-4.1,5.15.09-5.51a2.3,2.3,0,0,0-4.23-1.3l0,0a33,33,0,0,1-6.8,7.06c-.59.47-1.2.93-1.81,1.38,1.72-5.54,1.21-9.88-1.5-12-1.46-1.14-4.7-2.53-10.09,1.12a28,28,0,0,0-4.48,4.2,6.54,6.54,0,0,0-1.47-5.12c-2.89-3.16-8-1.13-9.68-.47a39.8,39.8,0,0,0-5,2.5q.62-2.88,1.22-5.73c.16-.76.32-1.5.48-2.25,4.39-2.31,8.13-4.92,10-7.39,7.63-10.17,6.75-15.73,5.55-18.13a6.09,6.09,0,0,0-5.56-3.4c-3.7,0-7.39,2.76-9.61,7.21-1.74,3.48-3.31,10.12-5,18.08-6.25,3-13.55,5.27-17.42,5.27a2.66,2.66,0,1,0,0,5.32c3.93,0,10.09-1.68,16-4.14-.62,2.94-1.3,6.1-2,9.31-7.12,5.13-14.19,11.72-17.43,17.41a42.48,42.48,0,0,0-2,3.91c-2.13,4.69-4.86,12.45-1.84,16.59a5.83,5.83,0,0,0,5,2.35,10.41,10.41,0,0,0,1.9-.18c6.28-1.16,10.74-8.84,14.25-19.13.4-1,.76-2.18,1.14-3.54,1.37-4.49,2.61-9.35,3.75-14.32a46.75,46.75,0,0,1,8.61-4.8,10,10,0,0,1,3.59-.9c.13,0,.19,0,.2,0,.08.2.85,2.63-3.62,11.56-1,2-.8,3.47.59,4.38,2.17,1.41,3.19.18,7-4.42,2.55-3.11,6.82-8.33,8.94-9.76s3.55-1.57,3.82-1.35.74,1.69.24,4.24a2.53,2.53,0,0,0-.15.32c-.19.76-.35,1.32-.6,2.06l-.74,2.1c-.53,1.41-1.1,2.82-1.71,4.22h0l-.05.13a2.29,2.29,0,0,0,3.07,3,46.93,46.93,0,0,0,9.42-6c1.19-1,2.34-2,3.45-3.06l-.1,5.88a2.3,2.3,0,0,0,4.11,1.47l4.3-5.4.06,4.47a2.3,2.3,0,0,0,4,1.55l5.19-5.49a7.67,7.67,0,0,0,3.9,3.11,8.23,8.23,0,0,0,2,.27c2.1,0,5-1.28,6-1.61a32,32,0,0,0,5.42-2.78ZM255,102.87c1.46-2.93,3.55-4.26,4.85-4.26a.76.76,0,0,1,.81.46c.65,1.3.32,5.41-5.05,12.57a16.75,16.75,0,0,1-4.2,3.56C252.69,109.73,253.89,105.19,255,102.87ZM237.3,151.74l-1.19,3.54c-2.71,7.58-5.88,13.22-9.58,13.9-1,.19-1.54.06-1.63-.07-1-1.34.44-7.58,3.68-13.83,0,0,.64-1.15,1.08-1.86.25-.41,1.17-1.68,1.17-1.68a62.88,62.88,0,0,1,9.09-9.2C239.1,145.72,238.23,148.82,237.3,151.74Z"/></g><g id="SVGID-6" data-name="SVGID"><path class="cls-10" d="M282.22,7.2A99.83,99.83,0,1,1,182.39,107,99.83,99.83,0,0,1,282.22,7.2m0-6A105.83,105.83,0,1,0,388,107,105.95,105.95,0,0,0,282.22,1.2Z"/></g><rect id="SVGID-7" data-name="SVGID" class="cls-2" x="49.56" y="434.59" width="126.81" height="190.21" rx="10" ry="10"/><g class="cls-11"><rect class="cls-7" x="137.47" y="425.1" width="44.09" height="206.55"/></g><rect class="cls-8" x="120.88" y="434.59" width="23.78" height="190.21"/><rect class="cls-12" x="73.33" y="458.37" width="7.93" height="47.55"/><rect class="cls-12" x="89.18" y="458.37" width="7.93" height="71.33"/><rect class="cls-9" x="89.18" y="577.25" width="7.93" height="23.78"/><g class="cls-13"><path d="M200.92,523.17a22.09,22.09,0,0,1-22.09,22.09H23.09A22.09,22.09,0,0,1,1,523.17V161.07A22.09,22.09,0,0,1,23.09,139H178.83a22.09,22.09,0,0,1,22.09,22.09v362.1Z"/></g><path class="cls-14" d="M212.92,508.17a22.09,22.09,0,0,1-22.09,22.09H35.09A22.09,22.09,0,0,1,13,508.17V146.07A22.09,22.09,0,0,1,35.09,124H190.83a22.09,22.09,0,0,1,22.09,22.09v362.1Z"/><rect class="cls-10" x="29.57" y="439.53" width="48.6" height="31.84" rx="8" ry="8"/><rect class="cls-10" x="88.66" y="439.53" width="48.6" height="31.84" rx="8" ry="8"/><rect class="cls-10" x="147.76" y="439.53" width="48.6" height="31.84" rx="8" ry="8"/><rect class="cls-10" x="29.57" y="397.2" width="48.6" height="31.84" rx="8" ry="8"/><rect class="cls-10" x="88.66" y="397.2" width="48.6" height="31.84" rx="8" ry="8"/><rect class="cls-10" x="147.76" y="397.2" width="48.6" height="31.84" rx="8" ry="8"/><rect class="cls-10" x="29.57" y="354.87" width="48.6" height="31.84" rx="8" ry="8"/><rect class="cls-10" x="88.66" y="354.87" width="48.6" height="31.84" rx="8" ry="8"/><rect class="cls-10" x="147.76" y="354.87" width="48.6" height="31.84" rx="8" ry="8"/><rect class="cls-8" x="29.57" y="220.13" width="166.79" height="118.18" rx="8" ry="8"/><line class="cls-15" x1="29.57" y1="200.19" x2="196.36" y2="200.19"/><g id="line"><rect class="cls-9" x="50.17" y="172.17" width="121.56" height="1.56"/></g><g id="paracela_ja" data-name="paracela ja"><path class="cls-9" d="M175.75,155.16a1.64,1.64,0,1,1-1.64-1.67,1.64,1.64,0,0,1,1.64,1.67Zm-3,0a1.39,1.39,0,0,0,1.33,1.45h.06a1.46,1.46,0,0,0,0-2.91h0a1.4,1.4,0,0,0-1.38,1.47Zm2-.63a1.18,1.18,0,0,0-.52-.13.69.69,0,0,0-.77.75.72.72,0,0,0,.68.76h.09a1.06,1.06,0,0,0,.55-.14l.07.21a1.24,1.24,0,0,1-.67.17.94.94,0,0,1-1-1,1,1,0,0,1,1-1h0a1.07,1.07,0,0,1,.6.15Z"/></g><path id="car" class="cls-9" d="M60,168.86a1.71,1.71,0,1,1-1.71-1.71h0A1.71,1.71,0,0,1,60,168.86Zm9.19-1.71a1.71,1.71,0,1,0,1.71,1.71A1.71,1.71,0,0,0,69.23,167.14Zm5.14-12.07-.83,2.13H56.94a0,0,0,0,0,0,0v2a0,0,0,0,0,0,0H72.75l-2.34,6a1.72,1.72,0,0,1-1.53.91H58a1.47,1.47,0,0,1-1.41-.93l-2.5-9.88L52,153.11l0,0h-1.3a.45.45,0,0,1-.49-.4v-.46a.45.45,0,0,1,.49-.39h2.52a.52.52,0,0,1,.42.2.38.38,0,0,1,.11.08l1.9,2.08H73.55C74.2,154.16,74.57,154.57,74.37,155.07Zm-15.56,7.56a0,0,0,0,0,0,0H70a0,0,0,0,0,0,0v-2a0,0,0,0,0,0,0H58.85a0,0,0,0,0,0,0Z"/><g id="circle"><circle class="cls-9" cx="72.59" cy="155.19" r="6.55"/><path class="cls-14" d="M67.51,155.94v-1.65a0,0,0,0,1,0,0h10a0,0,0,0,1,0,0v1.66a0,0,0,0,1,0,0h-10A0,0,0,0,1,67.51,155.94ZM74,157.77a1.51,1.51,0,1,0-1.51,1.52A1.51,1.51,0,0,0,74,157.77h0Zm0-5.44a1.51,1.51,0,1,0-1.51,1.52A1.51,1.51,0,0,0,74,152.33h0"/></g><path class="cls-9" d="M81.09,166.25V152.69a26.06,26.06,0,0,1,4.2-.29,7.33,7.33,0,0,1,3.89.9A3.7,3.7,0,0,1,91,156.69,4.26,4.26,0,0,1,89.69,160a6.27,6.27,0,0,1-4.46,1.45,7.26,7.26,0,0,1-1.07-.07v4.92Zm3.08-11.4v4.08a5.23,5.23,0,0,0,1,.08,3.08,3.08,0,0,0,1.87-.53,2,2,0,0,0,.8-1.71q0-2-2.43-2A6.3,6.3,0,0,0,84.16,154.85Z"/><path class="cls-9" d="M102.91,166.25H98.49l-.18-1h-.07a3.46,3.46,0,0,1-2.85,1.22,3.2,3.2,0,0,1-2.38-.93,3,3,0,0,1-.85-2.13,3.18,3.18,0,0,1,1.6-2.89A8.09,8.09,0,0,1,98,159.6v-.13q0-1.29-1.82-1.28a5.31,5.31,0,0,0-2.76.74l-.57-2a7.68,7.68,0,0,1,3.87-.9q4.37,0,4.37,4.31v2.79a1,1,0,0,0,.56,1,3.46,3.46,0,0,0,1.23.15Zm-4.8-3.62v-1.1q-2.89,0-2.89,1.57a1.07,1.07,0,0,0,1.22,1.19,1.66,1.66,0,0,0,1-.33,1.57,1.57,0,0,0,.6-.82A1.83,1.83,0,0,0,98.11,162.63Z"/><path class="cls-9" d="M110.83,159a4.21,4.21,0,0,0-.85-.09,1.9,1.9,0,0,0-2.12,1.58,3.25,3.25,0,0,0-.06.69v5h-3.11v-6.89a1,1,0,0,0-.56-1,3.42,3.42,0,0,0-1.22-.15v-1.93h4.36l.12,1.84h.08a3.14,3.14,0,0,1,1.17-1.58,2.62,2.62,0,0,1,1.51-.49,3.15,3.15,0,0,1,.67.06Z"/><path class="cls-9" d="M119.57,163.72l.37,2.28a6.55,6.55,0,0,1-2.78.48,5.32,5.32,0,0,1-3.82-1.35,5.56,5.56,0,0,1,.18-7.69,5.92,5.92,0,0,1,4.07-1.38,6.72,6.72,0,0,1,2.37.39l-.49,2.3a4.5,4.5,0,0,0-1.73-.3,2.55,2.55,0,0,0-2,.77,2.83,2.83,0,0,0-.72,2,2.8,2.8,0,0,0,.74,2,2.65,2.65,0,0,0,2,.77A4.87,4.87,0,0,0,119.57,163.72Z"/><path class="cls-9" d="M130.45,162.26H124a1.74,1.74,0,0,0,1,1.48,3.79,3.79,0,0,0,1.82.41,8.9,8.9,0,0,0,2.75-.41l.41,2.1a9.45,9.45,0,0,1-3.6.64,5.45,5.45,0,0,1-3.86-1.31,4.9,4.9,0,0,1-1.46-3.78,5.57,5.57,0,0,1,1.22-3.61,4.63,4.63,0,0,1,3.81-1.71,4,4,0,0,1,3.42,1.55,5.5,5.5,0,0,1,1,3.42A6.19,6.19,0,0,1,130.45,162.26ZM124,160.14h3.67a2.37,2.37,0,0,0-.35-1.28,1.56,1.56,0,0,0-1.41-.74,1.67,1.67,0,0,0-1.34.62A2.5,2.5,0,0,0,124,160.14Z"/><path class="cls-9" d="M136.05,166.25h-3.11V154.88a1,1,0,0,0-.56-1,3.59,3.59,0,0,0-1.22-.14v-1.94h4.89Z"/><path class="cls-9" d="M148.64,166.25h-4.42l-.18-1H144a3.46,3.46,0,0,1-2.85,1.22,3.2,3.2,0,0,1-2.38-.93,3,3,0,0,1-.85-2.13,3.18,3.18,0,0,1,1.6-2.89,8.09,8.09,0,0,1,4.25-.94v-.13q0-1.29-1.82-1.28a5.31,5.31,0,0,0-2.76.74l-.57-2a7.68,7.68,0,0,1,3.87-.9q4.37,0,4.37,4.31v2.79a1,1,0,0,0,.56,1,3.46,3.46,0,0,0,1.23.15Zm-4.8-3.62v-1.1q-2.89,0-2.89,1.57a1.07,1.07,0,0,0,1.22,1.19,1.66,1.66,0,0,0,1-.33,1.57,1.57,0,0,0,.6-.82A1.83,1.83,0,0,0,143.84,162.63Z"/><path class="cls-9" d="M156.79,161.16v-8.64h3.1v8.68q0,5.29-4.9,5.29a6.86,6.86,0,0,1-2.26-.33l.35-2.51a5.39,5.39,0,0,0,1.59.24,1.9,1.9,0,0,0,1.72-.78A3.76,3.76,0,0,0,156.79,161.16Z"/><path class="cls-9" d="M170.68,160.36v3.46a15.62,15.62,0,0,0,.14,2.43H168l-.19-1h-.06a3.46,3.46,0,0,1-2.85,1.22,3.15,3.15,0,0,1-2.37-.95,2.92,2.92,0,0,1-.86-2.12,3.23,3.23,0,0,1,2-3.1,8.92,8.92,0,0,1,3.86-.72v-.14q0-1.28-1.81-1.28a5.21,5.21,0,0,0-2.76.76l-.57-2a7.83,7.83,0,0,1,3.87-.88Q170.68,156.06,170.68,160.36Zm-3,2.26v-1.08q-2.9,0-2.9,1.57,0,1.17,1.22,1.17a1.76,1.76,0,0,0,1-.31,1.46,1.46,0,0,0,.61-.83A1.93,1.93,0,0,0,167.66,162.62ZM166.84,152h2.86l-2.49,3.11h-2.12Z"/><rect class="cls-16" x="29.57" y="481.86" width="48.6" height="31.84" rx="8" ry="8"/><rect class="cls-17" x="88.66" y="481.86" width="48.6" height="31.84" rx="8" ry="8"/><polygon class="cls-9" points="182.91 492.55 179.55 489.19 169.35 499.65 164.56 495.12 161.21 498.48 169.35 506.37 182.91 492.55"/><g class="cls-18"><rect x="147.76" y="483.16" width="48.6" height="31.84" rx="8" ry="8"/></g><rect class="cls-2" x="147.76" y="481.86" width="48.6" height="31.84" rx="8" ry="8"/><path class="cls-19" d="M164.77,504.31h0a5.87,5.87,0,0,1-4.66-2,7.12,7.12,0,0,1-1.68-4.86,7.3,7.3,0,0,1,1.74-5,6.15,6.15,0,0,1,4.82-2.05,6,6,0,0,1,4.74,2,7,7,0,0,1,1.66,4.79,7.43,7.43,0,0,1-1.7,5.09A6.21,6.21,0,0,1,164.77,504.31Zm.11-2.42h0a2.76,2.76,0,0,0,2.53-1.53,6.13,6.13,0,0,0,.7-3,5.8,5.8,0,0,0-.73-3,2.87,2.87,0,0,0-5.06,0,6,6,0,0,0-.72,3,5.87,5.87,0,0,0,.73,3A2.78,2.78,0,0,0,164.88,501.89Z"/><path class="cls-19" d="M173.37,504.09V490.61h3v6h.06q.49-.85.93-1.48l3.06-4.47h3.74l-4.46,5.73,4.7,7.74h-3.55l-3.3-5.82-1.16,1.42v4.4Z"/><circle class="cls-2" cx="112.96" cy="279.22" r="27.8"/><polygon class="cls-9" points="131.96 271.6 126.26 265.9 108.94 283.65 100.83 275.96 95.13 281.66 108.94 295.05 131.96 271.6"/><line class="cls-20" x1="138.92" y1="253.26" x2="149.38" y2="242.8"/><line class="cls-20" x1="149.68" y1="279.22" x2="161.06" y2="279.22"/><line class="cls-20" x1="138.92" y1="305.18" x2="149.38" y2="315.64"/><line class="cls-20" x1="112.96" y1="315.94" x2="112.96" y2="327.31"/><line class="cls-20" x1="87" y1="305.18" x2="76.54" y2="315.64"/><line class="cls-20" x1="76.25" y1="279.22" x2="64.87" y2="279.22"/><line class="cls-20" x1="87" y1="253.26" x2="76.54" y2="242.8"/><line class="cls-20" x1="112.96" y1="242.51" x2="112.96" y2="231.13"/><circle class="cls-2" cx="112.96" cy="279.22" r="27.8"/><rect class="cls-9" x="91.37" y="275.25" width="42.59" height="7.28" rx="0.27" ry="0.27"/><path class="cls-9" d="M119.09,290.75a6.43,6.43,0,1,1-6.43-6.43,6.43,6.43,0,0,1,6.43,6.43Zm0,0"/><path class="cls-9" d="M119.09,266.52a6.43,6.43,0,1,1-6.43-6.43,6.43,6.43,0,0,1,6.43,6.43Zm0,.56"/><line class="cls-4" x1="29.57" y1="200.19" x2="196.36" y2="200.19"/><g class="cls-13"><polygon class="cls-21" points="162.95 74 153.29 83.67 143.62 74 133.96 83.67 124.29 74 114.63 83.67 104.96 74 95.3 83.67 85.63 74 75.97 83.67 66.3 74 56.64 83.67 46.97 74 37.31 83.67 27.64 74 27.64 206.19 182.28 206.19 182.28 74 172.62 83.67 162.95 74"/></g><polygon class="cls-22" points="170.95 68 161.29 77.67 151.62 68 141.96 77.67 132.29 68 122.63 77.67 112.96 68 103.3 77.67 93.63 68 83.97 77.67 74.3 68 64.64 77.67 54.97 68 45.31 77.67 35.64 68 35.64 200.19 190.28 200.19 190.28 68 180.62 77.67 170.95 68"/><line class="cls-23" x1="101.33" y1="139.3" x2="136.21" y2="139.3"/><line class="cls-23" x1="50.32" y1="139.3" x2="88.8" y2="139.3"/><line class="cls-23" x1="50.32" y1="155.78" x2="112.96" y2="155.78"/><line class="cls-23" x1="151.31" y1="172.26" x2="175.61" y2="172.26"/><line class="cls-23" x1="125.03" y1="155.78" x2="164.56" y2="155.78"/><line class="cls-23" x1="50.32" y1="172.26" x2="139.21" y2="172.26"/><line class="cls-23" x1="50.32" y1="122.83" x2="114.59" y2="122.83"/><rect class="cls-24" x="49.56" y="530.26" width="126.81" height="14.84"/></g></g></g></svg>