<svg xmlns="http://www.w3.org/2000/svg" xmlns:xlink="http://www.w3.org/1999/xlink" viewBox="0 0 406 632"><defs><style>.cls-1,.cls-12{fill:none;}.cls-2{isolation:isolate;}.cls-3{fill:#294d74;}.cls-4{fill:#e6e7ee;}.cls-5{clip-path:url(#clip-path);}.cls-6{fill:#d9dbe5;stroke:#d9dbe5;stroke-width:2.26px;}.cls-12,.cls-6{stroke-linecap:round;stroke-linejoin:round;}.cls-7{fill:#7a9a2b;}.cls-8{fill:#fff;}.cls-9{fill:url(#linear-gradient);}.cls-10{opacity:0.03;}.cls-10,.cls-15{mix-blend-mode:multiply;}.cls-11{fill:#a9aec3;}.cls-12{stroke:#7a86a3;stroke-width:6.63px;}.cls-13{fill:#5b6e90;}.cls-14{fill:#73809f;}.cls-15{opacity:0.5;}.cls-16{fill:#3c3c3b;}.cls-17{fill:#f8f8fa;}</style><clipPath id="clip-path"><circle id="SVGID" class="cls-1" cx="253.07" cy="138.8" r="99.83"/></clipPath><linearGradient id="linear-gradient" x1="255.67" y1="121.14" x2="255.67" y2="24.31" gradientUnits="userSpaceOnUse"><stop offset="0" stop-color="#294d74" stop-opacity="0"/><stop offset="0.09" stop-color="#294d74" stop-opacity="0.18"/><stop offset="0.26" stop-color="#294d74" stop-opacity="0.48"/><stop offset="0.44" stop-color="#294d74" stop-opacity="0.71"/><stop offset="0.62" stop-color="#294d74" stop-opacity="0.87"/><stop offset="0.8" stop-color="#294d74" stop-opacity="0.97"/><stop offset="1" stop-color="#294d74"/></linearGradient></defs><title>step1-whiteBG</title><g class="cls-2"><g id="Layer_2" data-name="Layer 2"><g id="img_1.3_passos_WHITE" data-name="img 1.3 passos WHITE"><rect class="cls-1" width="406" height="632"/><g id="SVGID-2" data-name="SVGID"><path class="cls-3" d="M253.07,241.63A102.83,102.83,0,1,1,355.9,138.8,102.95,102.95,0,0,1,253.07,241.63Z"/><path class="cls-4" d="M253.07,39a99.83,99.83,0,1,1-99.83,99.83A99.83,99.83,0,0,1,253.07,39m0-6A105.83,105.83,0,1,0,358.9,138.8,105.95,105.95,0,0,0,253.07,33Z"/></g><g class="cls-5"><path class="cls-6" d="M360.52,232.23c0,18.93-10.75,50.13-45,50.13S265,253.51,261.76,236.44c0,0-6.65-49-6.79-50.08-.43-3.33,1.6-4.53,3.12-4.88,3.22-.73,6.47-.67,9.13,1.09a14.13,14.13,0,0,1,5.55,8.31l3.62,19.69c.33,1.75,1.27,3.58,2.91,3.15s1.67-3.49,1.64-5.87l.39-73.78a7.92,7.92,0,0,1,15.79,0s1.1,51.75,1,53.54c-.07,2,.11,5,1.7,5s1.76-3.69,1.76-3.7l.78-11.31a7.92,7.92,0,0,1,15.79,0l.54,9.95c.06,1.65.34,5.07,2.1,5.07s2-4.72,2-4.73l.62-5.1a7.92,7.92,0,0,1,15.79,0l.5,4.94c0,2.26.31,4.89,1.77,4.89s2.44-3.69,2.44-3.69c1.18-4.46,3.51-6.4,7.87-6.73s8.15,3.45,8.49,8.58C360.55,194.22,360.52,232.23,360.52,232.23Z"/><circle class="cls-7" cx="184.65" cy="142.52" r="12"/><polygon class="cls-8" points="192.85 139.23 190.39 136.77 182.91 144.43 179.41 141.11 176.95 143.57 182.91 149.35 192.85 139.23"/><path class="cls-8" d="M202.36,28.72h8.16l2.32,3.87q.12.19,1.92,3.52h.09q1.24-2.6,1.8-3.61l2.09-3.77h7.9L218.93,39.9l7.83,12.28h-8.27L216.14,48q-1-1.73-1.83-3.61h-.14q-.7,1.57-1.78,3.61l-2.2,4.22h-8l8-12Z"/><path class="cls-8" d="M237.38,28.18a11.07,11.07,0,0,1,8.41,3.66,12.07,12.07,0,0,1,3.35,8.58A12.24,12.24,0,0,1,245.8,49a11.49,11.49,0,0,1-16.85,0,12.14,12.14,0,0,1-3.37-8.62,12.13,12.13,0,0,1,3.4-8.64A11.11,11.11,0,0,1,237.38,28.18Zm0,5.53a3.81,3.81,0,0,0-3.4,2.39,9.58,9.58,0,0,0,0,8.65,3.77,3.77,0,0,0,3.4,2.44,3.83,3.83,0,0,0,3.45-2.41,9.43,9.43,0,0,0,1-4.36,9.06,9.06,0,0,0-1-4.31A3.79,3.79,0,0,0,237.33,33.71Z"/><path class="cls-8" d="M251.14,60.29V54.62a20.85,20.85,0,0,0,3.16,0,12.15,12.15,0,0,0,6.14-1.9,9.36,9.36,0,0,0,3.94-5.81l-.14,0A8.39,8.39,0,0,1,258,49.11a9.35,9.35,0,0,1-9.7-9.7,10.56,10.56,0,0,1,3.49-8.09A11.75,11.75,0,0,1,260,28.18a10.78,10.78,0,0,1,8.88,3.91,14.56,14.56,0,0,1,2.93,9.47q0,8.51-4.43,13.38t-13,5.34A28.75,28.75,0,0,1,251.14,60.29Zm8.7-26.79h0a3.72,3.72,0,0,0-3.26,1.73,6.43,6.43,0,0,0-1,3.7,5.51,5.51,0,0,0,1.13,3.52,4,4,0,0,0,3.3,1.48q3.26,0,4.17-2.32a4,4,0,0,0,.23-1.52,8.72,8.72,0,0,0-1.05-4.57A3.83,3.83,0,0,0,259.84,33.5Z"/><path class="cls-8" d="M202.36,62.73h8.16l2.32,3.87q.12.19,1.92,3.52h.09q1.24-2.6,1.8-3.61l2.09-3.77h7.9l-7.71,11.18,7.83,12.28h-8.27L216.14,82q-1-1.73-1.83-3.61h-.14q-.7,1.57-1.78,3.61l-2.2,4.22h-8l8-12Z"/><path class="cls-8" d="M235.37,86.19v-17h-.09l-6,2.84-1.2-5.48,8.25-3.89h6V86.19Z"/><path class="cls-8" d="M260.17,62.19a11.07,11.07,0,0,1,8.41,3.66,12.07,12.07,0,0,1,3.35,8.58,12.24,12.24,0,0,1-3.35,8.63,11.49,11.49,0,0,1-16.85,0,12.69,12.69,0,0,1,0-17.26A11.11,11.11,0,0,1,260.17,62.19Zm0,5.53a3.81,3.81,0,0,0-3.4,2.39,9.58,9.58,0,0,0,0,8.65,3.77,3.77,0,0,0,3.4,2.44,3.83,3.83,0,0,0,3.45-2.41,9.43,9.43,0,0,0,1-4.36,9.06,9.06,0,0,0-1-4.31A3.79,3.79,0,0,0,260.12,67.72Z"/><path class="cls-8" d="M202.36,96.74h8.16l2.32,3.87q.12.19,1.92,3.52h.09q1.24-2.6,1.8-3.61l2.09-3.77h7.9l-7.71,11.18,7.83,12.28h-8.27L216.14,116q-1-1.73-1.83-3.61h-.14q-.7,1.57-1.78,3.61l-2.2,4.22h-8l8-12Z"/><path class="cls-8" d="M235.37,120.2v-17h-.09l-6,2.84-1.2-5.48,8.25-3.89h6V120.2Z"/><path class="cls-8" d="M258.15,120.2v-17h-.09l-6,2.84-1.2-5.48,8.25-3.89h6V120.2Z"/><path class="cls-7" d="M202.36,130.75h8.16l2.32,3.87q.12.19,1.92,3.52h.09q1.24-2.6,1.8-3.61l2.09-3.77h7.9l-7.71,11.18,7.83,12.28h-8.27L216.14,150q-1-1.73-1.83-3.61h-.14q-.7,1.57-1.78,3.61l-2.2,4.22h-8l8-12Z"/><path class="cls-7" d="M235.37,154.21v-17h-.09l-6,2.84-1.2-5.48,8.25-3.89h6v23.53Z"/><path class="cls-7" d="M271,154.21H248.85V149.8l7.83-5.11q6.33-4.2,6.33-5.46,0-3.26-4.59-3.26a12.5,12.5,0,0,0-6.54,1.88l-1.48-5.3a17.69,17.69,0,0,1,9.63-2.34,13.08,13.08,0,0,1,7,1.78,6.67,6.67,0,0,1,3.42,6,8.43,8.43,0,0,1-2.7,6.42,32,32,0,0,1-6,3.8H271Z"/><rect class="cls-9" x="146.03" y="24.31" width="219.26" height="96.83"/></g><g class="cls-10"><path d="M200.92,585.94A22.09,22.09,0,0,1,178.83,608H23.09A22.09,22.09,0,0,1,1,585.94V223.83a22.09,22.09,0,0,1,22.09-22.09H178.83a22.09,22.09,0,0,1,22.09,22.09v362.1Z"/></g><path class="cls-11" d="M212.92,570.94A22.09,22.09,0,0,1,190.83,593H35.09A22.09,22.09,0,0,1,13,570.94V208.83a22.09,22.09,0,0,1,22.09-22.09H190.83a22.09,22.09,0,0,1,22.09,22.09v362.1Z"/><rect class="cls-4" x="29.57" y="502.3" width="48.6" height="31.84" rx="8" ry="8"/><rect class="cls-4" x="88.66" y="502.3" width="48.6" height="31.84" rx="8" ry="8"/><rect class="cls-4" x="147.76" y="502.3" width="48.6" height="31.84" rx="8" ry="8"/><rect class="cls-4" x="29.57" y="459.97" width="48.6" height="31.84" rx="8" ry="8"/><rect class="cls-4" x="88.66" y="459.97" width="48.6" height="31.84" rx="8" ry="8"/><rect class="cls-4" x="147.76" y="459.97" width="48.6" height="31.84" rx="8" ry="8"/><rect class="cls-4" x="29.57" y="417.64" width="48.6" height="31.84" rx="8" ry="8"/><rect class="cls-4" x="88.66" y="417.64" width="48.6" height="31.84" rx="8" ry="8"/><rect class="cls-4" x="147.76" y="417.64" width="48.6" height="31.84" rx="8" ry="8"/><line class="cls-12" x1="29.57" y1="262.96" x2="196.36" y2="262.96"/><g id="line"><rect class="cls-8" x="50.17" y="234.93" width="121.56" height="1.56"/></g><g id="paracela_ja" data-name="paracela ja"><path class="cls-8" d="M175.75,217.93a1.64,1.64,0,1,1-1.64-1.67,1.64,1.64,0,0,1,1.64,1.67Zm-3,0a1.39,1.39,0,0,0,1.33,1.45h.06a1.46,1.46,0,0,0,0-2.91h0a1.4,1.4,0,0,0-1.38,1.47Zm2-.63a1.18,1.18,0,0,0-.52-.13.69.69,0,0,0-.77.75.72.72,0,0,0,.68.76h.09a1.06,1.06,0,0,0,.55-.14l.07.21a1.24,1.24,0,0,1-.67.17.94.94,0,0,1-1-1,1,1,0,0,1,1-1h0a1.07,1.07,0,0,1,.6.15Z"/></g><path id="car" class="cls-8" d="M60,231.62a1.71,1.71,0,1,1-1.71-1.71h0A1.71,1.71,0,0,1,60,231.62Zm9.19-1.71a1.71,1.71,0,1,0,1.71,1.71A1.71,1.71,0,0,0,69.23,229.91Zm5.14-12.07L73.55,220H56.94a0,0,0,0,0,0,0v2a0,0,0,0,0,0,0H72.75l-2.34,6a1.72,1.72,0,0,1-1.53.91H58a1.47,1.47,0,0,1-1.41-.93l-2.5-9.88L52,215.88l0,0h-1.3a.45.45,0,0,1-.49-.4V215a.45.45,0,0,1,.49-.39h2.52a.52.52,0,0,1,.42.2.38.38,0,0,1,.11.08l1.9,2.08H73.55C74.2,216.93,74.57,217.34,74.37,217.84ZM58.82,225.4a0,0,0,0,0,0,0H70a0,0,0,0,0,0,0v-2a0,0,0,0,0,0,0H58.85a0,0,0,0,0,0,0Z"/><g id="circle"><circle class="cls-8" cx="72.59" cy="217.96" r="6.55"/><path class="cls-11" d="M67.51,218.71v-1.65a0,0,0,0,1,0,0h10a0,0,0,0,1,0,0v1.66a0,0,0,0,1,0,0h-10A0,0,0,0,1,67.51,218.71ZM74,220.54a1.51,1.51,0,1,0-1.51,1.52A1.51,1.51,0,0,0,74,220.54h0Zm0-5.44a1.51,1.51,0,1,0-1.51,1.52A1.51,1.51,0,0,0,74,215.1h0"/></g><path class="cls-8" d="M81.09,229V215.46a26.06,26.06,0,0,1,4.2-.29,7.33,7.33,0,0,1,3.89.9A3.7,3.7,0,0,1,91,219.46a4.26,4.26,0,0,1-1.26,3.27,6.27,6.27,0,0,1-4.46,1.45,7.26,7.26,0,0,1-1.07-.07V229Zm3.08-11.4v4.08a5.23,5.23,0,0,0,1,.08,3.08,3.08,0,0,0,1.87-.53,2,2,0,0,0,.8-1.71q0-2-2.43-2A6.3,6.3,0,0,0,84.16,217.62Z"/><path class="cls-8" d="M102.91,229H98.49l-.18-1h-.07a3.46,3.46,0,0,1-2.85,1.22,3.2,3.2,0,0,1-2.38-.93,3,3,0,0,1-.85-2.13,3.18,3.18,0,0,1,1.6-2.89,8.09,8.09,0,0,1,4.25-.94v-.13q0-1.29-1.82-1.28a5.31,5.31,0,0,0-2.76.74l-.57-2a7.68,7.68,0,0,1,3.87-.9q4.37,0,4.37,4.31v2.79a1,1,0,0,0,.56,1,3.46,3.46,0,0,0,1.23.15Zm-4.8-3.62v-1.1q-2.89,0-2.89,1.57a1.07,1.07,0,0,0,1.22,1.19,1.66,1.66,0,0,0,1-.33,1.57,1.57,0,0,0,.6-.82A1.83,1.83,0,0,0,98.11,225.4Z"/><path class="cls-8" d="M110.83,221.79a4.21,4.21,0,0,0-.85-.09,1.9,1.9,0,0,0-2.12,1.58,3.25,3.25,0,0,0-.06.69v5h-3.11v-6.89a1,1,0,0,0-.56-1,3.42,3.42,0,0,0-1.22-.15V219h4.36l.12,1.84h.08a3.14,3.14,0,0,1,1.17-1.58,2.62,2.62,0,0,1,1.51-.49,3.15,3.15,0,0,1,.67.06Z"/><path class="cls-8" d="M119.57,226.49l.37,2.28a6.55,6.55,0,0,1-2.78.48,5.32,5.32,0,0,1-3.82-1.35,5.56,5.56,0,0,1,.18-7.69,5.92,5.92,0,0,1,4.07-1.38,6.72,6.72,0,0,1,2.37.39l-.49,2.3a4.5,4.5,0,0,0-1.73-.3,2.55,2.55,0,0,0-2,.77,2.83,2.83,0,0,0-.72,2,2.8,2.8,0,0,0,.74,2,2.65,2.65,0,0,0,2,.77A4.87,4.87,0,0,0,119.57,226.49Z"/><path class="cls-8" d="M130.45,225H124a1.74,1.74,0,0,0,1,1.48,3.79,3.79,0,0,0,1.82.41,8.9,8.9,0,0,0,2.75-.41l.41,2.1a9.45,9.45,0,0,1-3.6.64,5.45,5.45,0,0,1-3.86-1.31,4.9,4.9,0,0,1-1.46-3.78,5.57,5.57,0,0,1,1.22-3.61,4.63,4.63,0,0,1,3.81-1.71,4,4,0,0,1,3.42,1.55,5.5,5.5,0,0,1,1,3.42A6.19,6.19,0,0,1,130.45,225ZM124,222.91h3.67a2.37,2.37,0,0,0-.35-1.28,1.56,1.56,0,0,0-1.41-.74,1.67,1.67,0,0,0-1.34.62A2.5,2.5,0,0,0,124,222.91Z"/><path class="cls-8" d="M136.05,229h-3.11V217.65a1,1,0,0,0-.56-1,3.59,3.59,0,0,0-1.22-.14v-1.94h4.89Z"/><path class="cls-8" d="M148.64,229h-4.42l-.18-1H144a3.46,3.46,0,0,1-2.85,1.22,3.2,3.2,0,0,1-2.38-.93,3,3,0,0,1-.85-2.13,3.18,3.18,0,0,1,1.6-2.89,8.09,8.09,0,0,1,4.25-.94v-.13q0-1.29-1.82-1.28a5.31,5.31,0,0,0-2.76.74l-.57-2a7.68,7.68,0,0,1,3.87-.9q4.37,0,4.37,4.31v2.79a1,1,0,0,0,.56,1,3.46,3.46,0,0,0,1.23.15Zm-4.8-3.62v-1.1q-2.89,0-2.89,1.57a1.07,1.07,0,0,0,1.22,1.19,1.66,1.66,0,0,0,1-.33,1.57,1.57,0,0,0,.6-.82A1.83,1.83,0,0,0,143.84,225.4Z"/><path class="cls-8" d="M156.79,223.93v-8.64h3.1V224q0,5.29-4.9,5.29a6.86,6.86,0,0,1-2.26-.33l.35-2.51a5.39,5.39,0,0,0,1.59.24,1.9,1.9,0,0,0,1.72-.78A3.76,3.76,0,0,0,156.79,223.93Z"/><path class="cls-8" d="M170.68,223.13v3.46a15.62,15.62,0,0,0,.14,2.43H168l-.19-1h-.06a3.46,3.46,0,0,1-2.85,1.22,3.15,3.15,0,0,1-2.37-.95,2.92,2.92,0,0,1-.86-2.12,3.23,3.23,0,0,1,2-3.1,8.92,8.92,0,0,1,3.86-.72v-.14q0-1.28-1.81-1.28a5.21,5.21,0,0,0-2.76.76l-.57-2a7.83,7.83,0,0,1,3.87-.88Q170.68,218.83,170.68,223.13Zm-3,2.26v-1.08q-2.9,0-2.9,1.57,0,1.17,1.22,1.17a1.76,1.76,0,0,0,1-.31,1.46,1.46,0,0,0,.61-.83A1.93,1.93,0,0,0,167.66,225.39Zm-.82-10.64h2.86l-2.49,3.11h-2.12Z"/><rect class="cls-13" x="29.57" y="544.63" width="48.6" height="31.84" rx="8" ry="8"/><rect class="cls-14" x="88.66" y="544.63" width="48.6" height="31.84" rx="8" ry="8"/><g class="cls-15"><rect x="147.76" y="545.93" width="48.6" height="31.84" rx="8" ry="8"/></g><rect class="cls-7" x="147.76" y="544.63" width="48.6" height="31.84" rx="8" ry="8"/><polygon class="cls-1" points="182.91 555.32 179.55 551.96 169.35 562.42 164.56 557.89 161.21 561.25 169.35 569.14 182.91 555.32"/><path class="cls-8" d="M165.37,567.06h0a5.31,5.31,0,0,1-4.21-1.81,6.44,6.44,0,0,1-1.52-4.4,6.6,6.6,0,0,1,1.57-4.53,5.56,5.56,0,0,1,4.36-1.85,5.42,5.42,0,0,1,4.28,1.83,6.34,6.34,0,0,1,1.5,4.33,6.72,6.72,0,0,1-1.54,4.6A5.61,5.61,0,0,1,165.37,567.06Zm.1-2.19h0a2.49,2.49,0,0,0,2.29-1.39,5.54,5.54,0,0,0,.64-2.75,5.24,5.24,0,0,0-.66-2.71,2.59,2.59,0,0,0-4.57,0,5.4,5.4,0,0,0-.65,2.75,5.3,5.3,0,0,0,.66,2.73A2.51,2.51,0,0,0,165.47,564.87Z"/><path class="cls-8" d="M173.15,566.86V554.67h2.73v5.38h.05q.44-.77.84-1.34l2.76-4h3.38l-4,5.18,4.25,7h-3.21l-3-5.26-1.05,1.28v4Z"/><rect class="cls-16" x="29.57" y="282.9" width="166.79" height="118.18" rx="8" ry="8"/><path class="cls-17" d="M58.12,363.18v-13.3a25.52,25.52,0,0,1,4.12-.28,7.19,7.19,0,0,1,3.82.88,3.63,3.63,0,0,1,1.74,3.32,4.18,4.18,0,0,1-1.24,3.2,6.15,6.15,0,0,1-4.38,1.43,7.17,7.17,0,0,1-1-.07v4.82Zm3-11.18v4a5.12,5.12,0,0,0,1,.08,3,3,0,0,0,1.84-.52,2,2,0,0,0,.78-1.68q0-2-2.38-2A6.19,6.19,0,0,0,61.14,352Z"/><path class="cls-17" d="M79.53,363.18H75.2l-.18-1H75a3.39,3.39,0,0,1-2.79,1.2,3.14,3.14,0,0,1-2.33-.91,2.89,2.89,0,0,1-.83-2.09,3.12,3.12,0,0,1,1.57-2.83,7.94,7.94,0,0,1,4.17-.92v-.13q0-1.27-1.79-1.26a5.21,5.21,0,0,0-2.71.72l-.56-1.94a7.54,7.54,0,0,1,3.8-.88q4.29,0,4.29,4.23v2.73a1,1,0,0,0,.55,1,3.39,3.39,0,0,0,1.21.15Zm-4.71-3.55v-1.07q-2.83,0-2.83,1.54a1,1,0,0,0,1.2,1.17,1.63,1.63,0,0,0,1-.32,1.54,1.54,0,0,0,.59-.8A1.79,1.79,0,0,0,74.82,359.63Z"/><path class="cls-17" d="M87.29,356.09a4.15,4.15,0,0,0-.83-.09,1.86,1.86,0,0,0-2.08,1.55,3.19,3.19,0,0,0-.06.67v5h-3v-6.76a1,1,0,0,0-.55-1,3.35,3.35,0,0,0-1.2-.15V353.4h4.28l.12,1.81H84a3.08,3.08,0,0,1,1.15-1.55,2.57,2.57,0,0,1,1.48-.48,3.08,3.08,0,0,1,.65.06Z"/><path class="cls-17" d="M95.87,360.7l.36,2.24a6.43,6.43,0,0,1-2.72.47,5.22,5.22,0,0,1-3.75-1.33,5.46,5.46,0,0,1,.18-7.54,5.8,5.8,0,0,1,4-1.36,6.6,6.6,0,0,1,2.32.38l-.48,2.26a4.41,4.41,0,0,0-1.7-.29,2.5,2.5,0,0,0-1.92.76,2.77,2.77,0,0,0-.71,2,2.74,2.74,0,0,0,.73,2,2.6,2.6,0,0,0,2,.75A4.78,4.78,0,0,0,95.87,360.7Z"/><path class="cls-17" d="M106.54,359.27h-6.3a1.7,1.7,0,0,0,1,1.46,3.71,3.71,0,0,0,1.79.4,8.73,8.73,0,0,0,2.7-.4l.4,2.06a9.27,9.27,0,0,1-3.54.63,5.35,5.35,0,0,1-3.79-1.29,4.8,4.8,0,0,1-1.44-3.71,5.46,5.46,0,0,1,1.2-3.54,4.54,4.54,0,0,1,3.74-1.68,4,4,0,0,1,3.36,1.52,5.39,5.39,0,0,1,1,3.36A6.11,6.11,0,0,1,106.54,359.27Zm-6.32-2.08h3.6a2.33,2.33,0,0,0-.34-1.26,1.53,1.53,0,0,0-1.39-.72,1.64,1.64,0,0,0-1.32.61A2.46,2.46,0,0,0,100.22,357.19Z"/><path class="cls-17" d="M112,363.18h-3V352a1,1,0,0,0-.55-1,3.52,3.52,0,0,0-1.2-.14V349H112Z"/><path class="cls-17" d="M124.38,363.18H120l-.18-1h-.07a3.39,3.39,0,0,1-2.79,1.2,3.14,3.14,0,0,1-2.33-.91,2.89,2.89,0,0,1-.83-2.09,3.12,3.12,0,0,1,1.57-2.83,7.94,7.94,0,0,1,4.17-.92v-.13q0-1.27-1.79-1.26a5.21,5.21,0,0,0-2.71.72l-.56-1.94a7.54,7.54,0,0,1,3.8-.88q4.29,0,4.29,4.23v2.73a1,1,0,0,0,.55,1,3.39,3.39,0,0,0,1.21.15Zm-4.71-3.55v-1.07q-2.83,0-2.83,1.54a1,1,0,0,0,1.2,1.17,1.63,1.63,0,0,0,1-.32,1.54,1.54,0,0,0,.59-.8A1.79,1.79,0,0,0,119.68,359.63Z"/><path class="cls-17" d="M132.15,356.09a4.15,4.15,0,0,0-.83-.09,1.86,1.86,0,0,0-2.08,1.55,3.19,3.19,0,0,0-.06.67v5h-3v-6.76a1,1,0,0,0-.55-1,3.35,3.35,0,0,0-1.2-.15V353.4h4.28l.12,1.81h.08a3.08,3.08,0,0,1,1.15-1.55,2.57,2.57,0,0,1,1.48-.48,3.08,3.08,0,0,1,.65.06Z"/><path class="cls-7" d="M136.7,353.41h3.4l1,1.61.8,1.46h0q.52-1.08.75-1.5l.87-1.57h3.29l-3.21,4.66,3.26,5.12h-3.45l-1-1.76q-.4-.72-.76-1.5h-.06q-.29.65-.74,1.5l-.92,1.76h-3.34l3.32-5Z"/><path class="cls-7" d="M151.65,363.18V356.1h0l-2.48,1.18-.5-2.29,3.44-1.62h2.52v9.8Z"/><path class="cls-7" d="M168.11,363.18h-9.24v-1.84l3.26-2.13q2.64-1.75,2.64-2.28,0-1.36-1.91-1.36a5.2,5.2,0,0,0-2.72.78l-.62-2.21a7.37,7.37,0,0,1,4-1,5.45,5.45,0,0,1,2.92.74,2.78,2.78,0,0,1,1.43,2.5,3.51,3.51,0,0,1-1.12,2.68,13.34,13.34,0,0,1-2.48,1.58h3.84Z"/><path class="cls-17" d="M69.65,382.65l.54-2.18a4.88,4.88,0,0,0,2.63.73q1.3,0,1.3-.82a.86.86,0,0,0-.52-.75,6.63,6.63,0,0,0-.93-.36q-2.77-.93-2.77-2.94a2.81,2.81,0,0,1,1.25-2.43,4.64,4.64,0,0,1,2.72-.77,6.27,6.27,0,0,1,2.76.56l-.55,2.1a4.43,4.43,0,0,0-2.12-.56q-1.15,0-1.15.8,0,.59,1.57,1.12,2.66.9,2.67,3A2.73,2.73,0,0,1,76,382.43a5,5,0,0,1-3.17.93A6.5,6.5,0,0,1,69.65,382.65Z"/><path class="cls-17" d="M87.52,379.21h-6.3a1.7,1.7,0,0,0,1,1.46,3.71,3.71,0,0,0,1.79.4,8.73,8.73,0,0,0,2.7-.4l.4,2.06a9.27,9.27,0,0,1-3.54.63,5.35,5.35,0,0,1-3.79-1.29,4.8,4.8,0,0,1-1.44-3.71,5.46,5.46,0,0,1,1.2-3.54,4.54,4.54,0,0,1,3.74-1.68,4,4,0,0,1,3.36,1.52,5.39,5.39,0,0,1,1,3.36A6.11,6.11,0,0,1,87.52,379.21Zm-6.32-2.08h3.6a2.33,2.33,0,0,0-.34-1.26,1.53,1.53,0,0,0-1.39-.72,1.64,1.64,0,0,0-1.32.61A2.46,2.46,0,0,0,81.2,377.13Z"/><path class="cls-17" d="M104.75,383.13h-3v-5.32q0-2.24-1.44-2.24a1.4,1.4,0,0,0-1.41,1.06,2.38,2.38,0,0,0-.11.77v5.72h-3v-5.49q0-2.07-1.41-2.07A1.46,1.46,0,0,0,93,376.66a2.16,2.16,0,0,0-.12.77v5.69H90v-6.78a.93.93,0,0,0-.55-1,3.35,3.35,0,0,0-1.2-.15v-1.89h4.24l.13,1.32h.07a3.33,3.33,0,0,1,2.95-1.54,2.64,2.64,0,0,1,2.69,1.68h0a4.23,4.23,0,0,1,1.27-1.19,3.52,3.52,0,0,1,1.86-.49,2.92,2.92,0,0,1,2.34,1,4.87,4.87,0,0,1,.95,3.22Z"/><path class="cls-17" d="M114.64,382q0,3-1.38,4.29a5.36,5.36,0,0,1-3.78,1.19l-.29-2.37a2.78,2.78,0,0,0,1.8-.64q.6-.62.61-3.19V376.4a1,1,0,0,0-.55-1,3.52,3.52,0,0,0-1.2-.14v-1.9h4.79Zm.19-11.51a1.53,1.53,0,0,1-.47,1.15,1.69,1.69,0,0,1-1.25.48h0a1.65,1.65,0,0,1-1.23-.48,1.66,1.66,0,0,1,0-2.31,1.72,1.72,0,0,1,1.24-.46,1.68,1.68,0,0,1,1.23.46A1.59,1.59,0,0,1,114.82,370.45Z"/><path class="cls-17" d="M128.6,383.13h-4.32l-.14-1.39h-.06a3.37,3.37,0,0,1-3.06,1.61,3.13,3.13,0,0,1-2.46-1,4.78,4.78,0,0,1-1-3.26v-2.71a1,1,0,0,0-.55-1,3.3,3.3,0,0,0-1.2-.15v-1.89h4.79v5.25q0,2.29,1.53,2.29a1.53,1.53,0,0,0,1.51-1.07,1.63,1.63,0,0,0,.12-.64v-5.83h3v6.77a1,1,0,0,0,.56,1,3.3,3.3,0,0,0,1.2.15Z"/><path class="cls-17" d="M136.37,376a4.15,4.15,0,0,0-.83-.09,1.86,1.86,0,0,0-2.08,1.55,3.19,3.19,0,0,0-.06.67v5h-3v-6.76a1,1,0,0,0-.55-1,3.35,3.35,0,0,0-1.2-.15v-1.89h4.28l.12,1.81h.08a3.08,3.08,0,0,1,1.15-1.55,2.57,2.57,0,0,1,1.48-.48,3.08,3.08,0,0,1,.65.06Z"/><path class="cls-17" d="M142.48,383.35h0a5,5,0,0,1-3.59-1.35,4.88,4.88,0,0,1-1.46-3.7,5.05,5.05,0,0,1,1.43-3.77,5.17,5.17,0,0,1,3.8-1.41,4.74,4.74,0,0,1,5,5,5,5,0,0,1-1.6,4A5.14,5.14,0,0,1,142.48,383.35Zm0-2.19h0a1.65,1.65,0,0,0,1.53-1,4.77,4.77,0,0,0,0-3.85,1.65,1.65,0,0,0-1.54-1,1.68,1.68,0,0,0-1.53.94,4,4,0,0,0-.47,2,4.16,4.16,0,0,0,.41,1.93A1.69,1.69,0,0,0,142.5,381.17Z"/><path class="cls-17" d="M148.92,382.65l.54-2.18a4.88,4.88,0,0,0,2.63.73q1.3,0,1.3-.82a.86.86,0,0,0-.52-.75,6.63,6.63,0,0,0-.93-.36q-2.77-.93-2.77-2.94a2.81,2.81,0,0,1,1.25-2.43,4.64,4.64,0,0,1,2.72-.77,6.27,6.27,0,0,1,2.76.56l-.55,2.1a4.43,4.43,0,0,0-2.12-.56q-1.15,0-1.15.8,0,.59,1.57,1.12,2.66.9,2.67,3a2.73,2.73,0,0,1-1.06,2.26,5,5,0,0,1-3.17.93A6.5,6.5,0,0,1,148.92,382.65Z"/><circle class="cls-7" cx="112.96" cy="318.8" r="22.26"/><polygon class="cls-8" points="128.18 312.7 123.61 308.13 109.74 322.35 103.24 316.19 98.68 320.75 109.74 331.48 128.18 312.7"/></g></g></g></svg>