<svg xmlns="http://www.w3.org/2000/svg" xmlns:xlink="http://www.w3.org/1999/xlink" viewBox="0 0 406 654"><defs><style>.cls-1,.cls-14{fill:none;}.cls-2{isolation:isolate;}.cls-3{fill:#294d74;}.cls-4{fill:#e6e7ee;}.cls-5{clip-path:url(#clip-path);}.cls-6{fill:#d9dbe5;stroke:#d9dbe5;stroke-width:2.26px;}.cls-14,.cls-6{stroke-linecap:round;stroke-linejoin:round;}.cls-7{fill:#7a9a2b;}.cls-18,.cls-8,.cls-9{fill:#fff;}.cls-9{font-size:48px;letter-spacing:-0.06em;}.cls-18,.cls-20,.cls-9{font-family:GrandesignNeueRoman-Bold, Grandesign Neue Roman;font-weight:700;}.cls-10{letter-spacing:-0.08em;}.cls-11{fill:url(#linear-gradient);}.cls-12{opacity:0.03;}.cls-12,.cls-17{mix-blend-mode:multiply;}.cls-13{fill:#a9aec3;}.cls-14{stroke:#7a86a3;stroke-width:6.63px;}.cls-15{fill:#5b6e90;}.cls-16{fill:#73809f;}.cls-17{opacity:0.5;}.cls-18{font-size:18.08px;}.cls-19{fill:#3c3c3b;}.cls-20{font-size:20px;fill:#f8f8fa;}</style><clipPath id="clip-path"><circle id="SVGID" class="cls-1" cx="253.07" cy="160.8" r="99.83"/></clipPath><linearGradient id="linear-gradient" x1="255.67" y1="143.13" x2="255.67" y2="46.3" gradientUnits="userSpaceOnUse"><stop offset="0" stop-color="#294d74" stop-opacity="0"/><stop offset="0.09" stop-color="#294d74" stop-opacity="0.18"/><stop offset="0.26" stop-color="#294d74" stop-opacity="0.48"/><stop offset="0.44" stop-color="#294d74" stop-opacity="0.71"/><stop offset="0.62" stop-color="#294d74" stop-opacity="0.87"/><stop offset="0.8" stop-color="#294d74" stop-opacity="0.97"/><stop offset="1" stop-color="#294d74"/></linearGradient></defs><title>step1-whiteBG</title><g class="cls-2"><g id="Layer_2" data-name="Layer 2"><g id="img_1.3_passos_WHITE" data-name="img 1.3 passos WHITE"><rect class="cls-1" y="22" width="406" height="632"/><g id="SVGID-2" data-name="SVGID"><path class="cls-3" d="M253.07,263.63A102.83,102.83,0,1,1,355.9,160.8,102.95,102.95,0,0,1,253.07,263.63Z"/><path class="cls-4" d="M253.07,61a99.83,99.83,0,1,1-99.83,99.83A99.83,99.83,0,0,1,253.07,61m0-6A105.83,105.83,0,1,0,358.9,160.8,105.95,105.95,0,0,0,253.07,55Z"/></g><g class="cls-5"><path class="cls-6" d="M360.52,254.22c0,18.93-10.75,50.13-45,50.13S265,275.5,261.76,258.44c0,0-6.65-49-6.79-50.08-.43-3.33,1.6-4.53,3.12-4.88,3.22-.73,6.47-.67,9.13,1.09a14.13,14.13,0,0,1,5.55,8.31l3.62,19.69c.33,1.75,1.27,3.58,2.91,3.15s1.67-3.49,1.64-5.87l.39-73.78a7.92,7.92,0,0,1,15.79,0s1.1,51.75,1,53.54c-.07,2,.11,5,1.7,5s1.76-3.69,1.76-3.7l.78-11.31a7.92,7.92,0,0,1,15.79,0l.54,9.95c.06,1.65.34,5.07,2.1,5.07s2-4.72,2-4.73l.62-5.1a7.92,7.92,0,0,1,15.79,0l.5,4.94c0,2.26.31,4.89,1.77,4.89s2.44-3.69,2.44-3.69c1.18-4.46,3.51-6.4,7.87-6.73s8.15,3.45,8.49,8.58C360.55,216.22,360.52,254.22,360.52,254.22Z"/><circle class="cls-7" cx="184.65" cy="164.52" r="12"/><polygon class="cls-8" points="192.85 161.23 190.39 158.77 182.91 166.43 179.41 163.11 176.95 165.57 182.91 171.35 192.85 161.23"/><text class="cls-9" transform="translate(201.08 40.17)">x08<tspan x="0.96" y="34.01">x</tspan><tspan class="cls-10" x="22.97" y="34.01">0</tspan><tspan x="45.76" y="34.01">9</tspan><tspan x="0.96" y="68.02">x</tspan><tspan class="cls-10" x="22.97" y="68.02">1</tspan><tspan x="45.76" y="68.02">0</tspan><tspan x="0.96" y="102.02">x</tspan><tspan class="cls-10" x="22.97" y="102.02">1</tspan><tspan x="45.76" y="102.02">1</tspan><tspan class="cls-7"><tspan x="0.96" y="136.03">x</tspan><tspan class="cls-10" x="22.97" y="136.03">1</tspan><tspan x="45.76" y="136.03">2</tspan></tspan></text><rect class="cls-11" x="146.03" y="46.3" width="219.26" height="96.83"/></g><g class="cls-12"><path d="M200.92,607.93A22.09,22.09,0,0,1,178.83,630H23.09A22.09,22.09,0,0,1,1,607.93V245.83a22.09,22.09,0,0,1,22.09-22.09H178.83a22.09,22.09,0,0,1,22.09,22.09v362.1Z"/></g><path class="cls-13" d="M212.92,592.93A22.09,22.09,0,0,1,190.83,615H35.09A22.09,22.09,0,0,1,13,592.93V230.83a22.09,22.09,0,0,1,22.09-22.09H190.83a22.09,22.09,0,0,1,22.09,22.09v362.1Z"/><rect class="cls-4" x="29.57" y="524.3" width="48.6" height="31.84" rx="8" ry="8"/><rect class="cls-4" x="88.66" y="524.3" width="48.6" height="31.84" rx="8" ry="8"/><rect class="cls-4" x="147.76" y="524.3" width="48.6" height="31.84" rx="8" ry="8"/><rect class="cls-4" x="29.57" y="481.97" width="48.6" height="31.84" rx="8" ry="8"/><rect class="cls-4" x="88.66" y="481.97" width="48.6" height="31.84" rx="8" ry="8"/><rect class="cls-4" x="147.76" y="481.97" width="48.6" height="31.84" rx="8" ry="8"/><rect class="cls-4" x="29.57" y="439.64" width="48.6" height="31.84" rx="8" ry="8"/><rect class="cls-4" x="88.66" y="439.64" width="48.6" height="31.84" rx="8" ry="8"/><rect class="cls-4" x="147.76" y="439.64" width="48.6" height="31.84" rx="8" ry="8"/><line class="cls-14" x1="29.57" y1="284.95" x2="196.36" y2="284.95"/><g id="line"><rect class="cls-8" x="50.17" y="256.93" width="121.56" height="1.56"/></g><g id="paracela_ja" data-name="paracela ja"><path class="cls-8" d="M175.75,239.93a1.64,1.64,0,1,1-1.64-1.67,1.64,1.64,0,0,1,1.64,1.67Zm-3,0a1.39,1.39,0,0,0,1.33,1.45h.06a1.46,1.46,0,0,0,0-2.91h0a1.4,1.4,0,0,0-1.38,1.47Zm2-.63a1.18,1.18,0,0,0-.52-.13.69.69,0,0,0-.77.75.72.72,0,0,0,.68.76h.09a1.06,1.06,0,0,0,.55-.14l.07.21a1.24,1.24,0,0,1-.67.17.94.94,0,0,1-1-1,1,1,0,0,1,1-1h0a1.07,1.07,0,0,1,.6.15Z"/></g><path id="car" class="cls-8" d="M60,253.62a1.71,1.71,0,1,1-1.71-1.71h0A1.71,1.71,0,0,1,60,253.62Zm9.19-1.71a1.71,1.71,0,1,0,1.71,1.71A1.71,1.71,0,0,0,69.23,251.91Zm5.14-12.07L73.55,242H56.94a0,0,0,0,0,0,0v2a0,0,0,0,0,0,0H72.75l-2.34,6a1.72,1.72,0,0,1-1.53.91H58a1.47,1.47,0,0,1-1.41-.93l-2.5-9.88L52,237.87l0,0h-1.3a.45.45,0,0,1-.49-.4V237a.45.45,0,0,1,.49-.39h2.52a.52.52,0,0,1,.42.2.38.38,0,0,1,.11.08l1.9,2.08H73.55C74.2,238.93,74.57,239.34,74.37,239.84ZM58.82,247.4a0,0,0,0,0,0,0H70a0,0,0,0,0,0,0v-2a0,0,0,0,0,0,0H58.85a0,0,0,0,0,0,0Z"/><g id="circle"><circle class="cls-8" cx="72.59" cy="239.96" r="6.55"/><path class="cls-13" d="M67.51,240.7v-1.65a0,0,0,0,1,0,0h10a0,0,0,0,1,0,0v1.66a0,0,0,0,1,0,0h-10A0,0,0,0,1,67.51,240.7ZM74,242.54a1.51,1.51,0,1,0-1.51,1.52A1.51,1.51,0,0,0,74,242.54h0Zm0-5.44a1.51,1.51,0,1,0-1.51,1.52A1.51,1.51,0,0,0,74,237.1h0"/></g><path class="cls-8" d="M81.09,251V237.46a26.06,26.06,0,0,1,4.2-.29,7.33,7.33,0,0,1,3.89.9A3.7,3.7,0,0,1,91,241.45a4.26,4.26,0,0,1-1.26,3.27,6.27,6.27,0,0,1-4.46,1.45,7.26,7.26,0,0,1-1.07-.07V251Zm3.08-11.4v4.08a5.23,5.23,0,0,0,1,.08,3.08,3.08,0,0,0,1.87-.53,2,2,0,0,0,.8-1.71q0-2-2.43-2A6.3,6.3,0,0,0,84.16,239.62Z"/><path class="cls-8" d="M102.91,251H98.49l-.18-1h-.07a3.46,3.46,0,0,1-2.85,1.22,3.2,3.2,0,0,1-2.38-.93,3,3,0,0,1-.85-2.13,3.18,3.18,0,0,1,1.6-2.89,8.09,8.09,0,0,1,4.25-.94v-.13q0-1.29-1.82-1.28a5.31,5.31,0,0,0-2.76.74l-.57-2a7.68,7.68,0,0,1,3.87-.9q4.37,0,4.37,4.31v2.79a1,1,0,0,0,.56,1,3.46,3.46,0,0,0,1.23.15Zm-4.8-3.62v-1.1q-2.89,0-2.89,1.57a1.07,1.07,0,0,0,1.22,1.19,1.66,1.66,0,0,0,1-.33,1.57,1.57,0,0,0,.6-.82A1.83,1.83,0,0,0,98.11,247.4Z"/><path class="cls-8" d="M110.83,243.79a4.21,4.21,0,0,0-.85-.09,1.9,1.9,0,0,0-2.12,1.58,3.25,3.25,0,0,0-.06.69v5h-3.11v-6.89a1,1,0,0,0-.56-1,3.42,3.42,0,0,0-1.22-.15V241h4.36l.12,1.84h.08a3.14,3.14,0,0,1,1.17-1.58,2.62,2.62,0,0,1,1.51-.49,3.15,3.15,0,0,1,.67.06Z"/><path class="cls-8" d="M119.57,248.49l.37,2.28a6.55,6.55,0,0,1-2.78.48,5.32,5.32,0,0,1-3.82-1.35,5.56,5.56,0,0,1,.18-7.69,5.92,5.92,0,0,1,4.07-1.38,6.72,6.72,0,0,1,2.37.39l-.49,2.3a4.5,4.5,0,0,0-1.73-.3,2.55,2.55,0,0,0-2,.77,2.83,2.83,0,0,0-.72,2,2.8,2.8,0,0,0,.74,2,2.65,2.65,0,0,0,2,.77A4.87,4.87,0,0,0,119.57,248.49Z"/><path class="cls-8" d="M130.45,247H124a1.74,1.74,0,0,0,1,1.48,3.79,3.79,0,0,0,1.82.41,8.9,8.9,0,0,0,2.75-.41l.41,2.1a9.45,9.45,0,0,1-3.6.64,5.45,5.45,0,0,1-3.86-1.31,4.9,4.9,0,0,1-1.46-3.78,5.57,5.57,0,0,1,1.22-3.61,4.63,4.63,0,0,1,3.81-1.71,4,4,0,0,1,3.42,1.55,5.5,5.5,0,0,1,1,3.42A6.19,6.19,0,0,1,130.45,247ZM124,244.91h3.67a2.37,2.37,0,0,0-.35-1.28,1.56,1.56,0,0,0-1.41-.74,1.67,1.67,0,0,0-1.34.62A2.5,2.5,0,0,0,124,244.91Z"/><path class="cls-8" d="M136.05,251h-3.11V239.65a1,1,0,0,0-.56-1,3.59,3.59,0,0,0-1.22-.14v-1.94h4.89Z"/><path class="cls-8" d="M148.64,251h-4.42l-.18-1H144a3.46,3.46,0,0,1-2.85,1.22,3.2,3.2,0,0,1-2.38-.93,3,3,0,0,1-.85-2.13,3.18,3.18,0,0,1,1.6-2.89,8.09,8.09,0,0,1,4.25-.94v-.13q0-1.29-1.82-1.28a5.31,5.31,0,0,0-2.76.74l-.57-2a7.68,7.68,0,0,1,3.87-.9q4.37,0,4.37,4.31v2.79a1,1,0,0,0,.56,1,3.46,3.46,0,0,0,1.23.15Zm-4.8-3.62v-1.1q-2.89,0-2.89,1.57a1.07,1.07,0,0,0,1.22,1.19,1.66,1.66,0,0,0,1-.33,1.57,1.57,0,0,0,.6-.82A1.83,1.83,0,0,0,143.84,247.4Z"/><path class="cls-8" d="M156.79,245.92v-8.64h3.1V246q0,5.29-4.9,5.29a6.86,6.86,0,0,1-2.26-.33l.35-2.51a5.39,5.39,0,0,0,1.59.24,1.9,1.9,0,0,0,1.72-.78A3.76,3.76,0,0,0,156.79,245.92Z"/><path class="cls-8" d="M170.68,245.13v3.46a15.62,15.62,0,0,0,.14,2.43H168l-.19-1h-.06a3.46,3.46,0,0,1-2.85,1.22,3.15,3.15,0,0,1-2.37-.95,2.92,2.92,0,0,1-.86-2.12,3.23,3.23,0,0,1,2-3.1,8.92,8.92,0,0,1,3.86-.72v-.14q0-1.28-1.81-1.28a5.21,5.21,0,0,0-2.76.76l-.57-2a7.83,7.83,0,0,1,3.87-.88Q170.68,240.82,170.68,245.13Zm-3,2.26v-1.08q-2.9,0-2.9,1.57,0,1.17,1.22,1.17a1.76,1.76,0,0,0,1-.31,1.46,1.46,0,0,0,.61-.83A1.93,1.93,0,0,0,167.66,247.39Zm-.82-10.64h2.86l-2.49,3.11h-2.12Z"/><rect class="cls-15" x="29.57" y="566.63" width="48.6" height="31.84" rx="8" ry="8"/><rect class="cls-16" x="88.66" y="566.63" width="48.6" height="31.84" rx="8" ry="8"/><g class="cls-17"><rect x="147.76" y="567.93" width="48.6" height="31.84" rx="8" ry="8"/></g><rect class="cls-7" x="147.76" y="566.63" width="48.6" height="31.84" rx="8" ry="8"/><polygon class="cls-1" points="182.91 577.32 179.55 573.96 169.35 584.42 164.56 579.88 161.21 583.25 169.35 591.14 182.91 577.32"/><text class="cls-18" transform="translate(159 588.85)">OK</text><rect class="cls-19" x="29.57" y="304.9" width="166.79" height="118.18" rx="8" ry="8"/><text class="cls-20" transform="translate(56.81 385.18)">Parcelar <tspan class="cls-7" x="79.76" y="0">x12</tspan><tspan x="12.19" y="19.95">sem juros</tspan></text><circle class="cls-7" cx="112.96" cy="340.8" r="22.26"/><polygon class="cls-8" points="128.18 334.69 123.61 330.13 109.74 344.35 103.24 338.19 98.68 342.75 109.74 353.48 128.18 334.69"/></g></g></g></svg>