<svg xmlns="http://www.w3.org/2000/svg" viewBox="0 0 43.89 33.22"><defs><style>.cls-1{fill:#fff;}.cls-2{fill:#7a9a2b;}</style></defs><title>car-nb-ft</title><g id="Layer_2" data-name="Layer 2"><g id="logo_barra_navbar" data-name="logo barra navbar"><path id="car" class="cls-1" d="M15,30.62a2.6,2.6,0,1,1-2.6-2.6h0A2.6,2.6,0,0,1,15,30.62ZM28.88,28a2.6,2.6,0,1,0,2.6,2.6A2.6,2.6,0,0,0,28.88,28ZM36.67,9.74,35.42,13H10.26a.06.06,0,0,0-.06.06v3a.06.06,0,0,0,.06.06H34.21l-3.55,9.1a2.6,2.6,0,0,1-2.32,1.38H11.81a2.23,2.23,0,0,1-2.14-1.41l-3.79-15L2.77,6.76l-.06-.07h-2A.68.68,0,0,1,0,6.08v-.7a.68.68,0,0,1,.74-.6H4.56a.79.79,0,0,1,.64.3.57.57,0,0,1,.16.12L8.24,8.36H35.43C36.41,8.36,37,9,36.67,9.74ZM13.1,21.19a.06.06,0,0,0,.06.06H30a.06.06,0,0,0,.06-.06v-3a.06.06,0,0,0-.06-.06H13.16a.06.06,0,0,0-.06.06Z"/><g id="circle"><circle class="cls-2" cx="33.97" cy="9.92" r="9.92"/><path class="cls-1" d="M26.27,11.05V8.55a0,0,0,0,1,0,0h15.1a0,0,0,0,1,0,0v2.51a0,0,0,0,1,0,0H26.31A0,0,0,0,1,26.27,11.05Zm9.89,2.78a2.29,2.29,0,1,0-2.29,2.3,2.29,2.29,0,0,0,2.29-2.3h0Zm0-8.24a2.29,2.29,0,1,0-2.29,2.3,2.29,2.29,0,0,0,2.29-2.3h0"/></g></g></g></svg>