<svg xmlns="http://www.w3.org/2000/svg" viewBox="0 0 260 120.17"><defs><style>.cls-1{fill:#868585;}.cls-2{fill:#f39200;opacity:0.2;}.cls-3{fill:#1d1d1b;}.cls-4{fill:#e9530e;}</style></defs><title>lg-bnieuro</title><g id="Layer_2" data-name="Layer 2"><g id="Layer_1-2" data-name="Layer 1"><path class="cls-1" d="M13.18,21.45h-10V3.58h10V5.43H5.3v5.76h7.41V13H5.3v6.58h7.88Z" transform="translate(0 -3.08)"/><path class="cls-1" d="M33.91,21.45V12.73a3.62,3.62,0,0,0-.68-2.4,2.65,2.65,0,0,0-2.13-.8,3.43,3.43,0,0,0-2.8,1.09A5.16,5.16,0,0,0,27.4,14v7.48h-2V12.73a3.62,3.62,0,0,0-.68-2.4,2.67,2.67,0,0,0-2.14-.8,3.31,3.31,0,0,0-2.79,1.14,6.18,6.18,0,0,0-.89,3.75v7h-2V8.05h1.65l.33,1.83h.1a4,4,0,0,1,1.62-1.53,5,5,0,0,1,2.34-.55Q26,7.81,27,10.08h.1a4.27,4.27,0,0,1,1.74-1.66,5.39,5.39,0,0,1,2.59-.61A4.54,4.54,0,0,1,34.81,9a5.22,5.22,0,0,1,1.13,3.73v8.74Z" transform="translate(0 -3.08)"/><path class="cls-1" d="M52.85,21.69a5.8,5.8,0,0,1-2.39-.48,4.49,4.49,0,0,1-1.81-1.48H48.5a18,18,0,0,1,.15,2.22v5.51h-2V8.05h1.65l.28,1.83h.1A4.71,4.71,0,0,1,50.47,8.3a5.53,5.53,0,0,1,2.38-.49A5,5,0,0,1,57,9.63a8,8,0,0,1,1.45,5.11,8,8,0,0,1-1.47,5.13A5,5,0,0,1,52.85,21.69ZM52.56,9.53a3.6,3.6,0,0,0-3,1.14,5.85,5.85,0,0,0-.94,3.62v.45a6.71,6.71,0,0,0,.94,4,3.58,3.58,0,0,0,3,1.22,3.14,3.14,0,0,0,2.72-1.41,6.67,6.67,0,0,0,1-3.87,6.42,6.42,0,0,0-1-3.84A3.24,3.24,0,0,0,52.56,9.53Z" transform="translate(0 -3.08)"/><path class="cls-1" d="M70.19,21.45l-.4-1.91h-.1a5.64,5.64,0,0,1-2,1.71,6.1,6.1,0,0,1-2.49.45,4.47,4.47,0,0,1-3.12-1A3.74,3.74,0,0,1,61,17.74q0-4.06,6.49-4.25l2.27-.07v-.83A3.4,3.4,0,0,0,69,10.26a2.79,2.79,0,0,0-2.17-.75,8.83,8.83,0,0,0-3.79,1L62.46,9a9.54,9.54,0,0,1,2.17-.84A9.42,9.42,0,0,1,67,7.83,5.1,5.1,0,0,1,70.54,8.9a4.44,4.44,0,0,1,1.15,3.41v9.14ZM65.61,20a4.12,4.12,0,0,0,3-1,3.84,3.84,0,0,0,1.08-2.91V14.86l-2,.09a7.38,7.38,0,0,0-3.49.75,2.27,2.27,0,0,0-1.07,2.07,2.09,2.09,0,0,0,.67,1.67A2.76,2.76,0,0,0,65.61,20Z" transform="translate(0 -3.08)"/><path class="cls-1" d="M82,7.81a8,8,0,0,1,1.6.15l-.28,1.88a6.86,6.86,0,0,0-1.47-.18A3.57,3.57,0,0,0,79.06,11a4.82,4.82,0,0,0-1.15,3.29v7.19h-2V8.05h1.67l.23,2.48h.1a5.89,5.89,0,0,1,1.8-2A4,4,0,0,1,82,7.81Z" transform="translate(0 -3.08)"/><path class="cls-1" d="M91.45,21.69a5.72,5.72,0,0,1-4.5-1.79,7.36,7.36,0,0,1-1.59-5.07A7.6,7.6,0,0,1,87,9.64a5.83,5.83,0,0,1,4.61-1.83A9.16,9.16,0,0,1,93.51,8,6.36,6.36,0,0,1,95,8.51l-.62,1.72a9.59,9.59,0,0,0-1.47-.45,6.54,6.54,0,0,0-1.41-.18q-4.08,0-4.08,5.21a6.2,6.2,0,0,0,1,3.79,3.47,3.47,0,0,0,3,1.32,9,9,0,0,0,3.43-.72V21A7.31,7.31,0,0,1,91.45,21.69Z" transform="translate(0 -3.08)"/><path class="cls-1" d="M103.67,21.69A6.15,6.15,0,0,1,99,19.88a7,7,0,0,1-1.72-5,7.77,7.77,0,0,1,1.59-5.15,5.3,5.3,0,0,1,4.28-1.91,5.05,5.05,0,0,1,4,1.66,6.35,6.35,0,0,1,1.47,4.37v1.28H99.36a5.3,5.3,0,0,0,1.19,3.58,4.12,4.12,0,0,0,3.18,1.22A10.8,10.8,0,0,0,108,19v1.81a10.78,10.78,0,0,1-2,.67A11.48,11.48,0,0,1,103.67,21.69Zm-.55-12.18a3.31,3.31,0,0,0-2.57,1.05,4.84,4.84,0,0,0-1.13,2.91h7a4.46,4.46,0,0,0-.86-2.94A3,3,0,0,0,103.12,9.51Z" transform="translate(0 -3.08)"/><path class="cls-1" d="M118.16,7.81a8,8,0,0,1,1.6.15l-.28,1.88A6.86,6.86,0,0,0,118,9.65,3.57,3.57,0,0,0,115.23,11a4.82,4.82,0,0,0-1.15,3.29v7.19h-2V8.05h1.67l.23,2.48h.1a5.89,5.89,0,0,1,1.8-2A4,4,0,0,1,118.16,7.81Z" transform="translate(0 -3.08)"/><path class="cls-1" d="M122.09,4.42a1.35,1.35,0,0,1,.34-1,1.27,1.27,0,0,1,1.7,0,1.32,1.32,0,0,1,.35,1,1.34,1.34,0,0,1-.35,1,1.19,1.19,0,0,1-.84.34,1.17,1.17,0,0,1-.86-.34A1.37,1.37,0,0,1,122.09,4.42Zm2.2,17h-2V8.05h2Z" transform="translate(0 -3.08)"/><path class="cls-1" d="M136.83,21.45l-.4-1.91h-.1a5.64,5.64,0,0,1-2,1.71,6.1,6.1,0,0,1-2.49.45,4.47,4.47,0,0,1-3.12-1,3.74,3.74,0,0,1-1.13-2.92q0-4.06,6.49-4.25l2.27-.07v-.83a3.4,3.4,0,0,0-.68-2.33,2.79,2.79,0,0,0-2.17-.75,8.83,8.83,0,0,0-3.79,1L129.1,9a9.54,9.54,0,0,1,2.17-.84,9.42,9.42,0,0,1,2.36-.31,5.1,5.1,0,0,1,3.55,1.06,4.44,4.44,0,0,1,1.15,3.41v9.14ZM132.25,20a4.12,4.12,0,0,0,3-1,3.84,3.84,0,0,0,1.08-2.91V14.86l-2,.09a7.38,7.38,0,0,0-3.49.75,2.27,2.27,0,0,0-1.07,2.07,2.09,2.09,0,0,0,.67,1.67A2.76,2.76,0,0,0,132.25,20Z" transform="translate(0 -3.08)"/><path class="cls-1" d="M154.37,21.69a5.72,5.72,0,0,1-4.5-1.79,7.36,7.36,0,0,1-1.59-5.07,7.6,7.6,0,0,1,1.62-5.19,5.83,5.83,0,0,1,4.61-1.83,9.16,9.16,0,0,1,1.93.21,6.36,6.36,0,0,1,1.51.49l-.62,1.72a9.59,9.59,0,0,0-1.47-.45,6.54,6.54,0,0,0-1.41-.18q-4.08,0-4.08,5.21a6.2,6.2,0,0,0,1,3.79,3.47,3.47,0,0,0,3,1.32,9,9,0,0,0,3.43-.72V21A7.31,7.31,0,0,1,154.37,21.69Z" transform="translate(0 -3.08)"/><path class="cls-1" d="M172.49,14.74a7.39,7.39,0,0,1-1.65,5.11,5.81,5.81,0,0,1-4.56,1.84,6,6,0,0,1-3.19-.84,5.57,5.57,0,0,1-2.15-2.42,8.44,8.44,0,0,1-.76-3.69,7.38,7.38,0,0,1,1.64-5.1,5.79,5.79,0,0,1,4.55-1.83,5.66,5.66,0,0,1,4.47,1.87A7.35,7.35,0,0,1,172.49,14.74Zm-10.2,0a6.35,6.35,0,0,0,1,3.91,4.07,4.07,0,0,0,6,0,6.33,6.33,0,0,0,1-3.92,6.22,6.22,0,0,0-1-3.88,3.63,3.63,0,0,0-3-1.33,3.57,3.57,0,0,0-3,1.31A6.3,6.3,0,0,0,162.29,14.74Z" transform="translate(0 -3.08)"/><path class="cls-1" d="M193.12,21.45V12.73a3.62,3.62,0,0,0-.68-2.4,2.65,2.65,0,0,0-2.13-.8,3.43,3.43,0,0,0-2.8,1.09,5.16,5.16,0,0,0-.9,3.35v7.48h-2V12.73a3.62,3.62,0,0,0-.68-2.4,2.67,2.67,0,0,0-2.14-.8A3.31,3.31,0,0,0,179,10.67a6.18,6.18,0,0,0-.89,3.75v7h-2V8.05h1.65L178,9.89h.1a4,4,0,0,1,1.62-1.53,5,5,0,0,1,2.34-.55q3.14,0,4.11,2.27h.1A4.27,4.27,0,0,1,188,8.42a5.39,5.39,0,0,1,2.59-.61A4.54,4.54,0,0,1,194,9a5.22,5.22,0,0,1,1.13,3.73v8.74Z" transform="translate(0 -3.08)"/><path class="cls-1" d="M199,9.36q0-1.65,1.44-1.65T202,9.36a1.71,1.71,0,0,1-.4,1.22,1.6,1.6,0,0,1-2.13,0A1.68,1.68,0,0,1,199,9.36Zm0,10.79a1.82,1.82,0,0,1,.37-1.24,1.35,1.35,0,0,1,1.07-.42,1.45,1.45,0,0,1,1.11.42,1.75,1.75,0,0,1,.4,1.24,1.71,1.71,0,0,1-.4,1.22,1.6,1.6,0,0,1-2.13,0A1.68,1.68,0,0,1,199,20.15Z" transform="translate(0 -3.08)"/><path class="cls-2" d="M130,82.83l-.08,0,0,0Z" transform="translate(0 -3.08)"/><path class="cls-3" d="M88.89,69.85H86.42V67.5H97.76c4.17,0,7.2,2.54,7.2,6.71a6.13,6.13,0,0,1-3.41,5.8v.07c2.73.76,4.47,3.38,4.47,6.6,0,4.74-3.49,7.47-8,7.47H91.2c-1.63,0-2.31-.68-2.31-2.31Zm8.83,9.21a4.36,4.36,0,0,0,4.51-4.66,4.26,4.26,0,0,0-4.55-4.55H91.54v9.21ZM92.38,91.81h5.68a4.82,4.82,0,0,0,5.2-5.19A5,5,0,0,0,98,81.34H91.54V91A.74.74,0,0,0,92.38,91.81Zm28.71-9.4h1.06v-.23c0-4-1.44-5.38-4.93-5.38-.95,0-3.72.27-3.72,1.67v1.21H111V77.85c0-2.66,4.55-3.22,6.22-3.22,6,0,7.47,3.22,7.47,7.32v9.14a.74.74,0,0,0,.84.84h1.59v2.23h-2.62c-1.63,0-2.28-.72-2.28-2.28,0-.83,0-1.4,0-1.4h-.08a6.74,6.74,0,0,1-6.33,4.14c-3.18,0-6.49-1.86-6.49-5.65C109.4,82.63,117.79,82.41,121.08,82.41Zm-4.78,10c3.64,0,5.84-3.79,5.84-7.09v-.87H121c-3,0-9,.07-9,4.36C112.06,90.59,113.46,92.41,116.31,92.41Zm14.95-14.26a.76.76,0,0,0-.84-.83h-1.59V75.09h2.66c1.59,0,2.31.68,2.31,2.12v.87a12.74,12.74,0,0,1-.07,1.37h.07a8.11,8.11,0,0,1,7.58-4.82c4.74,0,6.41,2.69,6.41,7.39v9.06a.74.74,0,0,0,.84.84h1.59v2.23h-2.69c-1.63,0-2.31-.68-2.31-2.31V82.71c0-3-.46-5.65-4.14-5.65a7.24,7.24,0,0,0-6.94,5.38,9.3,9.3,0,0,0-.3,2.58v9.14h-2.58Zm31.32-3.53c2.16,0,6.79.91,6.79,4.06V80.4h-2.42V79.3c0-1.59-2.77-2.35-4.36-2.35a7.66,7.66,0,0,0,.07,15.32,8.44,8.44,0,0,0,6.14-2.69L170,91.51a10.06,10.06,0,0,1-7.47,3.11,9.65,9.65,0,0,1-10-10A9.75,9.75,0,0,1,162.58,74.63Zm20,0a10,10,0,1,1-10,9.89A9.87,9.87,0,0,1,182.6,74.63Zm0,17.67A7.51,7.51,0,0,0,190,84.53a7.41,7.41,0,1,0-14.82,0A7.52,7.52,0,0,0,182.64,92.3Z" transform="translate(0 -3.08)"/><path class="cls-4" d="M198.36,71.75h-2.43V67.6h11.47c4.79,0,8.23,2.47,8.23,6.84a6.18,6.18,0,0,1-3.22,5.68v.08a6.22,6.22,0,0,1,4.26,6.24c0,5.31-4.23,7.7-9.15,7.7h-6.62c-1.76,0-2.54-.74-2.54-2.54Zm9.08,6.69a3.13,3.13,0,0,0,3.21-3.4,3,3,0,0,0-3.29-3.29h-4.11v6.69ZM204.08,90h3.81a3.83,3.83,0,0,0,0-7.66h-4.63v6.84A.75.75,0,0,0,204.08,90Zm15.53,0h1.62a.75.75,0,0,0,.82-.82V67.49h4.43l10.1,14.76c1,1.54,2.22,3.76,2.22,3.76h.08s-.26-2.22-.26-3.76V70c0-1.77.75-2.55,2.55-2.55H246v4.17h-1.62a.75.75,0,0,0-.83.82V94.16h-4.39L229,79.44a40.21,40.21,0,0,1-2.21-3.76h-.08s.26,2.22.26,3.76V91.61c0,1.8-.75,2.55-2.55,2.55h-4.81Zm29.1,0h2.67V71.66h-2.67V67.49h10v4.17H256V90h2.66v4.17h-10Z" transform="translate(0 -3.08)"/><path class="cls-3" d="M198.36,106.51H197v-1.75h8.47c.92,0,1.31.39,1.31,1.3v1.82H205V107a.4.4,0,0,0-.45-.45H200.4V111h5v1.75h-5V117a.41.41,0,0,0,.45.45h4.21a.41.41,0,0,0,.45-.45V116h1.88v1.81c0,.92-.39,1.31-1.31,1.31h-6.41c-.92,0-1.31-.39-1.31-1.31ZM208.84,111a.4.4,0,0,0-.45-.45h-.83v-1.7h1.94c.94,0,1.33.39,1.33,1.27V115c0,1.43.29,2.57,1.92,2.57,2.13,0,3.37-1.86,3.37-3.9v-4.84h2V117a.4.4,0,0,0,.45.45h.83v1.69h-1.9c-.87,0-1.31-.41-1.31-1.14v-.39c0-.33,0-.6,0-.6h0a4.14,4.14,0,0,1-3.8,2.37c-2.33,0-3.51-1.23-3.51-4Zm12,0a.4.4,0,0,0-.45-.45h-.84v-1.7h1.88c.9,0,1.32.37,1.32,1.21v.65a7.08,7.08,0,0,1,0,.71h0a3.56,3.56,0,0,1,3.27-2.69,4.21,4.21,0,0,1,.53,0v2a2.81,2.81,0,0,0-.59-.06,3.14,3.14,0,0,0-2.9,2.43,6.34,6.34,0,0,0-.25,1.86v4.23h-2Zm11.34-2.39a5.41,5.41,0,1,1-5.55,5.39A5.39,5.39,0,0,1,232.19,108.59Zm0,9.1a3.7,3.7,0,1,0-3.53-3.72A3.57,3.57,0,0,0,232.19,117.69Zm7.33-6.71a.4.4,0,0,0-.44-.45h-.84v-1.7h1.86c.92,0,1.27.39,1.27,1,0,.3,0,.55,0,.55h0a3.69,3.69,0,0,1,3.43-1.83c2.78,0,4.55,2.2,4.55,5.41s-2,5.41-4.69,5.41a3.57,3.57,0,0,1-3.16-1.65h0s0,.37,0,.9v4.59h-2Zm4.84,6.74c1.63,0,3-1.35,3-3.7s-1.2-3.69-2.91-3.69c-1.53,0-3,1.08-3,3.72C241.44,115.88,242.44,117.72,244.36,117.72Zm11.93-5h.45v-.1c0-1.82-.68-2.47-2.28-2.47-.49,0-1.69.12-1.69.79v.6H250.9v-1c0-1.7,2.57-1.94,3.57-1.94,3.35,0,4.24,1.75,4.24,4V117a.41.41,0,0,0,.46.45H260v1.69h-1.86c-.92,0-1.28-.45-1.28-1.18a4.6,4.6,0,0,1,0-.61h0a3.53,3.53,0,0,1-3.29,2,3.23,3.23,0,0,1-3.5-3.15C250.07,112.94,254.55,112.73,256.29,112.73ZM254,117.82c1.68,0,2.76-1.75,2.76-3.28v-.35h-.51c-1.49,0-4.18.08-4.18,2A1.72,1.72,0,0,0,254,117.82Z" transform="translate(0 -3.08)"/><path class="cls-4" d="M41.81,119.18H12.58A12.59,12.59,0,0,1,0,106.61V55.14A12.59,12.59,0,0,1,12.58,42.57H42.94v0A25.21,25.21,0,0,1,63.26,80.83a25.21,25.21,0,0,1-21.45,38.35Zm4.61-73.71A16.06,16.06,0,0,1,48,47.82c2.81,5,4.52,12.93,5.13,23.69a25.28,25.28,0,0,1,8.59,7.17,22.8,22.8,0,0,0-15.3-33.2Zm4.24,45.87a25,25,0,0,1-9,1.65C34.62,93,25,91.94,7.23,84.76L42.1,116.67C43.64,116.11,49.26,112.62,50.66,91.34ZM42.11,45.06,7.23,77C25,69.81,34.62,68.76,41.69,68.76a25,25,0,0,1,9,1.65C49.26,49,43.61,45.58,42.11,45.06ZM51,80.87q0-1.05,0-2.08s0-.05,0-.08c0-.21,0-.42,0-.64,0-.47,0-.94,0-1.41,0-.26,0-.52,0-.78,0-.42,0-.83,0-1.25s0-.54,0-.81,0-.51,0-.77a22.57,22.57,0,0,0-9.11-1.89c-7.35,0-17.55,1.18-37.54,9.71,20,8.53,30.19,9.71,37.54,9.71a22.58,22.58,0,0,0,9.11-1.89c0-.26,0-.51,0-.77s0-.54,0-.81,0-.83,0-1.24c0-.26,0-.52,0-.79,0-.46,0-.93,0-1.4,0-.21,0-.41,0-.62,0,0,0-.07,0-.11Q51,81.92,51,80.87Zm2.29,6.55a22.89,22.89,0,0,0,7.09-6.55,22.9,22.9,0,0,0-7.09-6.55q.06,1.56.09,3.2v0q0,.48,0,1c0,.09,0,.18,0,.27s0,.16,0,.25,0,.15,0,.22q0,.8,0,1.62t0,1.62c0,.08,0,.15,0,.22V83c0,.09,0,.18,0,.27q0,.48,0,1v0Q53.32,85.86,53.27,87.43ZM2.41,78.14,38.64,45H12.58A10.18,10.18,0,0,0,2.41,55.14Zm36.24,38.63L2.41,83.61v23a10.18,10.18,0,0,0,10.17,10.17ZM64.54,94A22.7,22.7,0,0,0,61.75,83a25.27,25.27,0,0,1-8.61,7.2c-.6,10.76-2.32,18.7-5.13,23.69a16,16,0,0,1-1.6,2.36A22.84,22.84,0,0,0,64.54,94Z" transform="translate(0 -3.08)"/></g></g></svg>