<svg xmlns="http://www.w3.org/2000/svg" viewBox="0 0 190.25 60.09"><defs><style>.cls-1{fill:#fff;}.cls-2{fill:#7a9a2b;}</style></defs><title>logo2-nb-ft</title><g id="Layer_2" data-name="Layer 2"><g id="logo_footer" data-name="logo footer"><path class="cls-1" d="M11,54.51l.37,1.92a6.27,6.27,0,0,1-2.78.49,5.64,5.64,0,0,1-4.25-1.56,5.32,5.32,0,0,1-1.43-3.88,5.51,5.51,0,0,1,1.66-4.19,6,6,0,0,1,4.26-1.55,5.88,5.88,0,0,1,2.67.47L11,48.14A5.17,5.17,0,0,0,9,47.74a3.32,3.32,0,0,0-2.54,1,3.67,3.67,0,0,0-.91,2.62,3.56,3.56,0,0,0,.91,2.59A3.4,3.4,0,0,0,9,54.86,5.23,5.23,0,0,0,11,54.51Z"/><path class="cls-1" d="M16.55,56.91h0a4,4,0,0,1-2.89-1.08,3.92,3.92,0,0,1-1.18-3,4.06,4.06,0,0,1,1.15-3,4.16,4.16,0,0,1,3.05-1.13,3.81,3.81,0,0,1,4,4A4,4,0,0,1,19.4,55.9,4.13,4.13,0,0,1,16.55,56.91Zm0-1.76h0a1.32,1.32,0,0,0,1.23-.82,3.83,3.83,0,0,0,0-3.09,1.33,1.33,0,0,0-1.24-.82,1.35,1.35,0,0,0-1.23.75A3.2,3.2,0,0,0,15,52.79a3.35,3.35,0,0,0,.33,1.55A1.36,1.36,0,0,0,16.56,55.15Z"/><path class="cls-1" d="M34.48,56.73H32.1V52.45q0-1.8-1.15-1.8a1.13,1.13,0,0,0-1.13.86,1.92,1.92,0,0,0-.09.62v4.6H27.35V52.32q0-1.66-1.13-1.66a1.17,1.17,0,0,0-1.15.88,1.74,1.74,0,0,0-.09.62v4.58H22.6V51.28a.75.75,0,0,0-.44-.78,2.69,2.69,0,0,0-1-.12V48.86H24.6l.1,1.06h.05a2.68,2.68,0,0,1,2.37-1.24A2.12,2.12,0,0,1,29.29,50h0a3.4,3.4,0,0,1,1-1,2.83,2.83,0,0,1,1.49-.39,2.34,2.34,0,0,1,1.88.82,3.91,3.91,0,0,1,.76,2.59Z"/><path class="cls-1" d="M44.42,51.73a6.22,6.22,0,0,1,.12,1.19,4.3,4.3,0,0,1-.94,2.86A3.34,3.34,0,0,1,40.91,57a3.09,3.09,0,0,1-1.53-.33h0l0,3.28H36.85V52q0-.64,0-.75a.75.75,0,0,0-.46-.75,2.81,2.81,0,0,0-1-.11V48.87h3.47L39,50h0a2.36,2.36,0,0,1,2.24-1.22,2.78,2.78,0,0,1,2.08.89A4,4,0,0,1,44.42,51.73ZM42,51.91q-.26-1.28-1.27-1.28a1.22,1.22,0,0,0-1.08.68,3.38,3.38,0,0,0-.38,1.84l0,1.7a1.79,1.79,0,0,0,1.12.37,1.37,1.37,0,0,0,1.2-.77,3.31,3.31,0,0,0,.43-1.74A4.45,4.45,0,0,0,42,51.91Z"/><path class="cls-1" d="M51.32,51a3.32,3.32,0,0,0-.67-.07A1.5,1.5,0,0,0,49,52.21a2.57,2.57,0,0,0,0,.54v4H46.48V51.3A.77.77,0,0,0,46,50.5a2.69,2.69,0,0,0-1-.12V48.86h3.44l.09,1.45h.06a2.48,2.48,0,0,1,.93-1.25,2.06,2.06,0,0,1,1.19-.38,2.48,2.48,0,0,1,.53,0Z"/><path class="cls-1" d="M59.55,53.58H54.48a1.37,1.37,0,0,0,.79,1.17,3,3,0,0,0,1.44.32,7,7,0,0,0,2.17-.32l.32,1.66a7.45,7.45,0,0,1-2.84.5,4.3,4.3,0,0,1-3-1,3.86,3.86,0,0,1-1.15-3,4.39,4.39,0,0,1,1-2.85,3.66,3.66,0,0,1,3-1.35,3.18,3.18,0,0,1,2.7,1.23,4.34,4.34,0,0,1,.8,2.7A4.89,4.89,0,0,1,59.55,53.58Zm-5.08-1.67h2.9a1.87,1.87,0,0,0-.27-1A1.23,1.23,0,0,0,56,50.32a1.32,1.32,0,0,0-1.06.49A2,2,0,0,0,54.47,51.91Z"/><path class="cls-2" d="M66.55,52.71V45.89H69v6.85q0,4.17-3.86,4.17a5.4,5.4,0,0,1-1.78-.26l.27-2a4.25,4.25,0,0,0,1.26.19,1.5,1.5,0,0,0,1.36-.61A3,3,0,0,0,66.55,52.71Z"/><path class="cls-2" d="M77.5,52.08v2.73a12.33,12.33,0,0,0,.11,1.92h-2.2l-.15-.79h0a2.73,2.73,0,0,1-2.25,1,2.49,2.49,0,0,1-1.87-.75,2.3,2.3,0,0,1-.68-1.67A2.55,2.55,0,0,1,72,52.05a7,7,0,0,1,3-.57v-.11q0-1-1.43-1a4.1,4.1,0,0,0-2.18.6L71,49.38A6.17,6.17,0,0,1,74,48.69Q77.5,48.69,77.5,52.08Zm-2.38,1.78V53q-2.29,0-2.29,1.24,0,.93,1,.93a1.39,1.39,0,0,0,.79-.24,1.15,1.15,0,0,0,.48-.65A1.52,1.52,0,0,0,75.12,53.87Zm-.64-8.4h2.25l-2,2.45H73.1Z"/><path class="cls-2" d="M80.68,56.91h0a1.33,1.33,0,0,1-1-.42,1.64,1.64,0,0,1,0-2.14,1.52,1.52,0,0,1,2.09,0,1.5,1.5,0,0,1,.39,1.08,1.47,1.47,0,0,1-.4,1.07A1.4,1.4,0,0,1,80.68,56.91Z"/><path class="cls-1" d="M86.93,56.73V46a20.54,20.54,0,0,1,3.31-.23,5.78,5.78,0,0,1,3.07.71,2.92,2.92,0,0,1,1.4,2.67,3.36,3.36,0,0,1-1,2.58,4.94,4.94,0,0,1-3.52,1.15,5.74,5.74,0,0,1-.84-.05v3.88Zm2.43-9V51a4.14,4.14,0,0,0,.82.06,2.43,2.43,0,0,0,1.48-.42,1.59,1.59,0,0,0,.63-1.35q0-1.59-1.92-1.59A5,5,0,0,0,89.36,47.74Z"/><path class="cls-1" d="M104.15,56.73h-3.49l-.14-.79h-.05a2.73,2.73,0,0,1-2.25,1,2.52,2.52,0,0,1-1.88-.73,2.33,2.33,0,0,1-.67-1.68,2.51,2.51,0,0,1,1.26-2.28,6.39,6.39,0,0,1,3.35-.74v-.1q0-1-1.44-1a4.19,4.19,0,0,0-2.18.58l-.45-1.56a6.06,6.06,0,0,1,3.06-.71q3.45,0,3.45,3.4v2.2a.78.78,0,0,0,.44.81,2.72,2.72,0,0,0,1,.12Zm-3.79-2.86V53q-2.28,0-2.28,1.24a.84.84,0,0,0,1,.94,1.31,1.31,0,0,0,.79-.26,1.24,1.24,0,0,0,.47-.64A1.43,1.43,0,0,0,100.36,53.87Z"/><path class="cls-1" d="M105.61,59.57l.19-1.75a4.73,4.73,0,0,0,2.16.42q1.88,0,1.93-2.08l0-.68h0a2.21,2.21,0,0,1-2,1.18,2.8,2.8,0,0,1-2-.85,3.72,3.72,0,0,1-1-2,5.42,5.42,0,0,1-.11-1,4,4,0,0,1,1.08-2.89,4.35,4.35,0,0,1,3.3-1.24,8.35,8.35,0,0,1,3,.55l0,6.49a5.21,5.21,0,0,1-.79,3.27,3.74,3.74,0,0,1-3.07,1.11A5.66,5.66,0,0,1,105.61,59.57Zm4.21-6.86V50.59a2.33,2.33,0,0,0-.85-.13,1.63,1.63,0,0,0-1.43.77,2.82,2.82,0,0,0-.46,1.63,2.76,2.76,0,0,0,.31,1.34,1.17,1.17,0,0,0,1.08.69,1.15,1.15,0,0,0,1.07-.78A3.22,3.22,0,0,0,109.82,52.71Z"/><path class="cls-1" d="M123.3,56.73h-3.47l-.11-1.12h0a2.71,2.71,0,0,1-2.46,1.3,2.52,2.52,0,0,1-2-.8,3.85,3.85,0,0,1-.79-2.62V51.3a.78.78,0,0,0-.44-.8,2.65,2.65,0,0,0-1-.12V48.86h3.86v4.23q0,1.85,1.23,1.85a1.23,1.23,0,0,0,1.22-.86,1.31,1.31,0,0,0,.09-.52V48.86h2.44V54.3a.76.76,0,0,0,.45.79,2.65,2.65,0,0,0,1,.12Z"/><path class="cls-1" d="M131.22,53.58h-5.07a1.37,1.37,0,0,0,.79,1.17,3,3,0,0,0,1.44.32,7,7,0,0,0,2.17-.32l.32,1.66a7.45,7.45,0,0,1-2.84.5,4.3,4.3,0,0,1-3-1,3.86,3.86,0,0,1-1.15-3,4.39,4.39,0,0,1,1-2.85,3.66,3.66,0,0,1,3-1.35,3.18,3.18,0,0,1,2.7,1.23,4.34,4.34,0,0,1,.8,2.7A4.89,4.89,0,0,1,131.22,53.58Zm-5.08-1.67H129a1.87,1.87,0,0,0-.27-1,1.23,1.23,0,0,0-1.12-.58,1.32,1.32,0,0,0-1.06.49A2,2,0,0,0,126.14,51.91Z"/><path class="cls-1" d="M144.52,56.73H141l-.1-1.15h0a2.22,2.22,0,0,1-2.19,1.34,2.67,2.67,0,0,1-1.87-.77,4,4,0,0,1-1.15-2.2,5.72,5.72,0,0,1-.11-1.11,4.2,4.2,0,0,1,1-2.93,3.81,3.81,0,0,1,3-1.23,3.1,3.1,0,0,1,1.09.2V47.76a.79.79,0,0,0-.44-.81,2.88,2.88,0,0,0-1-.11V45.31h3.86v9.08a.74.74,0,0,0,.46.71,2.93,2.93,0,0,0,.94.1Zm-3.86-3.9V50.72a1.63,1.63,0,0,0-2.26.45,2.82,2.82,0,0,0-.48,1.67,3.64,3.64,0,0,0,.07.71q.29,1.48,1.37,1.48a1.06,1.06,0,0,0,.9-.54A3,3,0,0,0,140.67,52.84Z"/><path class="cls-1" d="M152.45,53.58h-5.07a1.37,1.37,0,0,0,.79,1.17,3,3,0,0,0,1.44.32,7,7,0,0,0,2.17-.32l.32,1.66a7.45,7.45,0,0,1-2.84.5,4.3,4.3,0,0,1-3-1,3.86,3.86,0,0,1-1.15-3A4.39,4.39,0,0,1,146,50a3.66,3.66,0,0,1,3-1.35,3.18,3.18,0,0,1,2.7,1.23,4.34,4.34,0,0,1,.8,2.7A4.87,4.87,0,0,1,152.45,53.58Zm-5.08-1.67h2.9a1.87,1.87,0,0,0-.27-1,1.23,1.23,0,0,0-1.12-.58,1.32,1.32,0,0,0-1.06.49A2,2,0,0,0,147.37,51.91Z"/><path class="cls-1" d="M162,51.73a6.24,6.24,0,0,1,.12,1.19,4.3,4.3,0,0,1-.94,2.86A3.34,3.34,0,0,1,158.47,57a3.09,3.09,0,0,1-1.53-.33h0l0,3.28h-2.51V52q0-.64,0-.75a.75.75,0,0,0-.46-.75,2.81,2.81,0,0,0-1-.11V48.87h3.47l.11,1.1h0a2.36,2.36,0,0,1,2.24-1.22,2.78,2.78,0,0,1,2.08.89A4,4,0,0,1,162,51.73Zm-2.39.18q-.26-1.28-1.27-1.28a1.22,1.22,0,0,0-1.08.68,3.38,3.38,0,0,0-.38,1.84l0,1.7a1.79,1.79,0,0,0,1.12.37,1.37,1.37,0,0,0,1.2-.77,3.31,3.31,0,0,0,.43-1.74A4.48,4.48,0,0,0,159.6,51.91Z"/><path class="cls-1" d="M167.25,56.91h0a4,4,0,0,1-2.89-1.08,3.92,3.92,0,0,1-1.18-3,4.07,4.07,0,0,1,1.15-3,4.16,4.16,0,0,1,3.06-1.13,3.81,3.81,0,0,1,4,4,4,4,0,0,1-1.29,3.19A4.13,4.13,0,0,1,167.25,56.91Zm0-1.76h0a1.32,1.32,0,0,0,1.23-.82,3.83,3.83,0,0,0,0-3.09,1.33,1.33,0,0,0-1.24-.82,1.35,1.35,0,0,0-1.23.75,3.2,3.2,0,0,0-.38,1.61,3.35,3.35,0,0,0,.33,1.55A1.36,1.36,0,0,0,167.27,55.15Z"/><path class="cls-1" d="M175.76,56.73h-2.45V51.3a.78.78,0,0,0-.44-.8,2.65,2.65,0,0,0-1-.12V48.86h3.86Zm.15-10.2a1.2,1.2,0,0,1-.37.93,1.36,1.36,0,0,1-1,.38h0a1.34,1.34,0,0,1-1-.38,1.34,1.34,0,0,1,0-1.86,1.53,1.53,0,0,1,2,0A1.25,1.25,0,0,1,175.91,46.53Z"/><path class="cls-1" d="M177.26,56.35l.43-1.75a3.93,3.93,0,0,0,2.11.59q1,0,1-.66a.69.69,0,0,0-.42-.6,5.31,5.31,0,0,0-.75-.29q-2.23-.75-2.23-2.36a2.26,2.26,0,0,1,1-2,3.73,3.73,0,0,1,2.19-.62,5,5,0,0,1,2.22.45l-.44,1.69a3.56,3.56,0,0,0-1.7-.45q-.93,0-.93.64,0,.47,1.26.9,2.14.72,2.14,2.43a2.19,2.19,0,0,1-.86,1.81,4,4,0,0,1-2.55.75A5.23,5.23,0,0,1,177.26,56.35Z"/><path class="cls-1" d="M185.93,56.91h0a1.33,1.33,0,0,1-1-.42,1.64,1.64,0,0,1,0-2.14,1.52,1.52,0,0,1,2.09,0,1.5,1.5,0,0,1,.39,1.08,1.47,1.47,0,0,1-.4,1.07A1.4,1.4,0,0,1,185.93,56.91Z"/><g id="paracela_ja" data-name="paracela ja"><path class="cls-2" d="M190.25,9.88a2.49,2.49,0,1,1-2.48-2.54,2.49,2.49,0,0,1,2.48,2.54Zm-4.57,0a2.11,2.11,0,0,0,2,2.19h.09a2.12,2.12,0,0,0,2.07-2.22,2.11,2.11,0,0,0-2-2.2h-.06a2.13,2.13,0,0,0-2.09,2.22Zm3.11-1a1.78,1.78,0,0,0-.79-.19,1.05,1.05,0,0,0-1.17,1.14,1.09,1.09,0,0,0,1,1.15H188a1.61,1.61,0,0,0,.83-.21l.11.32a1.88,1.88,0,0,1-1,.26,1.42,1.42,0,0,1-1.51-1.49,1.52,1.52,0,0,1,1.5-1.53H188a1.63,1.63,0,0,1,.91.22Z"/></g><path id="car" class="cls-1" d="M15,30.62a2.6,2.6,0,1,1-2.6-2.6h0A2.6,2.6,0,0,1,15,30.62ZM28.88,28a2.6,2.6,0,1,0,2.6,2.6A2.6,2.6,0,0,0,28.88,28ZM36.67,9.74,35.42,13H10.26a.06.06,0,0,0-.06.06v3a.06.06,0,0,0,.06.06H34.21l-3.55,9.1a2.6,2.6,0,0,1-2.32,1.38H11.81a2.23,2.23,0,0,1-2.14-1.41l-3.79-15L2.77,6.76l-.06-.07h-2A.68.68,0,0,1,0,6.08v-.7a.68.68,0,0,1,.74-.6H4.56a.79.79,0,0,1,.64.3.57.57,0,0,1,.16.12L8.24,8.36H35.43C36.41,8.36,37,9,36.67,9.74ZM13.1,21.19a.06.06,0,0,0,.06.06H30a.06.06,0,0,0,.06-.06v-3a.06.06,0,0,0-.06-.06H13.16a.06.06,0,0,0-.06.06Z"/><g id="circle"><circle class="cls-2" cx="33.97" cy="9.92" r="9.92"/><path class="cls-1" d="M26.27,11.05V8.55a0,0,0,0,1,0,0h15.1a0,0,0,0,1,0,0v2.51a0,0,0,0,1,0,0H26.31A0,0,0,0,1,26.27,11.05Zm9.89,2.78a2.29,2.29,0,1,0-2.29,2.3,2.29,2.29,0,0,0,2.29-2.3h0Zm0-8.24a2.29,2.29,0,1,0-2.29,2.3,2.29,2.29,0,0,0,2.29-2.3h0"/></g><path class="cls-1" d="M46.84,26.68V6.14a39.48,39.48,0,0,1,6.36-.44,11.11,11.11,0,0,1,5.9,1.36,5.6,5.6,0,0,1,2.68,5.13,6.45,6.45,0,0,1-1.92,4.95q-2.34,2.2-6.76,2.2a11,11,0,0,1-1.61-.11v7.45ZM51.5,9.41v6.18a7.92,7.92,0,0,0,1.58.12,4.67,4.67,0,0,0,2.84-.8,3,3,0,0,0,1.21-2.59q0-3.06-3.68-3.06A9.54,9.54,0,0,0,51.5,9.41Z"/><path class="cls-1" d="M79.9,26.68h-6.7l-.27-1.51h-.11A5.24,5.24,0,0,1,68.52,27a4.85,4.85,0,0,1-3.6-1.4,4.47,4.47,0,0,1-1.28-3.23A4.82,4.82,0,0,1,66.06,18,12.26,12.26,0,0,1,72.5,16.6v-.2q0-2-2.76-1.95a8,8,0,0,0-4.18,1.12l-.86-3a11.64,11.64,0,0,1,5.87-1.36q6.62,0,6.62,6.53V22A1.51,1.51,0,0,0,78,23.53a5.24,5.24,0,0,0,1.87.23Zm-7.27-5.49V19.53q-4.37,0-4.37,2.38a1.62,1.62,0,0,0,1.85,1.81,2.51,2.51,0,0,0,1.52-.5A2.37,2.37,0,0,0,72.54,22,2.77,2.77,0,0,0,72.63,21.19Z"/><path class="cls-1" d="M91.89,15.73a6.38,6.38,0,0,0-1.28-.14q-2.72,0-3.21,2.4a4.93,4.93,0,0,0-.09,1v7.65H82.6V16.24a1.48,1.48,0,0,0-.84-1.52,5.18,5.18,0,0,0-1.86-.23V11.57h6.61l.18,2.79h.12A4.75,4.75,0,0,1,88.59,12a4,4,0,0,1,2.29-.74,4.77,4.77,0,0,1,1,.09Z"/><path class="cls-1" d="M105.13,22.85l.56,3.45a9.92,9.92,0,0,1-4.21.72A8.06,8.06,0,0,1,95.69,25a7.52,7.52,0,0,1-2.2-5.72A7.51,7.51,0,0,1,96,13.33a9,9,0,0,1,6.17-2.1,10.18,10.18,0,0,1,3.59.59L105,15.31a6.82,6.82,0,0,0-2.62-.45,3.86,3.86,0,0,0-3,1.17,4.29,4.29,0,0,0-1.09,3.05,4.24,4.24,0,0,0,1.12,3.08,4,4,0,0,0,3,1.16A7.38,7.38,0,0,0,105.13,22.85Z"/><path class="cls-1" d="M121.62,20.63h-9.73a2.63,2.63,0,0,0,1.51,2.25,5.74,5.74,0,0,0,2.76.62,13.48,13.48,0,0,0,4.16-.62l.62,3.18a14.31,14.31,0,0,1-5.46,1,8.26,8.26,0,0,1-5.85-2,7.42,7.42,0,0,1-2.22-5.73,8.43,8.43,0,0,1,1.86-5.47A7,7,0,0,1,115,11.23a6.11,6.11,0,0,1,5.19,2.35,8.33,8.33,0,0,1,1.54,5.19A9.37,9.37,0,0,1,121.62,20.63Zm-9.76-3.21h5.57a3.59,3.59,0,0,0-.53-1.95,2.37,2.37,0,0,0-2.14-1.12,2.53,2.53,0,0,0-2,.94A3.79,3.79,0,0,0,111.86,17.42Z"/><path class="cls-1" d="M130.11,26.68H125.4V9.45a1.52,1.52,0,0,0-.84-1.55,5.44,5.44,0,0,0-1.86-.21V4.75h7.41Z"/><path class="cls-1" d="M149.17,26.68h-6.7l-.27-1.51h-.11A5.24,5.24,0,0,1,137.79,27a4.85,4.85,0,0,1-3.6-1.4,4.47,4.47,0,0,1-1.28-3.23A4.82,4.82,0,0,1,135.33,18a12.26,12.26,0,0,1,6.44-1.42v-.2q0-2-2.76-1.95a8,8,0,0,0-4.18,1.12l-.86-3a11.64,11.64,0,0,1,5.87-1.36q6.62,0,6.62,6.53V22a1.51,1.51,0,0,0,.84,1.55,5.24,5.24,0,0,0,1.87.23Zm-7.27-5.49V19.53q-4.37,0-4.37,2.38a1.62,1.62,0,0,0,1.85,1.81,2.51,2.51,0,0,0,1.52-.5,2.37,2.37,0,0,0,.91-1.24A2.77,2.77,0,0,0,141.9,21.19Z"/><path class="cls-2" d="M161.53,19V5.86h4.69V19q0,8-7.42,8a10.39,10.39,0,0,1-3.42-.5l.53-3.8a8.16,8.16,0,0,0,2.41.36,2.88,2.88,0,0,0,2.61-1.18A5.7,5.7,0,0,0,161.53,19Z"/><path class="cls-2" d="M182.57,17.75V23a23.67,23.67,0,0,0,.21,3.68h-4.22l-.29-1.51h-.09A5.24,5.24,0,0,1,173.86,27a4.77,4.77,0,0,1-3.59-1.43,4.43,4.43,0,0,1-1.3-3.21,4.89,4.89,0,0,1,3-4.69,13.51,13.51,0,0,1,5.85-1.09v-.21q0-1.95-2.74-1.95a7.89,7.89,0,0,0-4.18,1.15l-.86-3a11.86,11.86,0,0,1,5.87-1.33Q182.57,11.23,182.57,17.75ZM178,21.17V19.54q-4.39,0-4.39,2.38,0,1.78,1.85,1.78a2.67,2.67,0,0,0,1.52-.47A2.21,2.21,0,0,0,177.9,22,2.93,2.93,0,0,0,178,21.17ZM176.76,5.05h4.33l-3.77,4.71H174.1Z"/><rect class="cls-1" y="35.63" width="184.15" height="2.36"/></g></g></svg>