<svg xmlns="http://www.w3.org/2000/svg" viewBox="0 0 101.9 26"><defs><style>.cls-1{fill:#fff;}</style></defs><title>lg-madeira-footer</title><g id="Layer_2" data-name="Layer 2"><g id="Layer_1-2" data-name="Layer 1"><path class="cls-1" d="M44.34,11.12a1.56,1.56,0,0,1,1.09.35,1.39,1.39,0,0,1,.39,1.08,1.67,1.67,0,0,1-.23.91,1,1,0,0,1-.7.46v0a1,1,0,0,1,.61.27,1.16,1.16,0,0,1,.24.68c0,.1,0,.22,0,.34s0,.26,0,.41,0,.52,0,.68a.43.43,0,0,0,.2.32v0H44.82a.6.6,0,0,1-.11-.27,2.94,2.94,0,0,1,0-.31l0-1.06a.87.87,0,0,0-.16-.51.6.6,0,0,0-.5-.19h-.6v2.35H42.27V11.12Zm-.48,2.42a.91.91,0,0,0,.62-.19.81.81,0,0,0,.22-.64.68.68,0,0,0-.78-.77h-.53v1.6Z"/><path class="cls-1" d="M49.69,12h-2v1.31h1.87v.92H47.71v1.49h2.06v.92H46.59V11.12h3.1Z"/><path class="cls-1" d="M52.76,12.45a1.05,1.05,0,0,0-.11-.3.73.73,0,0,0-.2-.23.47.47,0,0,0-.29-.09.61.61,0,0,0-.58.45,4.44,4.44,0,0,0-.18,1.49c0,.33,0,.63,0,.9a3.49,3.49,0,0,0,.11.69,1,1,0,0,0,.23.43.53.53,0,0,0,.39.15.55.55,0,0,0,.22-.05.74.74,0,0,0,.23-.16.88.88,0,0,0,.18-.28,1,1,0,0,0,.07-.39V14.5h-.74v-.82h1.81v3H53.1v-.51h0a1.18,1.18,0,0,1-.49.46,1.57,1.57,0,0,1-.68.14,1.72,1.72,0,0,1-.84-.18,1.21,1.21,0,0,1-.51-.55,2.84,2.84,0,0,1-.24-.92,11.5,11.5,0,0,1-.06-1.27,7.5,7.5,0,0,1,.09-1.23,2.45,2.45,0,0,1,.31-.88,1.4,1.4,0,0,1,.58-.53,2,2,0,0,1,.89-.18,1.69,1.69,0,0,1,1.32.45,1.9,1.9,0,0,1,.4,1.3H52.79A1.54,1.54,0,0,0,52.76,12.45Z"/><path class="cls-1" d="M54.7,11.12h1.12v5.55H54.7Z"/><path class="cls-1" d="M59.12,11.12l1.47,5.55H59.42l-.26-1.17H57.69l-.26,1.17H56.27l1.47-5.55ZM57.45,10a.57.57,0,0,1,.48-.25.82.82,0,0,1,.33.06l.37.16a.62.62,0,0,0,.23,0,.17.17,0,0,0,.16-.1.39.39,0,0,0,.05-.18h.56a1.39,1.39,0,0,1-.23.69.58.58,0,0,1-.49.27.76.76,0,0,1-.25,0l-.24-.09-.23-.09a.55.55,0,0,0-.2,0q-.19,0-.25.28h-.54A1.56,1.56,0,0,1,57.45,10ZM59,14.58l-.54-2.5h0l-.54,2.5Z"/><path class="cls-1" d="M60.92,12.73a2.56,2.56,0,0,1,.26-.91,1.44,1.44,0,0,1,.57-.59,2.46,2.46,0,0,1,2,0,1.44,1.44,0,0,1,.57.59,2.56,2.56,0,0,1,.26.91,11.64,11.64,0,0,1,0,2.33,2.56,2.56,0,0,1-.26.91,1.37,1.37,0,0,1-.57.58,2.59,2.59,0,0,1-2,0,1.37,1.37,0,0,1-.57-.58,2.56,2.56,0,0,1-.26-.91,11.64,11.64,0,0,1,0-2.33ZM62,14.85a2.62,2.62,0,0,0,.11.64.71.71,0,0,0,.23.36.77.77,0,0,0,.8,0,.71.71,0,0,0,.23-.36,2.62,2.62,0,0,0,.11-.64c0-.26,0-.58,0-1s0-.69,0-.95a2.65,2.65,0,0,0-.11-.64.71.71,0,0,0-.23-.36.77.77,0,0,0-.8,0,.71.71,0,0,0-.23.36,2.65,2.65,0,0,0-.11.64c0,.26,0,.58,0,.95S62,14.59,62,14.85Z"/><path class="cls-1" d="M69.34,11.12l1.47,5.55H69.64l-.26-1.17H67.91l-.26,1.17H66.49L68,11.12Zm-.15,3.46-.54-2.5h0l-.54,2.5Z"/><path class="cls-1" d="M72.25,15a2.52,2.52,0,0,0,0,.38.87.87,0,0,0,.1.3.54.54,0,0,0,.2.2.75.75,0,0,0,.65,0,.56.56,0,0,0,.2-.2.87.87,0,0,0,.1-.3,2.52,2.52,0,0,0,0-.38V11.12h1.12V15a2.23,2.23,0,0,1-.15.87,1.39,1.39,0,0,1-.4.55,1.35,1.35,0,0,1-.57.27,3.05,3.05,0,0,1-.66.07,3.41,3.41,0,0,1-.66-.06,1.33,1.33,0,0,1-.57-.25,1.29,1.29,0,0,1-.4-.54,2.36,2.36,0,0,1-.15-.91V11.12h1.12Z"/><path class="cls-1" d="M78.63,12H77.42v4.63H76.3V12H75.08v-.92h3.54Z"/><path class="cls-1" d="M79.05,12.73a2.56,2.56,0,0,1,.26-.91,1.44,1.44,0,0,1,.57-.59,2.46,2.46,0,0,1,2,0,1.44,1.44,0,0,1,.57.59,2.56,2.56,0,0,1,.26.91,11.64,11.64,0,0,1,0,2.33,2.56,2.56,0,0,1-.26.91,1.37,1.37,0,0,1-.57.58,2.59,2.59,0,0,1-2,0,1.37,1.37,0,0,1-.57-.58,2.56,2.56,0,0,1-.26-.91,11.64,11.64,0,0,1,0-2.33Zm1.09,2.11a2.62,2.62,0,0,0,.11.64.71.71,0,0,0,.23.36.77.77,0,0,0,.8,0,.71.71,0,0,0,.23-.36,2.62,2.62,0,0,0,.11-.64c0-.26,0-.58,0-1s0-.69,0-.95a2.65,2.65,0,0,0-.11-.64.71.71,0,0,0-.23-.36.77.77,0,0,0-.8,0,.71.71,0,0,0-.23.36,2.65,2.65,0,0,0-.11.64c0,.26,0,.58,0,.95S80.12,14.59,80.14,14.85Zm1.73-5.17-.76,1.12h-.73l.42-1.12Z"/><path class="cls-1" d="M86.07,14.92h0v-3.8h1v5.55H85.84l-1.37-3.89h0v3.89h-1V11.12h1.29Z"/><path class="cls-1" d="M87.83,12.73a2.56,2.56,0,0,1,.26-.91,1.44,1.44,0,0,1,.57-.59,2.46,2.46,0,0,1,2,0,1.44,1.44,0,0,1,.57.59,2.56,2.56,0,0,1,.26.91,11.64,11.64,0,0,1,0,2.33,2.56,2.56,0,0,1-.26.91,1.37,1.37,0,0,1-.57.58,2.59,2.59,0,0,1-2,0,1.37,1.37,0,0,1-.57-.58,2.56,2.56,0,0,1-.26-.91,11.64,11.64,0,0,1,0-2.33Zm1.09,2.11a2.62,2.62,0,0,0,.11.64.71.71,0,0,0,.23.36.77.77,0,0,0,.8,0,.71.71,0,0,0,.23-.36,2.62,2.62,0,0,0,.11-.64c0-.26,0-.58,0-1s0-.69,0-.95a2.65,2.65,0,0,0-.11-.64.71.71,0,0,0-.23-.36.77.77,0,0,0-.8,0,.71.71,0,0,0-.23.36,2.65,2.65,0,0,0-.11.64c0,.26,0,.58,0,.95S88.9,14.59,88.92,14.85Z"/><path class="cls-1" d="M93.9,11.12,94.69,15h0l.8-3.92h1.66v5.55h-1V12.24h0l-1,4.43h-.87l-1-4.43h0v4.43h-1V11.12Z"/><path class="cls-1" d="M100.43,11.12l1.47,5.55h-1.17l-.26-1.17H99l-.26,1.17H97.58L99,11.12Zm-.15,3.46-.54-2.5h0l-.54,2.5Z"/><path class="cls-1" d="M44.16,20.45a2,2,0,0,1,.94.19,1.36,1.36,0,0,1,.56.54,2.41,2.41,0,0,1,.27.85,8.92,8.92,0,0,1,0,2.38,2.43,2.43,0,0,1-.31.89,1.35,1.35,0,0,1-.58.52,2.18,2.18,0,0,1-.93.17H42.32V20.45Zm-.22,4.72a1,1,0,0,0,.47-.1.69.69,0,0,0,.28-.33,2,2,0,0,0,.14-.61c0-.25,0-.57,0-.95s0-.59,0-.83a2.1,2.1,0,0,0-.13-.59.74.74,0,0,0-.29-.36.94.94,0,0,0-.51-.12h-.47v3.9Z"/><path class="cls-1" d="M49.19,20.45,50.66,26H49.5l-.26-1.17H47.76L47.51,26H46.34l1.47-5.55ZM49,23.91l-.54-2.5h0L48,23.91Z"/><path class="cls-1" d="M54.6,20.45l.79,3.92h0l.8-3.92h1.66V26h-1V21.57h0l-1,4.43H55l-1-4.43h0V26h-1V20.45Z"/><path class="cls-1" d="M61.13,20.45,62.6,26H61.44l-.26-1.17H59.7L59.45,26H58.28l1.47-5.55ZM61,23.91l-.54-2.5h0l-.54,2.5Z"/><path class="cls-1" d="M64.88,20.45a2,2,0,0,1,.94.19,1.36,1.36,0,0,1,.56.54,2.41,2.41,0,0,1,.27.85,8.92,8.92,0,0,1,0,2.38,2.43,2.43,0,0,1-.31.89,1.35,1.35,0,0,1-.58.52,2.18,2.18,0,0,1-.93.17H63V20.45Zm-.22,4.72a1,1,0,0,0,.47-.1.69.69,0,0,0,.28-.33,2,2,0,0,0,.14-.61c0-.25,0-.57,0-.95s0-.59,0-.83a2.1,2.1,0,0,0-.13-.59.74.74,0,0,0-.29-.36.94.94,0,0,0-.51-.12h-.47v3.9Z"/><path class="cls-1" d="M70.55,21.36h-2v1.31h1.87v.92H68.57v1.49h2.06V26H67.45V20.45h3.1Z"/><path class="cls-1" d="M71.24,20.45h1.12V26H71.24Z"/><path class="cls-1" d="M75.26,20.45a1.56,1.56,0,0,1,1.09.35,1.39,1.39,0,0,1,.39,1.08,1.67,1.67,0,0,1-.23.91,1,1,0,0,1-.7.46v0a1,1,0,0,1,.61.27,1.16,1.16,0,0,1,.24.68c0,.1,0,.22,0,.34s0,.26,0,.41,0,.52,0,.68a.43.43,0,0,0,.2.32v0H75.74a.6.6,0,0,1-.11-.27,2.94,2.94,0,0,1,0-.31l0-1.06a.87.87,0,0,0-.16-.51.6.6,0,0,0-.5-.19h-.6V26H73.2V20.45Zm-.48,2.42a.91.91,0,0,0,.62-.19.81.81,0,0,0,.22-.64.68.68,0,0,0-.78-.77h-.53v1.6Z"/><path class="cls-1" d="M80,20.45,81.45,26H80.28L80,24.82H78.55L78.29,26H77.13l1.47-5.55Zm-.15,3.46-.54-2.5h0l-.54,2.5Z"/><path class="cls-1" d="M0,0H39V26H0ZM13,26H26V0H13Z"/><path class="cls-1" d="M24.7,10.4v5.2l-1.3-1.3H20.8v2.6l1.3,1.3H16.9l1.3-1.3V14.3H15.6l-1.3,1.3V10.4l1.3,1.3h2.6V9.1L16.9,7.8h5.2L20.8,9.1v2.6h2.6ZM19.07,9.1v3.47H15.6v.87h3.47V16.9h.87V13.43H23.4v-.87H19.93V9.1Z"/><path class="cls-1" d="M38.75.25V25.75H.25V.25H38.75M39,0H0V26H39V0Z"/></g></g></svg>