<svg xmlns="http://www.w3.org/2000/svg" viewBox="0 0 62.47 26"><defs><style>.cls-1{opacity:0.8;}.cls-2,.cls-3{fill:#fff;}.cls-2{fill-rule:evenodd;}</style></defs><title>lg-qren-footer-tr</title><g id="Layer_2" data-name="Layer 2"><g id="Layer_1-2" data-name="Layer 1"><g class="cls-1"><path class="cls-2" d="M21.69,7.38h.82a3.5,3.5,0,1,0,0-7H14.37a.78.78,0,0,0-.78.78V12.48l-2.14-2.14a6.48,6.48,0,1,0-1.11,1.11l2.14,2.15H1.17a.78.78,0,0,0-.78.78V25.22a.78.78,0,0,0,.78.78h13.2a.78.78,0,0,0,.78-.78v-9l4.64,4.64,4.87,4.87A.78.78,0,0,0,26,25.22V12a.78.78,0,0,0-.23-.55ZM10.33,9.22,7.77,6.66,7.15,6A.78.78,0,0,0,6,7.15L7.77,8.88l1.44,1.45a4.86,4.86,0,1,1,1.11-1.11Zm3.26,15.22H2V20.58h8.11a.78.78,0,0,0,0-1.57H2V15.15H13.59ZM15.15,2H22.5a1.93,1.93,0,1,1,0,3.86H15.15Zm9.28,21.37-4.64-4.64L15.15,14V7.38h4.32l.32.32,4.64,4.64Z"/><path class="cls-2" d="M31.14,3.22C31.14,2.1,31,1.51,30,1.51V1.37c1.17,0,1.33.74,1.33,1.85S31.15,5,30.12,5.07h0l1.67.38v.17L30,5.15V4.93C31,4.93,31.14,4.34,31.14,3.22ZM30,1.51h0c-1,0-1.18.59-1.18,1.71S29,4.93,30,4.93h0v.21L29.5,5c-.77-.2-.88-.87-.88-1.8,0-1.11.17-1.85,1.33-1.85h0Z"/><path class="cls-2" d="M33.26,4.93c.71,0,1.1-.23,1.1-1.07V1.39h.15V3.86c0,1-.58,1.21-1.25,1.21S32,4.87,32,3.86V1.39h.15V3.86C32.16,4.7,32.55,4.93,33.26,4.93Z"/><path class="cls-2" d="M36.36,3.85h.76l-.76-2.21h0V1.37h.06L37.71,5h-.18L37.16,4h-.8Zm-.76,0h.76V4h-.8L35.2,5H35l1.29-3.68h.05v.27Z"/><path class="cls-2" d="M39.58,4.9c.85-.07,1.07-.62,1.07-1.68s-.22-1.61-1.07-1.68V1.4c1,.07,1.23.74,1.23,1.82S40.59,5,39.58,5Zm-1.07,0h1.07V5H38.35V1.39h1.23v.14H38.51Z"/><path class="cls-2" d="M42.79,3.22c.77,0,.88-.38.88-.84s-.11-.84-.88-.84H42.7V1.39h0c.91,0,1.11.36,1.11,1s-.15.88-.78,1L44,5h-.19L42.9,3.36h-.2V3.22ZM42.7,1.54h-1V3.22h1v.14h-1V5h-.16V1.39H42.7Z"/><path class="cls-2" d="M47,3.22c0-1.12-.17-1.71-1.18-1.71V1.37c1.17,0,1.33.74,1.33,1.85S47,5.07,45.81,5.07V4.93C46.82,4.93,47,4.34,47,3.22ZM45.81,1.51h0c-1,0-1.18.59-1.18,1.71s.17,1.71,1.18,1.71h0v.14h0c-1.16,0-1.33-.74-1.33-1.85s.17-1.85,1.33-1.85h0Z"/><path class="cls-2" d="M29.93,10.58C30.78,10.51,31,10,31,8.91s-.22-1.61-1.07-1.68V7.08c1,.07,1.23.74,1.23,1.82s-.22,1.75-1.23,1.82Zm-1.07,0h1.07v.14H28.7V7.08h1.23v.14H28.86Z"/><polygon class="cls-2" points="33.76 8.9 32.07 8.9 32.07 10.59 33.94 10.59 33.94 10.73 31.91 10.73 31.91 7.08 33.94 7.08 33.94 7.22 32.07 7.22 32.07 8.77 33.76 8.77 33.76 8.9"/><path class="cls-2" d="M36.89,8.91c.77,0,.88-.38.88-.84s-.11-.84-.88-.84H36.8V7.08h0c.91,0,1.11.36,1.11,1s-.15.88-.78,1l.92,1.7h-.19L37,9h-.2V8.91ZM36.8,7.22h-1V8.91h1V9h-1v1.69h-.16V7.08H36.8Z"/><polygon class="cls-2" points="40.55 8.9 38.86 8.9 38.86 10.59 40.73 10.59 40.73 10.73 38.7 10.73 38.7 7.08 40.73 7.08 40.73 7.22 38.86 7.22 38.86 8.77 40.55 8.77 40.55 8.9"/><polygon class="cls-2" points="43.25 8.9 41.61 8.9 41.61 10.73 41.45 10.73 41.45 7.08 43.43 7.08 43.43 7.22 41.61 7.22 41.61 8.77 43.25 8.77 43.25 8.9"/><polygon class="cls-2" points="45.97 8.9 44.28 8.9 44.28 10.59 46.15 10.59 46.15 10.73 44.12 10.73 44.12 7.08 46.15 7.08 46.15 7.22 44.28 7.22 44.28 8.77 45.97 8.77 45.97 8.9"/><path class="cls-2" d="M48.09,8.91c.77,0,.88-.38.88-.84s-.11-.84-.88-.84H48V7.08h0c.91,0,1.11.36,1.11,1s-.15.88-.78,1l.92,1.7h-.19L48.2,9H48V8.91ZM48,7.22H47V8.91h1V9H47v1.69h-.16V7.08H48Z"/><path class="cls-2" d="M51.72,6.71,51,5.86h-.19l-.71.85h.12l.69-.7.69.7Zm0,2.19H50.06v1.69h1.87v.14h-2V7.08h2v.14H50.06V8.77h1.69Z"/><polygon class="cls-2" points="55 10.73 52.8 7.42 52.81 10.73 52.65 10.73 52.65 7.08 52.74 7.08 54.95 10.39 54.94 7.08 55.1 7.08 55.1 10.73 55 10.73"/><path class="cls-2" d="M55.84,8.91c0-1.18.34-1.85,1.41-1.85a2.38,2.38,0,0,1,.9.14v.15a2.29,2.29,0,0,0-.9-.15c-.91,0-1.26.57-1.26,1.71s.34,1.71,1.26,1.71a2.33,2.33,0,0,0,.9-.15v.15a2.38,2.38,0,0,1-.9.14C56.18,10.76,55.84,10.08,55.84,8.91Z"/><rect class="cls-3" x="58.93" y="7.08" width="0.15" height="3.65"/><path class="cls-2" d="M61.12,9.54h.76l-.75-2.21h0V7.05h.06l1.29,3.68h-.18l-.37-1.06h-.8Zm-.76,0h.76v.14h-.8L60,10.73h-.18l1.29-3.68h.05v.28Z"/><polygon class="cls-2" points="30.55 14.59 28.86 14.59 28.86 16.27 30.73 16.27 30.73 16.41 28.7 16.41 28.7 12.76 30.73 12.76 30.73 12.9 28.86 12.9 28.86 14.45 30.55 14.45 30.55 14.59"/><path class="cls-2" d="M32.58,12.74a2.4,2.4,0,0,1,.9.14V13a2.35,2.35,0,0,0-.9-.15c-.83,0-1,.37-1,.81,0,.59.25.68,1,.76s1.11.16,1.11,1c0,.48-.24,1-1.32,1a3.11,3.11,0,0,1-1-.17v-.15a2.65,2.65,0,0,0,1,.17c.89,0,1.16-.39,1.16-.89s-.16-.72-1-.82-1.13-.2-1.13-.9C31.4,13.22,31.62,12.74,32.58,12.74Z"/><polygon class="cls-2" points="35.41 12.9 35.41 16.41 35.25 16.41 35.25 12.9 34.19 12.9 34.19 12.76 36.47 12.76 36.47 12.9 35.41 12.9"/><path class="cls-2" d="M38.35,14.59c.77,0,.88-.37.88-.84s-.11-.84-.88-.84h-.09v-.14h0c.91,0,1.11.36,1.11,1s-.15.88-.77,1l.92,1.7h-.19l-.88-1.69h-.2v-.14Zm-.09-1.69h-1v1.69h1v.14h-1v1.68h-.16V12.76h1.13Z"/><path class="cls-2" d="M41.39,15.22h.76L41.4,13h0v-.29h.06l1.29,3.68h-.18l-.37-1.06h-.8Zm-.76,0h.76v.14h-.8l-.36,1.06h-.18l1.29-3.68h.05V13Z"/><polygon class="cls-2" points="43.98 12.9 43.98 16.41 43.82 16.41 43.82 12.9 42.76 12.9 42.76 12.76 45.04 12.76 45.04 12.9 43.98 12.9"/><path class="cls-2" d="M46.67,12.35l.51-.85h.24l-.66.85Zm.88,2.24H45.85v1.69h1.87v.14h-2V12.76h2v.14H45.85v1.55h1.69Z"/><path class="cls-2" d="M49.73,16.3a2.35,2.35,0,0,0,.92-.16V14.72h-.79v-.14h.95v1.66a2.79,2.79,0,0,1-1.08.19c-1.08,0-1.41-.67-1.41-1.85s.34-1.85,1.41-1.85a2.25,2.25,0,0,1,1,.18v.15a2.43,2.43,0,0,0-1-.18c-.91,0-1.26.57-1.26,1.71S48.82,16.3,49.73,16.3Z"/><rect class="cls-3" x="51.65" y="12.76" width="0.15" height="3.65"/><path class="cls-2" d="M52.61,14.59c0-1.18.34-1.85,1.41-1.85a2.38,2.38,0,0,1,.9.14V13a2.31,2.31,0,0,0-.9-.15c-.91,0-1.26.57-1.26,1.71S53.11,16.3,54,16.3a2.29,2.29,0,0,0,.9-.15v.15a2.41,2.41,0,0,1-.9.14C52.94,16.44,52.61,15.76,52.61,14.59Z"/><path class="cls-2" d="M57.94,14.59c0-1.12-.18-1.71-1.18-1.71v-.14c1.17,0,1.33.74,1.33,1.85s-.16,1.85-1.33,1.85V16.3C57.77,16.3,57.94,15.71,57.94,14.59Zm-1.18-1.71c-1,0-1.18.59-1.18,1.71s.18,1.71,1.18,1.71v.14c-1.17,0-1.33-.74-1.33-1.85s.17-1.85,1.33-1.85Z"/><polygon class="cls-2" points="31.06 22.1 28.85 18.78 28.86 22.1 28.7 22.1 28.7 18.44 28.8 18.44 31 21.75 30.99 18.44 31.16 18.44 31.16 22.1 31.06 22.1"/><path class="cls-2" d="M33.14,20.9h.76l-.75-2.21h0v-.28h.06l1.29,3.68h-.18L33.94,21h-.8Zm-.76,0h.76V21h-.8L32,22.1H31.8l1.29-3.68h.05v.28Z"/><path class="cls-2" d="M34.91,20.27c0-1.18.34-1.85,1.41-1.85a2.37,2.37,0,0,1,.9.14v.15a2.31,2.31,0,0,0-.9-.15c-.91,0-1.26.57-1.26,1.71S35.41,22,36.32,22a2.31,2.31,0,0,0,.9-.15V22a2.41,2.41,0,0,1-.9.14C35.25,22.12,34.91,21.45,34.91,20.27Z"/><rect class="cls-3" x="37.99" y="18.44" width="0.16" height="3.65"/><path class="cls-2" d="M41.47,20.27c0-1.12-.17-1.71-1.18-1.71v-.14c1.17,0,1.33.74,1.33,1.85s-.16,1.85-1.33,1.85V22C41.3,22,41.47,21.39,41.47,20.27Zm-1.18-1.71h0c-1,0-1.18.59-1.18,1.71S39.29,22,40.29,22h0v.14h0c-1.16,0-1.33-.74-1.33-1.85s.17-1.85,1.33-1.85h0Z"/><polygon class="cls-2" points="44.75 22.1 42.54 18.78 42.55 22.1 42.39 22.1 42.39 18.44 42.49 18.44 44.7 21.75 44.69 18.44 44.85 18.44 44.85 22.1 44.75 22.1"/><path class="cls-2" d="M46.83,20.9h.76l-.76-2.21h0v-.28h.06l1.29,3.68H48L47.63,21h-.8Zm-.76,0h.76V21H46l-.36,1.06h-.18l1.29-3.68h.05v.28Z"/><polygon class="cls-2" points="48.98 21.95 50.75 21.95 50.75 22.1 48.83 22.1 48.83 18.44 48.98 18.44 48.98 21.95"/><path class="cls-2" d="M29.21,25a.32.32,0,0,0,.36-.35c0-.16-.06-.34-.36-.35v-.15a.49.49,0,1,1,0,1Zm-.36,0h.36v.14h-.36v.65H28.7V24.12h.51v.15h-.36Z"/><path class="cls-2" d="M30.67,24.24h0V24.1h0c.54,0,.61.41.61.84s-.07.84-.61.84h0v-.14h0c.39,0,.45-.32.45-.7S31.06,24.24,30.67,24.24Zm0,0c-.4,0-.45.32-.45.7s.05.7.45.7v.14c-.53,0-.61-.41-.61-.84s.08-.84.61-.84Z"/><path class="cls-2" d="M32.18,24.9h0c.29,0,.33-.14.33-.32s0-.32-.33-.32h0v-.15c.41,0,.53.18.53.46a.39.39,0,0,1-.3.44l.39.74h-.2L32.25,25h-.07Zm-.36,0h.36V25h-.36v.72h-.15V24.12h.52v.15h-.36Z"/><polygon class="cls-2" points="33.6 24.27 33.6 25.76 33.45 25.76 33.45 24.27 33 24.27 33 24.13 34.06 24.13 34.06 24.27 33.6 24.27"/><path class="cls-2" d="M35.39,25.22v-1.1h.16v1.12a.58.58,0,0,1-1.16,0V24.12h.15v1.1a.42.42,0,0,0,.85,0Z"/><path class="cls-2" d="M36.55,25.78c-.49,0-.64-.37-.64-.84s.15-.84.64-.84a1,1,0,0,1,.46.09v.15a1.06,1.06,0,0,0-.46-.1c-.36,0-.48.31-.48.7s.13.7.48.7a1,1,0,0,0,.35,0V25h-.34V24.9h.49v.79A1.16,1.16,0,0,1,36.55,25.78Z"/><path class="cls-2" d="M38,25.17h.27L38,24.35V24.1h.05l.58,1.66h-.17l-.15-.46H38Zm-.27,0H38v.14h-.31l-.15.46h-.17L38,24.1H38v.25h0Z"/><polygon class="cls-2" points="39.12 25.62 39.87 25.62 39.87 25.76 38.97 25.76 38.97 24.13 39.12 24.13 39.12 25.62"/><path class="cls-2" d="M40.69,24.36a1,1,0,0,0-.44.1v-.29a1.07,1.07,0,0,1,.43-.09c.47,0,.53.27.53.46A.62.62,0,0,1,41,25l-.46.51h.68v.28H40.16v-.2l.69-.85a.23.23,0,0,0,.07-.16C40.92,24.45,40.88,24.36,40.69,24.36Z"/><path class="cls-2" d="M42,25.52c.2,0,.26-.12.26-.58s-.05-.58-.26-.58v-.27c.41,0,.54.18.54.85s-.14.85-.54.85Zm-.26-.58c0,.46.05.58.25.58h0v.27h0c-.4,0-.55-.18-.55-.85s.14-.85.55-.85h0v.27h0C41.81,24.36,41.76,24.49,41.76,24.94Z"/><path class="cls-2" d="M43.35,25.52c.2,0,.26-.12.26-.58s-.05-.58-.26-.58v-.27c.4,0,.55.18.55.85s-.14.85-.55.85Zm-.26-.58c0,.46.05.58.25.58h0v.27h0c-.4,0-.55-.18-.55-.85s.14-.85.55-.85h0v.27h0C43.15,24.36,43.1,24.49,43.1,24.94Z"/><polygon class="cls-2" points="44.29 25.76 44.91 24.4 44.1 24.4 44.1 24.12 45.24 24.12 45.24 24.31 44.6 25.76 44.29 25.76"/><circle class="cls-3" cx="45.39" cy="25.62" r="0.18"/><path class="cls-2" d="M46.32,24.36a1,1,0,0,0-.43.1v-.29a1.06,1.06,0,0,1,.43-.09c.47,0,.53.27.53.46a.63.63,0,0,1-.2.42l-.47.51h.68v.28H45.8v-.2l.69-.85a.24.24,0,0,0,.07-.16C46.56,24.45,46.52,24.36,46.32,24.36Z"/><path class="cls-2" d="M47.65,25.52c.2,0,.26-.12.26-.58s-.05-.58-.26-.58v-.27c.4,0,.55.18.55.85s-.14.85-.55.85Zm-.26-.58c0,.46.05.58.26.58h0v.27h0c-.41,0-.55-.18-.55-.85s.14-.85.55-.85h0v.27h0C47.45,24.36,47.4,24.49,47.4,24.94Z"/><polygon class="cls-2" points="48.45 25.5 48.77 25.5 48.77 24.38 48.46 24.39 48.46 24.22 48.92 24.09 49.06 24.09 49.06 25.5 49.38 25.5 49.38 25.76 48.45 25.76 48.45 25.5"/><path class="cls-2" d="M49.67,24.45v-.3a1.69,1.69,0,0,1,.45-.06c.45,0,.58.23.58.48a.49.49,0,0,1-.12.32.47.47,0,0,1,.17.38c0,.27-.15.53-.61.53a1.22,1.22,0,0,1-.47-.07v-.29a1.54,1.54,0,0,0,.47.08c.24,0,.31-.12.31-.24s-.06-.21-.26-.21h-.3v-.29h.3a.18.18,0,0,0,.21-.2c0-.1-.06-.2-.28-.2A1.54,1.54,0,0,0,49.67,24.45Z"/></g></g></g></svg>