<svg xmlns="http://www.w3.org/2000/svg" viewBox="0 0 121.12 26"><defs><style>.cls-1{opacity:0.8;}.cls-2,.cls-3{fill:#fff;}.cls-2{fill-rule:evenodd;}</style></defs><title>lg-ue-footer-tr</title><g id="Layer_2" data-name="Layer 2"><g id="Layer_1-2" data-name="Layer 1"><g class="cls-1"><path class="cls-2" d="M81.47,26V0h39.65V26Zm19.82-5.84-.3.92h-1l.78.57-.3.92.78-.57.78.57-.3-.92.78-.57h-1l-.3-.92Zm0-16.93.3.92h1l-.79.57.3.92-.78-.57-.78.57.3-.92L100,4.15h1l.3-.92ZM97,4.43l.3.92h1l-.78.57.3.92L97,6.27l-.78.57.3-.92-.78-.57h1l.3-.92Zm-3,3,.3.92h1l-.78.57.3.92L94,9.26l-.78.57.3-.92-.78-.57h1l.3-.92Zm-1.14,4.32.3.92h1l-.78.57.3.92-.79-.57-.78.57.3-.92-.78-.57h1l.3-.92Zm1,4.2.3.92h1l-.78.57.3.92-.78-.57-.78.57.3-.92-.78-.57h1l.3-.92Zm3.18,3.18.29.92h1l-.78.57.3.92L97.07,21l-.78.57.3-.92L95.81,20h1l.3-.92ZM105.6,4.43l-.3.92h-1l.78.57-.3.92.78-.57.78.57-.3-.92.78-.57h-1l-.3-.92Zm3,3-.3.92h-1l.78.57-.3.92.78-.57.78.57-.3-.92.78-.57h-1l-.3-.92Zm1.14,4.32-.3.92h-1l.78.57-.3.92.78-.57.78.57-.3-.92.78-.57h-1l-.3-.92Zm-1,4.2-.3.92h-1l.78.57-.3.92.78-.57.78.57-.3-.92.78-.57h-1l-.3-.92ZM105.22,20h-1l.78.57-.3.92.78-.57.78.57-.3-.92.78-.57h-1l-.3-.92Z"/><path class="cls-3" d="M34.24,5.46a2.21,2.21,0,0,0,0,.34.78.78,0,0,0,.09.27.48.48,0,0,0,.18.18.57.57,0,0,0,.29.07.57.57,0,0,0,.29-.07.49.49,0,0,0,.18-.18.78.78,0,0,0,.09-.27,2.21,2.21,0,0,0,0-.34V2h1V5.46a2,2,0,0,1-.13.78,1.25,1.25,0,0,1-.36.49,1.2,1.2,0,0,1-.51.24,2.75,2.75,0,0,1-.59.06A3.11,3.11,0,0,1,34.24,7a1.2,1.2,0,0,1-.51-.23,1.16,1.16,0,0,1-.36-.48,2.12,2.12,0,0,1-.13-.81V2h1Z"/><path class="cls-3" d="M37,2h1V7H37Z"/><path class="cls-3" d="M40.94,5.39h0V2h.92V7H40.73L39.5,3.48h0V7h-.92V2h1.16Z"/><path class="cls-3" d="M44.63,2,46,7h-1l-.23-1.05H43.35L43.12,7h-1l1.32-5ZM43.14,1a.51.51,0,0,1,.43-.22.73.73,0,0,1,.3,0L44.2,1a.56.56,0,0,0,.21,0,.16.16,0,0,0,.15-.09.35.35,0,0,0,0-.16h.5a1.25,1.25,0,0,1-.21.62.52.52,0,0,1-.44.24.68.68,0,0,1-.22,0L44,1.5l-.21-.08a.5.5,0,0,0-.18,0q-.17,0-.22.25h-.49A1.39,1.39,0,0,1,43.14,1Zm1.36,4.1L44,2.85h0l-.48,2.24Z"/><path class="cls-3" d="M46.11,3.43a2.31,2.31,0,0,1,.23-.82,1.29,1.29,0,0,1,.51-.53,2.21,2.21,0,0,1,1.8,0,1.29,1.29,0,0,1,.51.53,2.31,2.31,0,0,1,.23.82,9.65,9.65,0,0,1,.05,1,9.63,9.63,0,0,1-.05,1,2.3,2.3,0,0,1-.23.81,1.22,1.22,0,0,1-.51.52,2.31,2.31,0,0,1-1.8,0,1.22,1.22,0,0,1-.51-.52,2.3,2.3,0,0,1-.23-.81,9.63,9.63,0,0,1-.05-1A9.66,9.66,0,0,1,46.11,3.43Zm1,1.89a2.35,2.35,0,0,0,.1.57.63.63,0,0,0,.21.32.69.69,0,0,0,.72,0,.63.63,0,0,0,.21-.32,2.35,2.35,0,0,0,.1-.57q0-.35,0-.85t0-.85a2.4,2.4,0,0,0-.1-.57.63.63,0,0,0-.21-.32.69.69,0,0,0-.72,0,.63.63,0,0,0-.21.32,2.4,2.4,0,0,0-.1.57q0,.35,0,.85T47.08,5.33Z"/><path class="cls-3" d="M54.2,2.81H52.43V4H54.1V4.8H52.43V6.14h1.85V7H51.42V2H54.2Z"/><path class="cls-3" d="M55.58,5.46a2.21,2.21,0,0,0,0,.34.78.78,0,0,0,.09.27.48.48,0,0,0,.18.18.57.57,0,0,0,.29.07.57.57,0,0,0,.29-.07.49.49,0,0,0,.18-.18.78.78,0,0,0,.09-.27,2.21,2.21,0,0,0,0-.34V2h1V5.46a2,2,0,0,1-.13.78,1.25,1.25,0,0,1-.36.49,1.2,1.2,0,0,1-.51.24,2.75,2.75,0,0,1-.59.06A3.11,3.11,0,0,1,55.57,7a1.2,1.2,0,0,1-.51-.23,1.16,1.16,0,0,1-.36-.48,2.12,2.12,0,0,1-.13-.81V2h1Z"/><path class="cls-3" d="M60.1,2a1.4,1.4,0,0,1,1,.32,1.24,1.24,0,0,1,.35,1,1.5,1.5,0,0,1-.2.82.93.93,0,0,1-.63.41h0a.91.91,0,0,1,.55.24,1,1,0,0,1,.22.61c0,.09,0,.19,0,.3s0,.23,0,.37,0,.47,0,.61a.39.39,0,0,0,.18.29V7H60.53a.54.54,0,0,1-.1-.24,2.68,2.68,0,0,1,0-.28l0-1A.79.79,0,0,0,60.23,5a.54.54,0,0,0-.45-.17h-.54V7h-1V2Zm-.43,2.17A.82.82,0,0,0,60.22,4a.73.73,0,0,0,.19-.57.61.61,0,0,0-.7-.69h-.47V4.16Z"/><path class="cls-3" d="M61.92,3.43a2.31,2.31,0,0,1,.23-.82,1.29,1.29,0,0,1,.51-.53,2.21,2.21,0,0,1,1.8,0,1.29,1.29,0,0,1,.51.53,2.31,2.31,0,0,1,.23.82,9.65,9.65,0,0,1,.05,1,9.63,9.63,0,0,1-.05,1,2.3,2.3,0,0,1-.23.81,1.22,1.22,0,0,1-.51.52,2.31,2.31,0,0,1-1.8,0,1.22,1.22,0,0,1-.51-.52,2.3,2.3,0,0,1-.23-.81,9.63,9.63,0,0,1-.05-1A9.66,9.66,0,0,1,61.92,3.43Zm1,1.89a2.35,2.35,0,0,0,.1.57.63.63,0,0,0,.21.32.69.69,0,0,0,.72,0,.63.63,0,0,0,.21-.32,2.35,2.35,0,0,0,.1-.57q0-.35,0-.85t0-.85a2.4,2.4,0,0,0-.1-.57.63.63,0,0,0-.21-.32.69.69,0,0,0-.72,0,.63.63,0,0,0-.21.32,2.4,2.4,0,0,0-.1.57q0,.35,0,.85T62.9,5.33Z"/><path class="cls-3" d="M67.46,2a1.45,1.45,0,0,1,.64.13,1.17,1.17,0,0,1,.42.34,1.32,1.32,0,0,1,.23.48,2.17,2.17,0,0,1,.07.55,1.79,1.79,0,0,1-.11.67,1.22,1.22,0,0,1-.32.47,1.34,1.34,0,0,1-.5.27,2.18,2.18,0,0,1-.65.09h-.54V7h-1V2Zm-.31,2.25a.66.66,0,0,0,.48-.18.76.76,0,0,0,.18-.56.88.88,0,0,0-.16-.57.66.66,0,0,0-.54-.19h-.42V4.24Z"/><path class="cls-3" d="M72,2.81H70.19V4h1.67V4.8H70.19V6.14H72V7H69.18V2H72Z"/><path class="cls-3" d="M72.44,2h1V7h-1Z"/><path class="cls-3" d="M76.26,2l1.32,5h-1L76.3,5.91H75L74.75,7h-1L75,2Zm-.13,3.1-.48-2.24h0l-.48,2.24Z"/><path class="cls-3" d="M41,10.35v.82H39.23v1.17H40.9v.82H39.23v2.16h-1v-5Z"/><path class="cls-3" d="M43.19,14.88a.91.91,0,0,1-.4.4,1.26,1.26,0,0,1-.56.12,1,1,0,0,1-.71-.24,1.09,1.09,0,0,1-.25-.8V11.57h1v2.58a.64.64,0,0,0,.1.41.39.39,0,0,0,.31.11q.51,0,.51-.62V11.57h1v3.75h-.92v-.44Z"/><path class="cls-3" d="M45.55,11.57V12h0a1,1,0,0,1,.4-.41,1.18,1.18,0,0,1,.56-.13,1,1,0,0,1,.71.25,1.13,1.13,0,0,1,.25.81v2.78h-1V12.73a.64.64,0,0,0-.1-.41.39.39,0,0,0-.31-.11q-.51,0-.51.62v2.49h-1V11.57Z"/><path class="cls-3" d="M49.88,14.92a1,1,0,0,1-.36.37,1,1,0,0,1-.49.1,1,1,0,0,1-.87-.45,3,3,0,0,1-.28-1.5,3.06,3.06,0,0,1,.28-1.51.94.94,0,0,1,.87-.46.91.91,0,0,1,.46.11,1.09,1.09,0,0,1,.34.33h0V10.35h1v5h-.92v-.4Zm-.94-.55a.39.39,0,0,0,.41.31.4.4,0,0,0,.41-.31,3.4,3.4,0,0,0,.09-.92,3.4,3.4,0,0,0-.09-.92.4.4,0,0,0-.41-.31.39.39,0,0,0-.41.31,3.39,3.39,0,0,0-.09.92A3.38,3.38,0,0,0,48.94,14.37Z"/><path class="cls-3" d="M51.27,12.59a1.63,1.63,0,0,1,.25-.62A1.12,1.12,0,0,1,52,11.6a1.66,1.66,0,0,1,.69-.13,1.77,1.77,0,0,1,.72.11,1,1,0,0,1,.45.37,1.67,1.67,0,0,1,.24.62,4.72,4.72,0,0,1,.07.86,4.2,4.2,0,0,1-.08.85,1.64,1.64,0,0,1-.25.62,1,1,0,0,1-.46.37,1.79,1.79,0,0,1-.69.12,1.86,1.86,0,0,1-.72-.11,1,1,0,0,1-.45-.36,1.63,1.63,0,0,1-.24-.62,4.74,4.74,0,0,1-.07-.86A4.2,4.2,0,0,1,51.27,12.59Zm.9,1.38a1.85,1.85,0,0,0,.07.42.6.6,0,0,0,.16.27.39.39,0,0,0,.28.1.41.41,0,0,0,.4-.31,3.25,3.25,0,0,0,.11-1,3.25,3.25,0,0,0-.11-1,.41.41,0,0,0-.4-.31.39.39,0,0,0-.28.1.6.6,0,0,0-.16.27,1.85,1.85,0,0,0-.07.42q0,.24,0,.53T52.16,14Z"/><path class="cls-3" d="M58.86,11.17H57.08v1.17h1.67v.82H57.08V14.5h1.85v.82H56.08v-5h2.78Z"/><path class="cls-3" d="M61.17,14.88a.91.91,0,0,1-.4.4,1.26,1.26,0,0,1-.56.12,1,1,0,0,1-.71-.24,1.09,1.09,0,0,1-.25-.8V11.57h1v2.58a.64.64,0,0,0,.1.41.39.39,0,0,0,.31.11q.51,0,.51-.62V11.57h1v3.75h-.92v-.44Z"/><path class="cls-3" d="M63.52,11.57v.5h0a1.36,1.36,0,0,1,.36-.44.8.8,0,0,1,.51-.16h.17v.92h-.3a.93.93,0,0,0-.25,0,.67.67,0,0,0-.23.11.58.58,0,0,0-.17.21.72.72,0,0,0-.06.32v2.25h-1V11.57Z"/><path class="cls-3" d="M64.73,12.59A1.63,1.63,0,0,1,65,12a1.12,1.12,0,0,1,.46-.38,1.66,1.66,0,0,1,.69-.13,1.77,1.77,0,0,1,.72.11,1,1,0,0,1,.45.37,1.67,1.67,0,0,1,.24.62,4.72,4.72,0,0,1,.07.86,4.2,4.2,0,0,1-.08.85,1.64,1.64,0,0,1-.25.62,1,1,0,0,1-.46.37,1.79,1.79,0,0,1-.69.12,1.86,1.86,0,0,1-.72-.11,1,1,0,0,1-.45-.36,1.63,1.63,0,0,1-.24-.62,4.74,4.74,0,0,1-.07-.86A4.2,4.2,0,0,1,64.73,12.59Zm.9,1.38a1.85,1.85,0,0,0,.07.42.6.6,0,0,0,.16.27.39.39,0,0,0,.28.1.41.41,0,0,0,.4-.31,3.25,3.25,0,0,0,.11-1,3.25,3.25,0,0,0-.11-1,.41.41,0,0,0-.4-.31.39.39,0,0,0-.28.1.6.6,0,0,0-.16.27,1.85,1.85,0,0,0-.07.42q0,.24,0,.53T65.63,14Z"/><path class="cls-3" d="M68.91,11.57V12h0a1.06,1.06,0,0,1,.36-.38,1,1,0,0,1,.49-.11.94.94,0,0,1,.87.46,3.06,3.06,0,0,1,.28,1.51,3,3,0,0,1-.28,1.5,1,1,0,0,1-.87.45A.89.89,0,0,1,69,15h0v1.55H68v-5Zm.14,2.8a.4.4,0,0,0,.41.31.39.39,0,0,0,.41-.31,3.38,3.38,0,0,0,.09-.92,3.39,3.39,0,0,0-.09-.92.39.39,0,0,0-.41-.31.4.4,0,0,0-.41.31,3.4,3.4,0,0,0-.09.92A3.4,3.4,0,0,0,69,14.37Z"/><path class="cls-3" d="M72.15,13.89a2.11,2.11,0,0,0,0,.32,1.05,1.05,0,0,0,.08.28.53.53,0,0,0,.15.19.34.34,0,0,0,.22.07.39.39,0,0,0,.36-.17,1.29,1.29,0,0,0,.15-.53H74a1.5,1.5,0,0,1-.35,1,1.33,1.33,0,0,1-1,.34,1.6,1.6,0,0,1-.81-.17,1.08,1.08,0,0,1-.43-.46,1.81,1.81,0,0,1-.17-.64q0-.36,0-.71a4.85,4.85,0,0,1,.05-.72,1.74,1.74,0,0,1,.21-.62,1.13,1.13,0,0,1,.45-.43,1.63,1.63,0,0,1,.78-.16,1.51,1.51,0,0,1,.69.14,1,1,0,0,1,.42.38,1.61,1.61,0,0,1,.21.6,5,5,0,0,1,.06.78v.22h-1.9Zm1-1.25a1,1,0,0,0-.07-.28.39.39,0,0,0-.15-.17.45.45,0,0,0-.24-.06.41.41,0,0,0-.24.07.47.47,0,0,0-.15.17.86.86,0,0,0-.08.24,1.46,1.46,0,0,0,0,.26V13h1Q73.13,12.8,73.11,12.64Z"/><path class="cls-3" d="M76.32,14.88a.91.91,0,0,1-.4.4,1.26,1.26,0,0,1-.56.12,1,1,0,0,1-.71-.24,1.09,1.09,0,0,1-.25-.8V11.57h1v2.58a.64.64,0,0,0,.1.41.39.39,0,0,0,.31.11q.51,0,.51-.62V11.57h1v3.75h-.92v-.44Z"/><path class="cls-3" d="M2,23.28a1,1,0,0,1-.36.37,1,1,0,0,1-.49.1,1,1,0,0,1-.87-.45A3,3,0,0,1,0,21.8a3.06,3.06,0,0,1,.28-1.51.94.94,0,0,1,.87-.46.91.91,0,0,1,.46.11,1.09,1.09,0,0,1,.34.33H2V18.7h1v5H2v-.4Zm-.94-.55a.39.39,0,0,0,.41.31.4.4,0,0,0,.41-.31A3.4,3.4,0,0,0,2,21.8a3.4,3.4,0,0,0-.09-.92.4.4,0,0,0-.41-.31.39.39,0,0,0-.41.31A3.39,3.39,0,0,0,1,21.8,3.38,3.38,0,0,0,1.06,22.72Z"/><path class="cls-3" d="M4.26,22.25a2.11,2.11,0,0,0,0,.32,1.05,1.05,0,0,0,.08.28.53.53,0,0,0,.15.19.34.34,0,0,0,.22.07.39.39,0,0,0,.36-.17,1.29,1.29,0,0,0,.15-.53H6.1a1.5,1.5,0,0,1-.35,1,1.33,1.33,0,0,1-1,.34,1.6,1.6,0,0,1-.81-.17,1.08,1.08,0,0,1-.43-.46,1.81,1.81,0,0,1-.17-.64q0-.36,0-.71A4.85,4.85,0,0,1,3.35,21a1.74,1.74,0,0,1,.21-.62A1.13,1.13,0,0,1,4,20a1.63,1.63,0,0,1,.78-.16,1.51,1.51,0,0,1,.69.14,1,1,0,0,1,.42.38,1.61,1.61,0,0,1,.21.6,5,5,0,0,1,.06.78v.22H4.26Zm1-1.25a1,1,0,0,0-.07-.28A.39.39,0,0,0,5,20.54a.45.45,0,0,0-.24-.06.41.41,0,0,0-.24.07.47.47,0,0,0-.15.17.86.86,0,0,0-.08.24,1.46,1.46,0,0,0,0,.26v.15h1Q5.23,21.16,5.21,21Z"/><path class="cls-3" d="M9.77,18.7a1.8,1.8,0,0,1,.84.17,1.22,1.22,0,0,1,.5.49,2.17,2.17,0,0,1,.24.76,7.2,7.2,0,0,1,.06,1,7.1,7.1,0,0,1-.08,1.14,2.18,2.18,0,0,1-.28.8,1.21,1.21,0,0,1-.52.47,2,2,0,0,1-.83.15H8.13v-5Zm-.19,4.23a.86.86,0,0,0,.42-.09.62.62,0,0,0,.25-.3,1.76,1.76,0,0,0,.13-.55q0-.34,0-.85t0-.75a1.84,1.84,0,0,0-.11-.53.66.66,0,0,0-.26-.32.84.84,0,0,0-.46-.11H9.13v3.5Z"/><path class="cls-3" d="M12.73,22.25a2.11,2.11,0,0,0,0,.32,1.05,1.05,0,0,0,.08.28A.53.53,0,0,0,13,23a.34.34,0,0,0,.22.07.39.39,0,0,0,.36-.17,1.29,1.29,0,0,0,.15-.53h.86a1.5,1.5,0,0,1-.35,1,1.33,1.33,0,0,1-1,.34,1.6,1.6,0,0,1-.81-.17,1.08,1.08,0,0,1-.43-.46,1.81,1.81,0,0,1-.17-.64q0-.36,0-.71a4.85,4.85,0,0,1,.05-.72,1.74,1.74,0,0,1,.21-.62,1.13,1.13,0,0,1,.45-.43,1.63,1.63,0,0,1,.78-.16,1.51,1.51,0,0,1,.69.14,1,1,0,0,1,.42.38,1.61,1.61,0,0,1,.21.6,5,5,0,0,1,.06.78v.22h-1.9Zm1-1.25a1,1,0,0,0-.07-.28.39.39,0,0,0-.15-.17.45.45,0,0,0-.24-.06.41.41,0,0,0-.24.07.47.47,0,0,0-.15.17.86.86,0,0,0-.08.24,1.46,1.46,0,0,0,0,.26v.15h1Q13.71,21.16,13.68,21Z"/><path class="cls-3" d="M15.7,22.58a.58.58,0,0,0,.13.39.46.46,0,0,0,.37.15.53.53,0,0,0,.36-.11.41.41,0,0,0,.13-.33.35.35,0,0,0-.1-.28.81.81,0,0,0-.24-.15L15.66,22a1.28,1.28,0,0,1-.6-.39,1,1,0,0,1-.2-.65,1.23,1.23,0,0,1,.08-.44.92.92,0,0,1,.24-.36,1.22,1.22,0,0,1,.43-.24,1.94,1.94,0,0,1,.63-.09,1.43,1.43,0,0,1,1,.28,1,1,0,0,1,.31.79v.15h-.86a.76.76,0,0,0-.09-.43.37.37,0,0,0-.33-.14.52.52,0,0,0-.32.1.35.35,0,0,0-.14.3.4.4,0,0,0,.09.25.67.67,0,0,0,.33.19l.58.19a1.31,1.31,0,0,1,.64.4,1.08,1.08,0,0,1,.19.67,1.2,1.2,0,0,1-.1.52,1,1,0,0,1-.29.37,1.13,1.13,0,0,1-.44.21,2.34,2.34,0,0,1-.56.06,2.49,2.49,0,0,1-.67-.08,1,1,0,0,1-.42-.23.83.83,0,0,1-.22-.37,1.79,1.79,0,0,1-.06-.49v-.13h.86Z"/><path class="cls-3" d="M18.77,22.25a2.11,2.11,0,0,0,0,.32,1.05,1.05,0,0,0,.08.28A.53.53,0,0,0,19,23a.34.34,0,0,0,.22.07.39.39,0,0,0,.36-.17,1.29,1.29,0,0,0,.15-.53h.86a1.5,1.5,0,0,1-.35,1,1.33,1.33,0,0,1-1,.34,1.6,1.6,0,0,1-.81-.17,1.08,1.08,0,0,1-.43-.46,1.81,1.81,0,0,1-.17-.64q0-.36,0-.71a4.85,4.85,0,0,1,.05-.72,1.74,1.74,0,0,1,.21-.62,1.13,1.13,0,0,1,.45-.43,1.63,1.63,0,0,1,.78-.16A1.51,1.51,0,0,1,20,20a1,1,0,0,1,.42.38,1.61,1.61,0,0,1,.21.6,5,5,0,0,1,.06.78v.22h-1.9Zm1-1.25a1,1,0,0,0-.07-.28.39.39,0,0,0-.15-.17.45.45,0,0,0-.24-.06.41.41,0,0,0-.24.07.47.47,0,0,0-.15.17.86.86,0,0,0-.08.24,1.46,1.46,0,0,0,0,.26v.15h1Q19.74,21.16,19.72,21Z"/><path class="cls-3" d="M22,19.93v.44h0a1,1,0,0,1,.4-.41,1.18,1.18,0,0,1,.56-.13,1,1,0,0,1,.71.25,1.13,1.13,0,0,1,.25.81v2.78h-1V21.09a.64.64,0,0,0-.1-.41.39.39,0,0,0-.31-.11q-.51,0-.51.62v2.49H21V19.93Z"/><path class="cls-3" d="M27.11,19.93l-.94,3.75H25.06l-1-3.75h1l.54,2.68h0l.51-2.68Z"/><path class="cls-3" d="M27.28,21a1.63,1.63,0,0,1,.25-.62A1.12,1.12,0,0,1,28,20a1.66,1.66,0,0,1,.69-.13,1.77,1.77,0,0,1,.72.11,1,1,0,0,1,.45.37,1.67,1.67,0,0,1,.24.62,4.72,4.72,0,0,1,.07.86,4.2,4.2,0,0,1-.08.85,1.64,1.64,0,0,1-.25.62,1,1,0,0,1-.46.37,1.79,1.79,0,0,1-.69.12,1.86,1.86,0,0,1-.72-.11,1,1,0,0,1-.45-.36,1.63,1.63,0,0,1-.24-.62,4.74,4.74,0,0,1-.07-.86A4.2,4.2,0,0,1,27.28,21Zm.9,1.38a1.85,1.85,0,0,0,.07.42.6.6,0,0,0,.16.27.39.39,0,0,0,.28.1.41.41,0,0,0,.4-.31,3.25,3.25,0,0,0,.11-1,3.25,3.25,0,0,0-.11-1,.41.41,0,0,0-.4-.31.39.39,0,0,0-.28.1.6.6,0,0,0-.16.27,1.85,1.85,0,0,0-.07.42q0,.24,0,.53T28.18,22.33Z"/><path class="cls-3" d="M31.53,18.7v5h-1v-5Z"/><path class="cls-3" d="M34.8,19.93l-.94,3.75H32.75l-1-3.75h1l.54,2.68h0l.51-2.68Z"/><path class="cls-3" d="M36,18.65v.82h-1v-.82Zm0,1.28v3.75h-1V19.93Z"/><path class="cls-3" d="M37.47,19.93v.38h0a1.1,1.1,0,0,1,.41-.37,1.21,1.21,0,0,1,.54-.11A1,1,0,0,1,39,20a.74.74,0,0,1,.3.45h0a.85.85,0,0,1,.36-.45,1.11,1.11,0,0,1,.59-.15.84.84,0,0,1,.71.29,1.33,1.33,0,0,1,.23.83v2.72h-1V21.06a.63.63,0,0,0-.09-.36.33.33,0,0,0-.29-.13.46.46,0,0,0-.37.15.72.72,0,0,0-.14.49v2.47h-1V21.06a.63.63,0,0,0-.09-.36.33.33,0,0,0-.29-.13.46.46,0,0,0-.37.15.73.73,0,0,0-.14.49v2.47h-1V19.93Z"/><path class="cls-3" d="M42.51,22.25a2.11,2.11,0,0,0,0,.32,1.05,1.05,0,0,0,.08.28.53.53,0,0,0,.15.19.34.34,0,0,0,.22.07.39.39,0,0,0,.36-.17,1.29,1.29,0,0,0,.15-.53h.86a1.5,1.5,0,0,1-.35,1,1.33,1.33,0,0,1-1,.34,1.6,1.6,0,0,1-.81-.17,1.08,1.08,0,0,1-.43-.46,1.81,1.81,0,0,1-.17-.64q0-.36,0-.71A4.85,4.85,0,0,1,41.6,21a1.74,1.74,0,0,1,.21-.62,1.13,1.13,0,0,1,.45-.43,1.63,1.63,0,0,1,.78-.16,1.51,1.51,0,0,1,.69.14,1,1,0,0,1,.42.38,1.61,1.61,0,0,1,.21.6,5,5,0,0,1,.06.78v.22h-1.9Zm1-1.25a1,1,0,0,0-.07-.28.39.39,0,0,0-.15-.17.45.45,0,0,0-.24-.06.41.41,0,0,0-.24.07.47.47,0,0,0-.15.17.86.86,0,0,0-.08.24,1.46,1.46,0,0,0,0,.26v.15h1Q43.49,21.16,43.46,21Z"/><path class="cls-3" d="M45.69,19.93v.44h0a1,1,0,0,1,.4-.41,1.18,1.18,0,0,1,.56-.13,1,1,0,0,1,.71.25,1.13,1.13,0,0,1,.25.81v2.78h-1V21.09a.64.64,0,0,0-.1-.41.39.39,0,0,0-.31-.11q-.51,0-.51.62v2.49h-1V19.93Z"/><path class="cls-3" d="M49.29,18.86v1.07h.56v.65h-.56v2a.57.57,0,0,0,.07.32.32.32,0,0,0,.28.09h.22v.67h-.63a2.25,2.25,0,0,1-.46,0,.46.46,0,0,1-.27-.15.66.66,0,0,1-.13-.3,2.66,2.66,0,0,1,0-.47V20.58h-.49v-.65h.49V18.86Z"/><path class="cls-3" d="M50,21a1.63,1.63,0,0,1,.25-.62A1.12,1.12,0,0,1,50.7,20a1.66,1.66,0,0,1,.69-.13,1.77,1.77,0,0,1,.72.11,1,1,0,0,1,.45.37,1.67,1.67,0,0,1,.24.62,4.72,4.72,0,0,1,.07.86,4.2,4.2,0,0,1-.08.85,1.64,1.64,0,0,1-.25.62,1,1,0,0,1-.46.37,1.79,1.79,0,0,1-.69.12,1.86,1.86,0,0,1-.72-.11,1,1,0,0,1-.45-.36,1.63,1.63,0,0,1-.24-.62,4.74,4.74,0,0,1-.07-.86A4.2,4.2,0,0,1,50,21Zm.9,1.38a1.85,1.85,0,0,0,.07.42.6.6,0,0,0,.16.27.39.39,0,0,0,.28.1.41.41,0,0,0,.4-.31,3.25,3.25,0,0,0,.11-1,3.25,3.25,0,0,0-.11-1,.41.41,0,0,0-.4-.31.39.39,0,0,0-.28.1.6.6,0,0,0-.16.27,1.85,1.85,0,0,0-.07.42q0,.24,0,.53T50.89,22.33Z"/><path class="cls-3" d="M56.66,18.7a1.4,1.4,0,0,1,1,.32A1.24,1.24,0,0,1,58,20a1.5,1.5,0,0,1-.2.82.93.93,0,0,1-.63.41h0a.91.91,0,0,1,.55.24,1,1,0,0,1,.22.61c0,.09,0,.19,0,.3s0,.23,0,.37,0,.47,0,.61a.39.39,0,0,0,.18.29v0H57.09a.54.54,0,0,1-.1-.24,2.68,2.68,0,0,1,0-.28l0-1a.79.79,0,0,0-.15-.46.54.54,0,0,0-.45-.17h-.54v2.1h-1v-5Zm-.43,2.17a.82.82,0,0,0,.56-.17.73.73,0,0,0,.19-.57.61.61,0,0,0-.7-.69h-.47v1.43Z"/><path class="cls-3" d="M59.33,22.25a2.11,2.11,0,0,0,0,.32,1.05,1.05,0,0,0,.08.28.53.53,0,0,0,.15.19.34.34,0,0,0,.22.07.39.39,0,0,0,.36-.17,1.29,1.29,0,0,0,.15-.53h.86a1.5,1.5,0,0,1-.35,1,1.33,1.33,0,0,1-1,.34,1.6,1.6,0,0,1-.81-.17,1.08,1.08,0,0,1-.43-.46,1.81,1.81,0,0,1-.17-.64q0-.36,0-.71a4.85,4.85,0,0,1,.05-.72,1.74,1.74,0,0,1,.21-.62,1.13,1.13,0,0,1,.45-.43,1.63,1.63,0,0,1,.78-.16,1.51,1.51,0,0,1,.69.14,1,1,0,0,1,.42.38,1.61,1.61,0,0,1,.21.6,5,5,0,0,1,.06.78v.22h-1.9Zm1-1.25a1,1,0,0,0-.07-.28.39.39,0,0,0-.15-.17.45.45,0,0,0-.24-.06.41.41,0,0,0-.24.07.47.47,0,0,0-.15.17.86.86,0,0,0-.08.24,1.46,1.46,0,0,0,0,.26v.15h1Q60.3,21.16,60.28,21Z"/><path class="cls-3" d="M64.4,23.49A1.49,1.49,0,0,1,64,24.57a1.65,1.65,0,0,1-1.2.36,1.49,1.49,0,0,1-.94-.26.89.89,0,0,1-.33-.74h.92a.33.33,0,0,0,.15.29l.15.08.17,0a.45.45,0,0,0,.41-.19.86.86,0,0,0,.12-.47v-.49h0a1.15,1.15,0,0,1-.36.33.86.86,0,0,1-.44.13,1,1,0,0,1-.86-.44,2.75,2.75,0,0,1-.29-1.46,6,6,0,0,1,0-.67,2.09,2.09,0,0,1,.16-.62,1.12,1.12,0,0,1,.35-.45,1,1,0,0,1,.62-.17.91.91,0,0,1,.42.11.83.83,0,0,1,.35.4h0v-.42h.92Zm-1.9-1.2a1.2,1.2,0,0,0,.07.31.52.52,0,0,0,.15.22.37.37,0,0,0,.25.08.4.4,0,0,0,.25-.08.55.55,0,0,0,.16-.22,1.25,1.25,0,0,0,.08-.34,3.6,3.6,0,0,0,0-.44,3,3,0,0,0-.11-1,.39.39,0,0,0-.39-.29.44.44,0,0,0-.26.07.46.46,0,0,0-.15.23,1.6,1.6,0,0,0-.07.42q0,.26,0,.64A3.69,3.69,0,0,0,62.49,22.29Z"/><path class="cls-3" d="M65.93,18.65v.82H65v-.82Zm0,1.28v3.75H65V19.93Z"/><path class="cls-3" d="M66.42,21a1.63,1.63,0,0,1,.25-.62,1.12,1.12,0,0,1,.46-.38,1.66,1.66,0,0,1,.69-.13,1.77,1.77,0,0,1,.72.11,1,1,0,0,1,.45.37,1.67,1.67,0,0,1,.24.62,4.72,4.72,0,0,1,.07.86,4.2,4.2,0,0,1-.08.85,1.64,1.64,0,0,1-.25.62,1,1,0,0,1-.46.37,1.79,1.79,0,0,1-.69.12,1.86,1.86,0,0,1-.72-.11,1,1,0,0,1-.45-.36,1.63,1.63,0,0,1-.24-.62,4.74,4.74,0,0,1-.07-.86A4.2,4.2,0,0,1,66.42,21Zm.9,1.38a1.85,1.85,0,0,0,.07.42.6.6,0,0,0,.16.27.39.39,0,0,0,.28.1.41.41,0,0,0,.4-.31,3.25,3.25,0,0,0,.11-1,3.25,3.25,0,0,0-.11-1,.41.41,0,0,0-.4-.31.39.39,0,0,0-.28.1.6.6,0,0,0-.16.27,1.85,1.85,0,0,0-.07.42q0,.24,0,.53T67.32,22.33Z"/><path class="cls-3" d="M70.59,19.93v.44h0A1,1,0,0,1,71,20a1.18,1.18,0,0,1,.56-.13,1,1,0,0,1,.71.25,1.13,1.13,0,0,1,.25.81v2.78h-1V21.09a.64.64,0,0,0-.1-.41.39.39,0,0,0-.31-.11q-.51,0-.51.62v2.49h-1V19.93Z"/><path class="cls-3" d="M73,21a1.27,1.27,0,0,1,.1-.55,1,1,0,0,1,.28-.36,1.13,1.13,0,0,1,.42-.19,2.15,2.15,0,0,1,.51-.06,2.38,2.38,0,0,1,.7.08,1,1,0,0,1,.41.24.8.8,0,0,1,.2.37,2,2,0,0,1,.05.46v2a2.65,2.65,0,0,0,0,.41,1.42,1.42,0,0,0,.09.31h-.92a.78.78,0,0,1-.07-.19l0-.2h0a.82.82,0,0,1-.39.38,1.56,1.56,0,0,1-.57.09.94.94,0,0,1-.42-.09.72.72,0,0,1-.28-.24,1.08,1.08,0,0,1-.15-.34,1.52,1.52,0,0,1,0-.38,1.64,1.64,0,0,1,.06-.46.89.89,0,0,1,.17-.33.94.94,0,0,1,.29-.23,2.34,2.34,0,0,1,.43-.16l.54-.15a.58.58,0,0,0,.3-.15.43.43,0,0,0,.08-.29.52.52,0,0,0-.1-.34.43.43,0,0,0-.34-.12.41.41,0,0,0-.33.13.53.53,0,0,0-.11.35v.1H73Zm1.55.94-.2.07a.74.74,0,0,0-.42.21.59.59,0,0,0-.13.4.76.76,0,0,0,.08.37.29.29,0,0,0,.28.15.71.71,0,0,0,.2,0,.57.57,0,0,0,.19-.1.53.53,0,0,0,.14-.18.58.58,0,0,0,.06-.26V21.8A.86.86,0,0,1,74.55,21.92Z"/><path class="cls-3" d="M77.22,18.7v5h-1v-5Z"/></g></g></g></svg>