<svg xmlns="http://www.w3.org/2000/svg" xmlns:xlink="http://www.w3.org/1999/xlink" viewBox="0 0 39.88 51.84"><defs><style>.cls-1{isolation:isolate;}.cls-2{opacity:0.5;mix-blend-mode:multiply;fill:url(#radial-gradient);}.cls-3{fill:none;stroke:#3c3c3b;stroke-linecap:round;stroke-miterlimit:10;stroke-width:2px;}.cls-4{fill:#7a9a2b;}.cls-5{fill:#fff;}</style><radialGradient id="radial-gradient" cx="19.94" cy="47" r="18.03" gradientTransform="translate(0 36.46) scale(1 0.22)" gradientUnits="userSpaceOnUse"><stop offset="0.22" stop-color="#7b7b7b"/><stop offset="0.35" stop-color="#8a8a8a" stop-opacity="0.89"/><stop offset="0.6" stop-color="#b2b2b2" stop-opacity="0.58"/><stop offset="0.94" stop-color="#f2f2f2" stop-opacity="0.1"/><stop offset="1" stop-color="#fff" stop-opacity="0"/></radialGradient></defs><title>pin-map</title><g class="cls-1"><g id="Layer_2" data-name="Layer 2"><g id="Layer_1-2" data-name="Layer 1"><ellipse class="cls-2" cx="19.94" cy="47" rx="19.94" ry="4.83"/><line class="cls-3" x1="19.94" y1="46" x2="19.94" y2="21.23"/><circle class="cls-4" cx="19.94" cy="15.46" r="15.46"/><path class="cls-5" d="M19.77,5.13a3.58,3.58,0,0,1,3.58,3.57h0a3.58,3.58,0,1,1-3.58-3.58Z"/><path class="cls-5" d="M23.35,21.56h0A3.58,3.58,0,1,1,19.77,18a3.58,3.58,0,0,1,3.58,3.58Z"/><path class="cls-5" d="M31.55,17.3H8a.07.07,0,0,1-.07-.07V13.33A.07.07,0,0,1,8,13.25H31.55a.07.07,0,0,1,.07.07v3.91A.07.07,0,0,1,31.55,17.3Z"/></g></g></g></svg>